<svg width="94" height="88" viewBox="0 0 94 88" fill="none" xmlns="http://www.w3.org/2000/svg">
<rect x="3" width="88" height="88" rx="44" fill="white"/>
<g clip-path="url(#clip0_1895_16488)">
<path d="M81.7391 31.3835V71.7999C54.4928 57.2502 27.2464 86.3496 0 71.7999V31.3835C2.57342 32.7581 5.14684 33.7428 7.72026 34.4114C32.3932 40.8261 57.0662 18.2084 81.7391 31.3835Z" fill="#8BE27C"/>
<path opacity="0.64" d="M81.7391 31.3835V60.0636C57.0661 53.6489 32.3932 76.2666 7.72021 63.0915V34.4114C32.3932 40.8261 57.0661 18.2084 81.7391 31.3835Z" fill="#3FB12C"/>
<path d="M93.9999 56.6165C66.7535 42.0668 39.5071 71.1662 12.2607 56.6165V16.2001C39.5071 30.7499 66.7535 1.65042 93.9999 16.2001V56.6165Z" fill="#8BE27C"/>
<path d="M53.1302 44.2644C57.542 44.2644 61.1184 40.7472 61.1184 36.4086C61.1184 32.0699 57.542 28.5527 53.1302 28.5527C48.7185 28.5527 45.1421 32.0699 45.1421 36.4086C45.1421 40.7472 48.7185 44.2644 53.1302 44.2644Z" fill="#E7FAE3"/>
</g>
<defs>
<clipPath id="clip0_1895_16488">
<rect width="94" height="64" fill="white" transform="translate(0 12)"/>
</clipPath>
</defs>
</svg>
