<svg xmlns="http://www.w3.org/2000/svg" fill="none" viewBox="0 0 89 107"><rect fill="#fff" width="88" height="88" x=".25" y="18" rx="44"/><path d="m21.614 21.796.878-2.01a7.742 7.742 0 0 1 3.94-3.992l2.416-1.072c.768-.341.768-1.458 0-1.8l-2.34-1.038a7.747 7.747 0 0 1-3.997-4.125l-.89-2.142a.946.946 0 0 0-1.758 0l-.889 2.142a7.747 7.747 0 0 1-3.997 4.125l-2.34 1.039c-.769.34-.769 1.458 0 1.799l2.415 1.072a7.742 7.742 0 0 1 3.94 3.991l.878 2.01a.946.946 0 0 0 1.744 0Zm13.034 4.328-.247.566a.507.507 0 0 1-.934 0l-.247-.566a4.365 4.365 0 0 0-2.221-2.25l-.76-.339a.53.53 0 0 1 0-.963l.717-.319a4.368 4.368 0 0 0 2.253-2.326l.254-.611a.507.507 0 0 1 .942 0l.254.61a4.368 4.368 0 0 0 2.253 2.327l.718.32a.53.53 0 0 1 0 .962l-.76.338a4.365 4.365 0 0 0-2.222 2.251Z" fill="#F9A06C"/><mask id="a" width="89" height="107" x="0" y="0" maskUnits="userSpaceOnUse" style="mask-type:alpha"><path d="M88.683 62.18c0 24.3-19.7 44-44 44s-44-19.7-44-44 19.7-44 44-44C46.559 18.18 54.086.288 55.9.516c16.164 0 14.277 24.406 21.138 31.847 7.228 7.84 11.644 18.313 11.644 29.817Z" fill="#D9D9D9"/></mask><g mask="url(#a)"><path d="M67.6 67.47c-.101 1.362-.242 2.528-.432 3.442-.025.12-.05.239-.077.358-.02.084-.038.17-.06.255a7.328 7.328 0 0 1-.089.357l-.023.094-.069.255c-.079.292-.166.581-.256.868l-.134.405-.007.02a17.24 17.24 0 0 1-.141.401l-.11.303-.096.25c-.895 2.324-2.102 4.454-3.305 6.25a40.624 40.624 0 0 1-1.428 1.998c-1.768 2.322-3.226 3.73-3.226 3.73s-.09 1.665-.483 3.894a32.664 32.664 0 0 1-.878 3.732l-.02.067c-.753 2.46-1.902 4.913-3.647 6.337-3.73 3.044-18.167 41.285-22.837 53.838-.923 2.484-1.465 3.963-1.465 3.963L.047 146.502 27.42 95.154l-.847-1.964-.001-.004-1.068-2.473-1.67-3.87-.044-.106.98-1.65 5.266-8.867 1.304-2.195 5.973-10.058 1.65-2.776 5.71-9.618 1.683-2.833 6.019-10.134.69-1.161.054-.091.065-.194c.285-.887 1.408-4.794 1.363-11.015a53.638 53.638 0 0 0-.312-5.347c-.05-.468-.097-.93-.14-1.39C53.178 9.675 53.941 2 59.542 2c5.6 0 7.97 12.451 7.582 20.88-.002.078-.007.156-.01.233l-.015.247c0 .009 0 .017-.002.027l-.013.218a23.36 23.36 0 0 0-.022.355 5.009 5.009 0 0 0-.009.173l-.013.32c-.064 1.662-.05 3.918.008 6.56a1353.224 1353.224 0 0 1 .03 1.203c.01.424.022.85.034 1.276l.022.72c.023.777.048 1.553.075 2.329l.015.456v.03l.113 3.24.073 2.106c.05 1.427.101 2.877.148 4.328.253 7.796.419 15.665.038 20.77h.002Z" fill="#9D5740"/><path d="M63.173 44.979a1.11 1.11 0 0 1-.096.335c-.19.402-.908.698-1.223.252-.054-.076-.062-.173-.07-.266l-.05-.631c-.03-.344-.058-.695-.195-1.012-.138-.316-.402-.6-.741-.66-.538-.096-.997.362-1.508.552-.573.214-1.185.081-1.764-.032-.594-.114-.73-.264-1.09-.754-.326-.441-.579-.933-.917-1.364-.657-.835-1.594-1.389-2.404-2.077a7.21 7.21 0 0 1-.742-.717l.744-1.253s.024-.065.066-.193c.284-.888 1.407-4.795 1.362-11.016l.11.007c.027 1.66 1.018 3.158 1.248 4.803.16 1.16-.063 2.342.033 3.51.158 1.95 1.224 2.576 2.85 3.23.921.37 1.74.94 2.428 1.658.633.66 1.47 1.555 1.573 2.5.04.375-.052.754-.023 1.13.03.398.194.774.308 1.156.08.27.134.562.1.838v.004Z" fill="#7C361F"/><path d="M62.39 52.595v.022l-.003.204v.003a21.168 21.168 0 0 1-.059 1.263l-.015.183-.025.261a4 4 0 0 1-.025.206c-.002.018-.003.039-.007.057a6.35 6.35 0 0 1-.048.33 5.47 5.47 0 0 1-.049.285l-.003.018a4.328 4.328 0 0 1-.046.214c-.278 1.293-.779 2.17-1.56 3.032l-.023.025c-.074.081-.15.162-.227.24a6.43 6.43 0 0 1-.24.238c-.075.076-.152.15-.23.223l-.242.224c-.007.006-.017.013-.027.023-.342.312-.72.636-1.136.995 0 0 .56 7.631-4.748 10.27 0 0 2.234 8.249-2.514 10.493 0 0 .558 9.54-4.748 9.822-5.308.279-14.19 1.963-14.19 1.963s-10.204-2.733-13.277-7.223c-.969-1.414-1.344-2.974-1.405-4.451-.077-1.828.329-3.522.694-4.64.275-.845.525-1.363.525-1.363s-3.649-5.051-2.244-9.54a81.944 81.944 0 0 1 1.285-3.807c.615-1.675.959-2.366.959-2.366s-.076-.574-.113-1.448c-.088-2.053.026-5.759 1.789-7.53.498-.5 1.076-.956 1.68-1.367a18.51 18.51 0 0 1 2.045-1.195c1.83-.928 3.114-2.694 3.37-4.738.358-2.88 1.737-6.778 6.401-8.133 0 0 27.285-1.123 28.123 10.101l.008.108c.089 1.19.161 2.26.215 3.224.084 1.486.124 2.724.11 3.774Z" fill="#9D5740"/><path d="M47.706 88.315c.008.015 5.108 8.987 1.562 12.122-3.547 3.134-18.7-1.66-22.695-7.248-1.096-1.532-2.185-3.072-3.212-4.653-.34-.522-1.733-2.344-.124-1.751.335.123.64.318.973.443.654.244 1.376.205 2.053.372 1.189.294 2.127 1.187 3.212 1.756 1.43.749 3.08.919 4.687 1.05.741.06 1.495.116 2.223-.045 1.096-.244 2.02-.957 2.983-1.536 1.74-1.044 3.48-.811 5.42-.692.288.019 2.774-.077 2.92.18l-.002.002Z" fill="#713323"/><path d="M57.664 90.349a32.562 32.562 0 0 1-.898 3.8c-.753 2.46-1.903 4.912-3.647 6.336-3.73 3.044-18.168 41.285-22.837 53.838-2.254-.026-4.694-1.154-5.324-3.312-1.16-3.98 3.61-8.423 4.855-11.919 1.054-2.956 1.436-6.123 2.536-9.063 1.845-4.932 5.56-8.873 8.83-12.993 3.956-4.987 5.578-10.898 9.168-16.095.911-1.32 1.885-2.61 2.562-4.067.615-1.325 2.087-5.736 3.872-6.478a1.23 1.23 0 0 1 .883-.047Z" fill="#7C361F"/><path d="M67.599 67.468c-.1 1.361-.241 2.526-.43 3.44l-.078.36c-.02.083-.038.17-.06.253a7.06 7.06 0 0 1-.089.357l-.023.095a21.564 21.564 0 0 1-.325 1.123c-.044.136-.09.27-.135.405-.001.007-.005.014-.006.02-.046.135-.093.268-.141.401l-.11.303-.096.25c-.895 2.324-2.102 4.454-3.305 6.25a40.512 40.512 0 0 1-1.428 1.998c-1.768 2.322-3.226 3.73-3.226 3.73s-.09 1.665-.483 3.894a32.621 32.621 0 0 1-.878 3.732c-.57-.65-.815-1.722-.818-2.641-.032-8.107 6.945-14.573 8.587-22.51.121-.585.213-1.176.284-1.77.156-1.308.21-2.63.264-3.947.203-4.885.406-9.769.607-14.653.188-4.512-.157-8.17-.833-12.596a23.483 23.483 0 0 1 1.428-12.25c.11-.267.233-.548.473-.708a.82.82 0 0 1 .347-.128c-.002.08-.007.156-.01.234l-.015.248c0 .008 0 .016-.002.026l-.013.218a23.44 23.44 0 0 0-.03.528c-.006.106-.01.214-.014.32-.064 1.662-.05 3.918.008 6.56a1373.423 1373.423 0 0 1 .03 1.203c.01.424.022.85.034 1.276l.022.72a532.306 532.306 0 0 0 .09 2.785v.03c.035 1.056.074 2.138.113 3.24l.073 2.105c.05 1.428.1 2.878.148 4.329.253 7.796.419 15.665.038 20.77h.002Z" fill="#7C361F"/><path d="M57.416 12.339c.464.584.945 1.15 1.545 1.586.977.712 2.424.981 3.355.212.711-.588.915-1.58 1.044-2.494.612-4.29-4.878-10.417-7.866-4.779-.411.776-.58 1.72-.28 2.547.258.712.823 1.26 1.317 1.832.305.353.592.729.885 1.096Z" fill="#B36A51"/><path d="M62.39 52.598v.022l-.004.204c-.003.161-.006.324-.013.486-.01.26-.023.52-.045.78l-.015.183a6.46 6.46 0 0 1-.05.466l-.007.058a6.35 6.35 0 0 1-.049.33c-.013.095-.03.19-.048.284l-.004.019a4.447 4.447 0 0 1-.045.213 6.564 6.564 0 0 1-1.56 3.032l-.024.026c-.074.08-.149.161-.226.239a6.354 6.354 0 0 1-.24.239 28.861 28.861 0 0 1-.473.446c-.006.007-.016.013-.026.023-.226.187-1.136.814-1.136.995 0 0 .56 7.632-4.748 10.27 0 0 2.234 8.25-2.514 10.493 0 0 .558 9.54-4.748 9.822-5.308.28-14.19 1.963-14.19 1.963s-10.204-2.732-13.278-7.222c-.968-1.414-1.344-2.975-1.404-4.451.436.057.871.218 1.279.392 4.858 2.059 9.132 5.963 14.396 6.27 2.522.146 5.01-.572 7.42-1.336 1.515-.481 3.073-1.012 4.24-2.096 1.166-1.086 1.832-2.879 1.151-4.321-.147-.442-4.577-1.007-5.184-1.14l-5.874-1.291c-3.467-.765-6.457-2.421-9.37-4.462-.313-.22-.64-.463-.781-.821 3.271-.096 6.402 1.217 9.422 2.481 2.637 1.103 5.42 2.307 8.333 2.206 2.02-.071 4.116-1.13 4.895-3.002.577-1.386.393-3.06 1.227-4.307.221-.331.513-.628.639-1.006.337-1.019-.64-1.978-1.57-2.504-3.895-2.197-8.596-2.161-12.977-3.035-.756-.152-1.554-.357-2.079-.924-.524-.566-.6-1.61.04-2.04.279-.188.63-.225.966-.238 2.874-.118 5.621 1.057 8.415 1.744 2.795.688 6.059.783 8.217-1.128.655-.583 1.182-1.328 1.946-1.756.541-.301 1.165-.42 1.718-.699.553-.276 1.064-.8 1.034-1.419-.037-.754-.81-1.22-1.485-1.55-3.838-1.876-7.703-3.761-11.817-4.908-1.32-.367-2.692-.67-3.84-1.422-1.148-.753-2.04-2.091-1.817-3.448a72.633 72.633 0 0 1 10.539 3.082c1.384.52 2.79 1.093 4.267 1.115 1.074.017 2.137-.263 3.127-.677a11.635 11.635 0 0 0 3.223-2.03c.649-.576 1.269-1.241 2.061-1.62.801-.384 1.93-.301 2.76-.029.09 1.19.162 2.26.215 3.225.084 1.486.124 2.723.11 3.774Z" fill="#7C361F"/><path d="M21.855 58.535c-.627.424-1.4.745-2.13.548-.412-.11-.767-.38-1.05-.7l-.026-.03c-.089-2.054.025-5.76 1.788-7.53a11.45 11.45 0 0 1 1.681-1.368.642.642 0 0 1 .319.255c.08.13.105.286.115.439.053.803-.266 1.577-.489 2.35-.223.775-.338 1.655.074 2.347.261.438.715.753.91 1.226.379.915-.372 1.91-1.192 2.463Zm-1.124 18.05c-.119.136-.303.19-.48.23a5.198 5.198 0 0 1-2.014.062c.275-.845.525-1.364.525-1.364s-3.649-5.05-2.244-9.538a81.944 81.944 0 0 1 1.285-3.809c.06-.006.122-.011.186-.013 3.43-.121 1.061 2.374.516 4.047-.657 2.019-.457 4.34.654 6.16.355.581.791 1.111 1.105 1.716.28.542.455 1.133.568 1.734.05.264.077.572-.101.774Z" fill="#B36A51"/></g></svg>