<svg xmlns="http://www.w3.org/2000/svg" fill="none" viewBox="0 0 110 53"><g clip-path="url(#a)"><path d="M54.807 0h-.596c-1.038.19-2.02.626-3.02 1.195-.654.456-1.481.227-2.173 0 .327.493.712.987 1.269 1.271a8.086 8.086 0 0 0-.808 1.556c-.02.127-.047.255-.073.384-.096.467-.194.943-.042 1.419.02.268.114.52.207.77.085.229.169.455.197.69-.635.171-1.328.323-1.982.096-.923-.21-1.423-1.158-1.48-2.031.018-.778.48-1.48 1.056-1.973-.346-.683-.98-1.157-1.654-1.498-.788-.285-1.674-.38-2.481-.077-1.231.456-2.173 1.385-3 2.335-1.193 1.554-2.118 3.414-2.194 5.388.058.17.076.34.076.512-.028-.083-.055-.17-.083-.258a19.27 19.27 0 0 0-.09-.274 27.43 27.43 0 0 0-.019 2.486c.48-.134.905-.398 1.29-.721-.173 1.613-.54 3.207-1.174 4.724-.368.924-.835 1.799-1.301 2.674-.118.221-.237.443-.353.665C39.84 18.1 43.035 16.07 45.42 13.3c.076.684-.019 1.386-.192 2.05 1.924-.854 3.77-2.277 4.309-4.383.076 0 .25-.037.327-.057 0 .569-.115 1.12-.25 1.67-.29.834-.635 1.632-1.154 2.333-1.809 2.543-4.81 3.985-7.811 4.706.233.383.642.543 1.044.7.096.038.191.076.284.116 1.48.587 3.116.664 4.693.607l.128-.008c.203-.01.426-.023.584-.163.75-.493 1.405-1.157 1.712-2.012-.134.969.193 1.879.52 2.77v.59c-.615.265-1.02.814-1.309 1.403.368-.021.738-.055 1.11-.088 1.3-.117 2.616-.235 3.874.163l.112-.179c.052-.082.106-.167.137-.219a1.84 1.84 0 0 0-.483-.558c-.555-.403-1.297-.532-1.98-.6l.002-.03-.06-.007c.04-.702.443-1.252.944-1.689.788-.683 1.25-1.65 1.48-2.637l.02.09.02-.072c.23 1.062.673 2.069 1.346 2.922.32.35.33.801.341 1.252l.005.19c-.457.32-.82.714-1.108 1.182.448.045.898.07 1.348.097 1.198.07 2.395.138 3.531.562.115-1.251-1.287-1.612-2.248-1.859h-.003c-.129-.792.233-1.447.594-2.098.123-.223.246-.445.35-.672.846-1.973.98-4.136.825-6.242.655.93 1.732 1.385 2.828 1.575-.25-.836-.23-1.727-.172-2.58a16.221 16.221 0 0 0 1.98 3.074c1.098 1.29 2.52 2.238 3.945 3.11l.225.122c.737.402 1.496.817 2.333.903-.366-.607-.692-1.233-.904-1.897l-.011-.034c-.651-1.982-1.314-4.001-1.144-6.114.348.342.79.55 1.252.703.134-1.84-.039-3.737-.847-5.427-.961-2.143-2.559-4.344-5.02-4.876-.156 0-.312-.005-.468-.01-.504-.018-1.01-.035-1.495.124-.943.247-1.693.892-2.328 1.594.347.341.635.74.885 1.157.078.703.096 1.404-.192 2.068a3.706 3.706 0 0 1-1.097.778c-.27-1.499-1.039-3.093-2.597-3.642a32.01 32.01 0 0 0-1.385-.038c.289-.455.616-.967 1.173-1.14.246-.045.503-.041.753-.038l.19.002c.11.069.216.138.322.207.096.064.192.127.293.19a7.51 7.51 0 0 1 .03-.258c.044-.342.09-.695-.048-1.012-.102-.23-.325-.35-.544-.47a3.62 3.62 0 0 1-.207-.118C56.02.74 55.77.417 55.422.19c-.124-.033-.25-.074-.37-.113A10.749 10.749 0 0 0 54.806 0Z" fill="#000"/><path d="M53.577 23.318c.153 0 .307.019.461.019 1.654.17 3.347.075 4.925.664.038-.075.096-.247.115-.323 1.981.361 3.983.683 5.925 1.233 5.695 1.594 11.1 4.421 15.371 8.52.193.189.309.435.424.664-1.481-.172-2.79-.873-4.175-1.367-5.271-2.144-10.811-3.757-16.487-4.364-5.925-.72-11.965-.398-17.832.721-2.424.437-4.79 1.12-7.138 1.822-2 .607-3.925 1.385-5.886 2.124-1.136.418-2.25.95-3.482 1.064.019-.077.038-.247.038-.323 4.233-4.155 9.581-7.058 15.294-8.727 2.366-.627 4.771-1.196 7.233-1.405 1.655-.114 3.367-.437 4.983.077.058-.096.173-.305.23-.399Z" fill="#000"/><mask id="b" width="14" height="16" x="50" y="37" maskUnits="userSpaceOnUse" style="mask-type:luminance"><path d="M50.027 37.45H63.59V53H50.027V37.45Z" fill="#fff"/></mask><g mask="url(#b)"><path d="M54.211 38.326c2.616-1.253 5.695-1.082 8.33 0 .269.152.557.284.828.417.038 1.234.019 2.447 0 3.68-1.328-1.195-3.117-1.783-4.907-1.877-1.326-.038-2.692.492-3.616 1.46-.462.494-.75 1.101-1.02 1.708-.23 1.422-.25 3.017.655 4.25.692 1.08 1.942 1.65 3.193 1.86.808.056 1.616-.096 2.405-.323-.02-.816.076-1.651-.212-2.43-.307-.986-.904-1.84-1.52-2.674 1.694-.057 3.367.15 5.06.095v7.058l-.692.341c-2.271 1.006-4.887 1.499-7.292.74-1.943-.57-3.636-1.936-4.54-3.738-.865-1.594-1-3.452-.712-5.199.404-2.295 1.924-4.324 4.04-5.368Z" fill="#000"/></g><path d="M33.185 37.908c.173 0 .52 0 .673.019 3.174 2.619 6.368 5.218 9.542 7.835.019-2.617 0-5.216 0-7.835h3.616c-.018 4.952.04 9.923.02 14.875-.29-.057-.635.018-.866-.228-3.155-2.58-6.29-5.199-9.445-7.779.038 2.657 0 5.313.019 7.95-1.193.018-2.385 0-3.559.018V37.908Zm50.152.037h12.985V41h-4.694c-.019 3.928 0 7.854 0 11.782H88.07c-.02-3.928.02-7.854-.02-11.763h-4.712v-3.074Zm15.812.001c3.617 0 7.234-.02 10.851 0-.25 1.252-.923 2.694-2.309 2.978-1.674.19-3.385-.056-5.059.134.018.853.018 1.706 0 2.561 1.866.019 3.713 0 5.579 0v3.055c-1.866.038-3.732-.096-5.579.075.018.949 0 1.917.018 2.865h6.485v3.15c-3.328-.02-6.638 0-9.966-.02-.02-4.913-.02-9.866-.02-14.798Z" fill="#000"/><mask id="c" width="16" height="16" x="66" y="37" maskUnits="userSpaceOnUse" style="mask-type:luminance"><path d="M66.301 37.152h15.671V53h-15.67V37.152Z" fill="#fff"/></mask><g mask="url(#c)"><path d="M72.006 41.286c-2.559 1.765-2.539 6.052.038 7.779 1.29.891 3.155.778 4.347-.21 1.886-1.574 2.117-4.553.77-6.545-.673-1.044-1.884-1.65-3.135-1.707-.693.114-1.443.228-2.02.683Zm.557-3.776c1.27-.17 2.617-.209 3.828.228 2.251.682 4.118 2.486 4.85 4.686.692 2.106.576 4.496-.443 6.489-.904 1.63-2.405 2.979-4.213 3.586-2.655.986-5.849.265-7.83-1.727-3.02-2.827-3.116-8.063-.25-11.023 1.077-1.158 2.52-1.916 4.058-2.239Z" fill="#000"/></g><path d="M5.502 41.058v8.462c1.115.018 2.27.095 3.328-.323 1.154-.379 2.136-1.27 2.54-2.41.5-1.536.21-3.415-1.077-4.496-1.328-1.138-3.137-1.29-4.79-1.233ZM0 37.871h6.329c2.213 0 4.56.474 6.33 1.859.884.683 1.538 1.593 1.981 2.58.711 1.916.731 4.041 0 5.938-1.02 2.315-3.328 3.947-5.848 4.326-2.194.342-4.406.114-6.599.19-.058-3.661 0-7.323-.039-10.985 0-.418-.076-.873-.442-1.139C.885 39.9.27 38.933 0 37.871Zm22.355 7.34c-.194.418-.404.816-.597 1.234 1.192.228 2.385.55 3.5 1.006-.326-.76-.71-1.48-1.057-2.22-.308-.626-.615-1.272-.942-1.897a27.823 27.823 0 0 0-.904 1.877Zm-7.369 7.665c2.578-4.97 5.098-9.96 7.638-14.95h1.25c1.405 2.96 2.886 5.863 4.329 8.804 1 2.049 2.039 4.098 3.038 6.166-1.557-.248-3.116-.703-4.444-1.556-.884-.55-1.808-1.1-2.807-1.385-1.174-.304-2.386-.589-3.618-.53-.365.833-.826 1.668-1.557 2.218-1.116.798-2.482 1.158-3.829 1.233Z" fill="#000"/></g><defs><clipPath id="a"><path d="M0 0h110v53H0z" fill="#fff"/></clipPath></defs></svg>