<svg xmlns="http://www.w3.org/2000/svg" fill="none" viewBox="0 0 138 59"><g fill="#000" fill-rule="evenodd" clip-path="url(#a)" clip-rule="evenodd"><path d="M68.113 52.285v3.432h-1.98v-3.815a3.977 3.977 0 0 0-.065-.985c-.108-.542-.416-.876-1.141-.876a2.65 2.65 0 0 0-.947.18v5.49h-1.99v-6.584c.946-.323 1.958-.608 3.132-.608 1.65 0 2.618.986 2.894 2.337.064.323.092.805.092 1.418l.005.011Zm48.742 0v3.432h-1.979v-3.815c.01-.372 0-.706-.06-.985-.108-.542-.427-.876-1.141-.876a2.61 2.61 0 0 0-.947.18l-.011 5.49h-1.985v-6.584c.947-.323 1.964-.608 3.138-.608 1.644 0 2.623.986 2.888 2.337.065.323.097.805.097 1.418v.011Zm-55.99 3.437H59.36s-.125-.213-.195-.482c-.146.115-.6.57-1.51.57-1.249 0-2.417-1.172-2.736-2.759-.595-2.994 1.547-4.504 3.608-4.504.822 0 1.806.213 2.331.367v6.808h.006ZM58.36 50.03c-.85 0-1.752 1.09-1.46 2.84.178 1.068.773 1.413 1.157 1.413.32 0 .584-.11.812-.318v-3.908c-.141-.01-.341-.032-.509-.032v.005Zm30.13 5.692h-1.504s-.125-.213-.19-.482c-.151.115-.61.57-1.509.57-1.255 0-2.423-1.172-2.742-2.759-.6-2.994 1.541-4.504 3.608-4.504.822 0 1.806.23 2.331.383v6.792h.006Zm-2.505-5.692c-.85 0-1.758 1.09-1.46 2.84.173 1.068.773 1.413 1.157 1.413.314 0 .584-.11.811-.318l-.01-3.908c-.136-.01-.33-.032-.503-.032l.005.005Zm37.729 5.692h-1.503s-.119-.213-.19-.482c-.151.115-.606.57-1.509.57-1.255 0-2.423-1.172-2.737-2.759-.6-2.994 1.542-4.504 3.608-4.504.817 0 1.807.213 2.331.367v6.808Zm-2.504-5.692c-.849 0-1.747 1.09-1.461 2.84.179 1.068.774 1.413 1.169 1.413.308 0 .579-.11.806-.318v-3.908c-.141-.01-.341-.032-.514-.032v.005Zm-21.334 2.265v3.426h-1.98v-3.804c.005-.378 0-.717-.049-1.001-.108-.515-.41-.876-1.157-.876-.303 0-.833.098-1.158.29.022.044.227.7.227 1.51v3.875h-1.996v-3.814c.006-.394-.01-.734-.07-1.013-.103-.525-.416-.848-1.12-.848-.308 0-.616.06-.94.186v5.49h-1.991v-6.59c.8-.296 1.985-.597 3.132-.597.74 0 1.341.192 1.806.537a5.23 5.23 0 0 1 2.315-.537c1.645 0 2.613.985 2.883 2.337a7.4 7.4 0 0 1 .103 1.423l-.005.006Zm3.294-3.748c-.822 0-1.807.153-2.331.3v10.154h1.985l-.016-3.416c.205.077.762.225 1.114.225 1.531 0 2.515-1.117 2.802-2.562.66-3.311-1.558-4.701-3.554-4.701Zm1.628 4.324c-.287 1.932-1.812 1.51-1.99 1.373v-4.181a5.1 5.1 0 0 1 .53-.033c.849 0 1.731 1.084 1.46 2.846v-.005Zm-53.805.591c-.184-.898-.844-1.467-1.564-1.872-.762-.427-1.25-.656-1.314-.958-.049-.268.081-.744.66-.755.535-.01.903.137 1.601.526V48.92c-.773-.296-1.233-.395-1.834-.395-1.325 0-2.428.745-2.136 2.206.162.826.633 1.28 1.238 1.686.666.427 1.412.81 1.51 1.308.075.383-.152.903-1.023.903-.53 0-1.109-.318-1.59-.58v1.543a4.88 4.88 0 0 0 1.78.328c1.747 0 3.013-.744 2.666-2.462l.006.005Zm-14.41-4.833c-1.634 0-2.575.334-3.37.607l.016 6.486h1.985l-.01-5.43c.33-.13.88-.18 1.184-.18.108 0 .205.011.297.027v-1.5h-.102v-.01Zm2.829 7.092H37.47l.01-7.066s.255-.076.963-.082c.806-.01.974.082.974.082l-.01 7.066h.005Zm15.091-1.559c-.06.011-.14.011-.232.011-.4 0-.595-.191-.595-.859v-6.918s-.179-.099-.996-.093c-.73.005-.984.093-.984.093h-.006v7.006c0 2.178 1.24 2.534 2.072 2.534.503 0 .85-.072 1.158-.165l-.417-1.609Zm55.071 1.559h-1.941l.01-6.945s.26-.143.969-.143c.8-.01.973.143.973.143l-.011 6.945Z"/><path d="M81.836 54.014c-.384.12-.914.28-1.401.28-1.374 0-1.888-1.385-1.888-3.137 0-1.647.4-3.158 1.812-3.158.417 0 .963.082 1.412.52l1.006-1.346c-.53-.536-1.255-.843-2.423-.843-2.185 0-3.965 1.44-3.965 4.827 0 3.388 1.628 4.833 4.003 4.833.654 0 1.715-.219 2.223-.421l-.779-1.555Zm-7.757-7.711c-.725.005-.979.093-.979.093v2.2c-.151-.017-.368-.066-.53-.066-2.028 0-4.132 1.314-3.473 4.597.325 1.61 1.483 2.775 2.873 2.775.497 0 1-.24 1.433-.574l.19.388h1.514V46.39s-.206-.098-1.028-.093v.006Zm-1.871 8.05c-.406 0-.974-.344-1.158-1.422-.184-1.111.076-2.233.768-2.753.433-.296.92-.214 1.288-.104v3.913a1.326 1.326 0 0 1-.893.366h-.005ZM43.955 52.98c.384 0 .93-.011 1.277-.033l.438-.022s.14-.63.13-1.313c-.038-2.398-1.174-3.043-2.591-3.082h-.022c-1.741.028-3.018 1.09-3.013 3.667v.033c.07 2.671 1.245 3.678 3.11 3.71.017 0 .017.006.017.006.443 0 1.314-.076 2.174-.514v-1.478c-.806.367-1.168.558-1.996.515-1.557-.083-1.406-1.495-1.406-1.495h1.877l.005.006Zm-.654-3.076h.021c.514-.044.936.564.969 1.456l-.011.416h-2.164s-.162-1.795 1.18-1.872h.005Zm-13.82-1.87c.291-.247.973-.34 1.627-.34 1.504 0 2.072.328 2.072.328l.438-1.51s-1.136-.597-3.43-.389c-2.147.197-2.812.772-2.812.772v8.877h2.099V51.81h3.034v-1.642H29.48v-2.14.005Zm103.656-.763c0 .575-.465 1.04-1.028 1.04-.562 0-1.027-.46-1.027-1.04 0-.58.454-1.04 1.027-1.04.574 0 1.028.471 1.028 1.04ZM138 50.215c0-.662-.254-1.11-.622-1.357-.373-.246-.828-.295-1.255-.295-.168 0-.33.01-.481.021-.839.066-1.585.263-1.926.405v4.735h1.52v-3.552c.297-.06.541-.088.719-.088.211 0 .336.044.39.088.054.043.086.11.092.273 0 .148-.038.35-.119.619-.109.366-.249.771-.39 1.15v1.515h1.05c.01-.038.779-2.041.908-2.621a3.93 3.93 0 0 0 .114-.876v-.017Zm-10.478 5.502h9.175v-1.352h-9.175v1.352Zm5.41-6.7s-.19-.054-.823-.054c-.481 0-.833.055-.833.055v4.706h1.656v-4.706Zm-4.636 3.19a22.39 22.39 0 0 1-.395-1.15 2.4 2.4 0 0 1-.114-.618c0-.164.038-.23.087-.273.059-.05.184-.088.395-.088.178 0 .416.033.708.088v3.552h1.531v-4.735c-.341-.142-1.092-.333-1.925-.404a6.68 6.68 0 0 0-.482-.022c-.427 0-.882.054-1.255.295-.373.252-.622.7-.622 1.358 0 .262.038.552.114.875.13.586.892 2.584.908 2.622h1.055V52.19l-.005.016ZM33.294 1.28c-1.758 4.91-2.672 7.936-3.17 10.219-.314 1.483-.438 2.572-.4 3.508.075 2.687 1.671 3.453 3.034 3.754 1.369.296 2.916.29 4.766.208 1.839-.087 3.91-.3 6.015-.558 2.986-.372 8.87-1.319 11.732-1.768-4.267.58-9.157 1.177-13.274 1.232-1.78.027-3.419-.05-4.868-.301-1.444-.263-2.737-.63-3.846-1.631-.763-.712-1.244-1.604-1.526-2.496-.28-.903-.389-1.828-.405-2.775-.027-2.386.546-4.898 1.179-7.088A45.6 45.6 0 0 1 33.397.99l-.114.296.01-.006Z"/><path d="M31.363 10.667c.01.941.119 1.871.405 2.774.282.893.763 1.79 1.526 2.496 1.109 1.002 2.401 1.368 3.846 1.631 1.45.252 3.088.329 4.868.301 4.116-.055 9.006-.657 13.274-1.231.292-.039.584-.082.866-.12a17.57 17.57 0 0 0-.238-.942c-.33-1.111-.823-2.206-1.358-3.054-2.337.317-4.766.624-7.184.941-5.306.728-10.099.832-11.727-.831-1.53-1.571-.454-6.787.628-10.607-.72-.57-1.634-1.144-2.694-1.478-.027.082-.065.17-.097.257a44.103 44.103 0 0 0-.93 2.775c-.634 2.19-1.207 4.701-1.18 7.088h-.005ZM13.62 48.896c1.515-3.842 4.063-9.934 6.784-13.95.973-1.43 1.947-2.655 3.023-3.575.6-.498 1.244-.936 2.077-1.171a5.083 5.083 0 0 1 1.44-.208c1.362.005 2.363.421 3.477 1.04 1.115.624 2.153 1.423 3.121 2.282 1.926 1.719 5.583 6.562 5.583 6.562s-3.64-5.062-5.837-7.46c-1.103-1.198-2.255-2.473-3.424-3.382-.59-.449-1.179-.848-1.812-1.16-.633-.296-1.325-.542-2.147-.542-.27 0-.563.027-.866.11-1.076.311-1.58.897-2.126 1.494-.908 1.072-1.747 2.638-2.645 4.356-2.477 4.784-5.17 11.724-6.648 15.61v-.006Z"/><path d="M35.717 40.653c.963-.049 2.337-.322 3.408-.782 0 0-3.657-4.844-5.583-6.563-.962-.853-2-1.658-3.12-2.282-1.115-.618-2.116-1.034-3.479-1.04a5.1 5.1 0 0 0-1.439.208c-.838.236-1.476.674-2.077 1.172-1.076.919-2.05 2.14-3.023 3.574-2.721 4.017-5.27 10.108-6.784 13.95.812.285 2.375.602 4.16.52.135-.344 5.788-15.067 9.585-15.675 2.932-.465 7.492 5.703 8.352 6.913v.005Zm8.049-20.813c6.248-1.598 11.008-2.206 12.506-2.463-1.985.24-9.434 1.385-16.152 2.731-6.718 1.352-10.028 2.742-8.492 7.099 1.439 4.06 7.427 11.209 8.227 12.15-.552-.733-3.51-4.756-4.527-7.197-3.554-7.624 2.098-10.706 8.438-12.326v.006Z"/><path d="M56.272 20.715s.363-1.691.027-3.344h-.021c-1.504.257-6.264.865-12.507 2.463-6.334 1.615-11.992 4.701-8.438 12.325 1.017 2.441 3.976 6.464 4.528 7.197l.092.11s1.806-1.117 2.883-2.906l.065-.104c.135.17-4.815-6.47-4.322-9.381.54-3.207 13.474-5.665 17.693-6.36ZM9.228 2.917l.087.11a145.424 145.424 0 0 0 5.322 6.36c1.444 1.62 2.862 3.102 4.23 4.24.693.564 1.363 1.052 2.083 1.424 1.806.941 3.418.941 5.106-.444 1.06-.892 1.801-2.041 2.5-3.344 1.027-1.948 1.887-4.28 2.688-6.556.465-1.341.903-2.66 1.325-3.853-.557 1.379-1.142 2.846-1.812 4.28-1.006 2.134-2.186 4.208-3.949 5.757-1.174 1.035-2.667 1.8-4.409 1.981a6.28 6.28 0 0 1-.454.022c-1.596-.022-2.97-.684-4.3-1.554-1.325-.887-2.624-2.047-3.916-3.355-1.445-1.467-2.986-3.257-4.404-4.964-.01-.017-.027-.027-.037-.044l-.05-.06h-.01Z"/><path d="M17.634 11.34c1.33.864 2.7 1.532 4.3 1.554.152 0 .303-.005.455-.022 1.742-.18 3.235-.947 4.408-1.981 1.764-1.55 2.948-3.623 3.95-5.758a59.204 59.204 0 0 0 1.811-4.28c.092-.24.114-.317.195-.542a3.826 3.826 0 0 0-.292-.07c-1.471-.324-2.872-.307-4.03-.034-.741 1.834-3.18 8.49-6.507 8.987-2.862.433-6.648-4.06-10.418-8.587-.953.197-2.24.82-3.03 1.39.054.06.027.033.081.099 1.64 2.025 3.397 4.099 5.16 5.894 1.294 1.308 2.592 2.468 3.917 3.355v-.005Zm.557 5.233c-.52-1.21-1.228-2.343-1.958-3.438a56.692 56.692 0 0 0-2.164-3.026 99.674 99.674 0 0 0-5.063-6.147A97.688 97.688 0 0 0 7.756 2.6c-.01-.011-.015-.022-.026-.028 1.812 2.014 4.814 5.523 6.978 10.219.61 1.324 2.201 5.16-.595 7.662-2.889 2.583-8.633 3.41-14.043 4.209 2.543-.285 5.085-.591 7.611-.969 1.818-.268 3.64-.564 5.426-.98 1.487-.35 3.142-.766 4.349-1.757.632-.52 1.103-1.253 1.19-2.085.075-.81-.168-1.57-.46-2.304l.005.006Z"/><path d="M5.193 5.834c2.786 3.246 3.938 4.308 5.993 8.484 1.596 3.245-.151 4.181-2.326 5.068-1.839.755-8.498 1.839-8.498 1.839-.346 1.034-.432 2.112-.28 3.437h.005c5.409-.8 11.153-1.626 14.042-4.21 2.796-2.5 1.206-6.342.595-7.661-2.17-4.696-5.171-8.21-6.978-10.219l-.027-.027c-.503.372-.936.892-1.542 1.658-.546.69-.93 1.423-.973 1.631h-.011Zm12.88 20.115c-.812-.827-1.948-1.199-3.057-1.385-1.076-.175-2.18-.192-3.273-.18-3.856.065-7.702.58-11.521 1.105H.195c3.294-.41 5.804-.586 7.74-.586 2.072 0 3.533.192 4.712.597.086.027.168.055.249.088l.13.049c.021.01.043.016.064.027 2.83 1.1 3.598 3.426 3.64 6.25-.01 2.732-.73 6.158-1.649 9.617-.67 2.512-1.46 5.019-2.18 7.137.968-2.573 1.985-5.134 2.905-7.723.973-2.758 1.92-5.522 2.602-8.374.292-1.237.546-2.501.568-3.776.016-1.007-.184-2.085-.904-2.835v-.011Z"/><path d="M16.736 31.907c-.043-2.824-.811-5.144-3.64-6.25-.022-.01-.043-.016-.065-.027l-.13-.05c-.081-.027-.162-.06-.249-.087-1.179-.405-2.64-.591-4.711-.596-1.942 0-4.452.175-7.74.59.33 2.086 1.178 3.449 1.535 3.936 2.673-.312 4.701-.433 6.205-.433 5.707-.027 5.858 1.642 5.56 6.185-.248 3.77-2.764 10.36-3.424 11.75 0 0 .482.471 1.093.855.79.498 1.64.837 1.731.87h.005c.725-2.118 1.51-4.625 2.18-7.137.92-3.46 1.634-6.88 1.645-9.611l.005.005Z"/></g><defs><clipPath id="a"><path d="M0 0h138v59H0z" fill="#fff"/></clipPath></defs></svg>