<svg width="112" height="35" viewBox="0 0 112 35" fill="none" xmlns="http://www.w3.org/2000/svg">
<g clip-path="url(#clip0_3096_55068)">
<path d="M50.9414 24.1331C53.8347 24.1331 56.2054 21.8293 56.2054 18.5779C56.2054 15.661 53.8534 13.3386 50.9974 13.3386C47.9921 13.3386 45.6214 15.661 45.6214 18.5779C45.6214 21.7178 48.1601 24.1331 50.9414 24.1331ZM43.6054 11.3134C45.6027 9.38118 48.0854 8.39648 50.9601 8.39648C53.6667 8.39648 56.2241 9.43692 58.1841 11.332C60.2374 13.32 61.3014 15.8839 61.3014 18.5965C61.3014 21.4577 60.2747 24.003 58.3707 25.9353C56.4107 27.9604 53.7414 29.0566 50.9227 29.0566C47.9361 29.0566 45.3787 27.9976 43.4001 25.9167C41.4961 23.9287 40.5254 21.4577 40.5254 18.5222C40.5441 15.7724 41.6267 13.2457 43.6054 11.3134ZM63.7841 28.5735H68.2267V8.39648H63.7841V28.5735ZM79.1467 24.5976C81.0881 24.5976 82.6934 23.0369 82.6934 20.9746C82.6934 18.838 81.0694 17.2216 78.9787 17.2216C76.8507 17.2216 75.1894 18.9123 75.1894 20.9189C75.1894 22.9998 76.8321 24.5976 79.1467 24.5976ZM82.6747 26.8271C81.3307 28.1091 79.9681 28.5735 78.1574 28.5735C76.3094 28.5735 74.7227 27.9976 73.3787 26.8271C71.6241 25.3036 70.7094 23.297 70.7094 20.956C70.7094 18.8194 71.5681 16.8872 73.1547 15.3823C74.5734 14.026 76.3094 13.32 78.2507 13.32C80.0987 13.32 81.5174 13.9331 82.5441 15.2151V13.5429H87.0427V28.4992H82.6934V26.8271H82.6747ZM89.6001 28.5364V13.3571H93.6321V15.4009C94.5654 13.8402 95.9281 13.0785 97.7574 13.0785C99.5867 13.0785 100.968 13.8774 101.957 15.5123C103.544 13.8402 104.757 13.0785 106.643 13.0785C110.059 13.0785 111.981 14.9921 111.981 18.5222V28.5178H107.632V20.3058C107.632 18.1877 107.184 17.2216 105.523 17.2216C103.824 17.2216 102.928 18.2621 102.928 20.3058V28.5178H98.5601V20.3058C98.5601 18.1877 98.1121 17.2216 96.4507 17.2216C94.7521 17.2216 93.856 18.2621 93.856 20.3058V28.5178H89.6001" fill="black"/>
<path d="M34.1787 17.3887C24.7334 17.3887 17.0801 25.0433 17.0801 34.4816C26.5254 34.4816 34.1787 26.8269 34.1787 17.3887Z" fill="black"/>
<path d="M0 17.3887C0 26.8269 7.65333 34.4816 17.0987 34.4816C17.0987 25.0433 9.44533 17.3887 0 17.3887Z" fill="black"/>
<path d="M16.8186 31.5266C16.8186 22.3113 24.0612 13.3933 33.1332 12.9846C32.4986 10.7736 31.4346 8.71134 29.9972 6.92773C22.4559 9.62172 16.8186 19.8775 16.8186 27.9966C16.8186 19.8775 11.1812 9.62172 3.63991 6.92773C2.20257 8.71134 1.11991 10.7736 0.503906 12.9846C9.55724 13.3933 16.8186 22.3113 16.8186 31.5266Z" fill="black"/>
<path d="M16.8186 24.1513C16.8186 17.7043 20.4212 8.22891 25.7226 3.06389C23.0532 1.41033 19.9732 0.537109 16.8186 0.537109C13.6639 0.537109 10.5839 1.41033 7.91455 3.06389C13.2159 8.22891 16.8186 17.6857 16.8186 24.1513Z" fill="black"/>
</g>
<defs>
<clipPath id="clip0_3096_55068">
<rect width="112" height="34" fill="white" transform="translate(0 0.5)"/>
</clipPath>
</defs>
</svg>
