<svg width="152" height="29" viewBox="0 0 152 29" fill="none" xmlns="http://www.w3.org/2000/svg">
<g clip-path="url(#clip0_3096_54985)">
<path d="M40.999 23.207V28.5002H37.6064V11.269H40.999V12.0934C42.0094 11.4505 43.1865 11.1037 44.3916 11.0938C48.244 11.0938 51.0768 14.0907 51.0768 17.6613C51.0768 21.2318 48.2704 24.2288 44.3916 24.2288C43.1813 24.2307 41.9987 23.8746 40.999 23.207ZM40.999 16.0899V19.1367C41.2666 19.6943 41.6825 20.1712 42.2032 20.5175C42.7238 20.8638 43.33 21.0668 43.9583 21.1052C44.5866 21.1436 45.2139 21.016 45.7745 20.7358C46.3351 20.4556 46.8084 20.0331 47.1449 19.5124C47.4814 18.9918 47.6686 18.3922 47.687 17.7765C47.7054 17.1607 47.5543 16.5515 47.2496 16.0125C46.9448 15.4735 46.4975 15.0246 45.9546 14.7128C45.4117 14.401 44.7931 14.2377 44.1635 14.2401C43.5127 14.2311 42.8721 14.3993 42.3133 14.726C41.7544 15.0527 41.2994 15.5249 40.999 16.0899Z" fill="black"/>
<path d="M52.9146 7.79498C52.9035 7.54369 52.9451 7.29283 53.0367 7.05784C53.1284 6.82285 53.2682 6.60868 53.4475 6.42851C53.6269 6.24834 53.842 6.10597 54.0797 6.01016C54.3173 5.91435 54.5725 5.86712 54.8295 5.87138C55.0901 5.86696 55.3489 5.91351 55.5908 6.00831C55.8327 6.10312 56.0528 6.24425 56.2382 6.42344C56.4236 6.60263 56.5706 6.81626 56.6705 7.05178C56.7703 7.28731 56.8211 7.53998 56.8198 7.79498C56.8144 8.30781 56.6022 8.79779 56.2295 9.15836C55.8568 9.51893 55.3536 9.72093 54.8295 9.72041C54.5739 9.71925 54.3211 9.66827 54.0859 9.57046C53.8506 9.47264 53.6376 9.32994 53.4594 9.15069C53.2811 8.97144 53.1411 8.75924 53.0476 8.52647C52.954 8.2937 52.9088 8.04503 52.9146 7.79498ZM53.12 11.2678H56.5654V24.0284H53.12V11.2678Z" fill="black"/>
<path d="M58.6047 17.6137C58.5978 16.7548 58.7665 15.9033 59.1007 15.1091C59.435 14.3149 59.9281 13.5942 60.5511 12.9892C61.1741 12.3842 61.9145 11.9071 62.7286 11.5861C63.5427 11.2651 64.4142 11.1066 65.2918 11.1199C66.4918 11.1205 67.6729 11.412 68.7296 11.9683V11.2693H72.0996V23.3051C72.0996 26.6249 69.1631 28.4249 65.4897 28.4249C63.0904 28.4249 60.7929 27.7259 59.287 26.5806L60.6911 24.2088C62.1223 25.106 63.7901 25.5746 65.4897 25.557C67.8626 25.557 68.6034 24.6349 68.7051 23.1355C67.683 23.7752 66.4976 24.121 65.2843 24.1332C61.3791 24.1295 58.6047 21.2838 58.6047 17.6137ZM68.7296 19.0356V16.1899C68.4446 15.5961 67.9937 15.0933 67.4291 14.7396C66.8645 14.3858 66.2091 14.1955 65.5387 14.1907C65.0758 14.1863 64.6165 14.2715 64.1874 14.4414C63.7582 14.6112 63.3675 14.8624 63.0379 15.1805C62.7083 15.4986 62.4461 15.8774 62.2666 16.2949C62.087 16.7125 61.9936 17.1606 61.9916 17.6137C61.9916 19.5852 63.522 20.9592 65.5142 20.9592C66.1827 20.9762 66.8419 20.8037 67.4125 20.4624C67.983 20.1211 68.4404 19.6256 68.7296 19.0356Z" fill="black"/>
<path d="M74.1445 17.6137C74.1376 16.7548 74.3062 15.9033 74.6405 15.1091C74.9748 14.3149 75.4679 13.5942 76.0909 12.9892C76.7139 12.3842 77.4543 11.9071 78.2684 11.5861C79.0825 11.2651 79.954 11.1066 80.8316 11.1199C82.0341 11.1195 83.2179 11.411 84.277 11.9683V11.2693H87.645V23.3051C87.645 26.6249 84.7105 28.4249 81.0371 28.4249C78.6378 28.4249 76.3402 27.7259 74.8343 26.5806L76.2385 24.2088C77.6695 25.1063 79.3374 25.5749 81.0371 25.557C83.41 25.557 84.1507 24.6349 84.2525 23.1355C83.2302 23.775 82.0449 24.1207 80.8316 24.1332C76.9264 24.1295 74.1445 21.2838 74.1445 17.6137ZM84.277 19.0356V16.1899C83.9917 15.5962 83.5408 15.0936 82.9762 14.7398C82.4117 14.3861 81.7564 14.1957 81.0861 14.1907C80.6231 14.1863 80.1639 14.2715 79.7347 14.4414C79.3055 14.6112 78.9149 14.8624 78.5852 15.1805C78.2556 15.4986 77.9935 15.8774 77.8139 16.2949C77.6344 16.7125 77.5409 17.1606 77.5389 17.6137C77.5389 19.5852 79.0694 20.9592 81.0616 20.9592C81.73 20.976 82.3891 20.8034 82.9596 20.4621C83.5301 20.1208 83.9876 19.6254 84.277 19.0356Z" fill="black"/>
<path d="M92.5945 11.2676L96.0154 19.7827L99.5361 11.2676H103.117L95.6064 28.4988H92.4173L94.3021 23.9046L88.8193 11.2676H92.5945Z" fill="black"/>
<path d="M102.467 11.2676H106.116L109.44 19.8841L112.733 11.2676H116.314L111.082 24.0282H107.65L102.467 11.2676Z" fill="black"/>
<path d="M116.555 17.5617C116.555 13.9671 119.183 10.9941 123.292 10.9941C127.095 10.9941 129.984 13.7919 130.054 17.4676C130.08 17.7837 130.08 18.1013 130.054 18.4174H119.771C119.873 20.2156 121.633 21.3886 123.522 21.3886C125.078 21.3886 125.996 20.9644 127.069 20.0976L128.933 22.0211C127.425 23.5685 125.917 24.2933 123.522 24.2933C119.107 24.2804 116.555 21.0584 116.555 17.5617ZM119.948 16.0383H126.533C126.202 14.8413 125.026 13.7919 123.241 13.7919C121.173 13.7919 120.306 14.8155 119.948 16.0383Z" fill="black"/>
<path d="M130.767 22.656L132.435 20.0076C133.932 20.9841 135.687 21.5133 137.486 21.531C139.197 21.531 140.064 21.1068 140.064 20.3838C140.064 19.908 139.655 19.5594 138.788 19.3842L135.207 18.6355C132.58 18.0822 131.379 16.8631 131.379 14.8657C131.379 12.743 133.217 10.9688 137.02 10.9688C139.316 10.9688 141.355 11.6198 142.761 12.4682L141.204 15.0151C140.057 14.4157 138.526 13.7665 136.917 13.7665C135.463 13.7665 134.621 14.117 134.621 14.7643C134.621 15.1903 134.928 15.4651 135.769 15.6145L138.784 16.1678C142.051 16.7912 143.308 18.215 143.308 20.1386C143.308 22.905 140.481 24.3583 137.386 24.3583C135.061 24.4023 132.769 23.8129 130.767 22.656Z" fill="black"/>
<path d="M143.986 11.2691H145.926V7.74832L149.318 5.60156V11.2691H151.309V14.1664H149.32V24.0315H145.928V14.1664H143.984V11.2691H143.986Z" fill="black"/>
<path d="M29.1119 13.3212C29.0553 12.5112 28.9196 11.7083 28.7067 10.9236C27.736 7.41947 25.6911 4.66226 22.5737 2.6944C20.6101 1.4448 18.3547 0.703014 16.0185 0.538426C15.0369 0.468274 14.0507 0.494223 13.0745 0.615886C12.046 0.749091 11.035 0.989603 10.0588 1.33331C7.4594 2.25084 5.19071 3.89183 3.53182 6.05444C1.87293 8.21705 0.896189 10.807 0.721738 13.5056C0.689697 14.0017 0.689697 14.5015 0.689697 14.9995V27.1054C0.689697 27.4199 0.817379 27.7216 1.04465 27.944C1.27193 28.1664 1.58018 28.2913 1.9016 28.2913H6.68135C6.98047 28.2895 7.26852 28.1803 7.49086 27.9845C7.7132 27.7887 7.85437 27.5199 7.8876 27.229C7.91905 27.1153 7.93552 26.9982 7.9366 26.8804V26.6001C7.93378 26.5787 7.93378 26.557 7.9366 26.5355V26.5042C7.96921 26.5126 7.9999 26.527 8.02707 26.5466C9.81492 27.514 11.795 28.0928 13.8321 28.2433C14.6481 28.3024 15.4677 28.2944 16.2823 28.2194C18.2 28.0466 20.0612 27.4914 21.7513 26.588C23.4414 25.6847 24.9246 24.4523 26.1095 22.9668C27.7984 20.8878 28.8319 18.3724 29.0836 15.728C29.1689 14.9283 29.1784 14.1226 29.1119 13.3212ZM17.4641 21.0561C17.4557 21.0988 17.4321 21.1371 17.3977 21.1644C17.3632 21.1918 17.32 21.2063 17.2756 21.2055H12.5637C12.5193 21.2063 12.4761 21.1918 12.4416 21.1644C12.4072 21.1371 12.3836 21.0988 12.3752 21.0561V21.0266V20.8551C12.3742 20.6435 12.3982 20.4324 12.4468 20.2262C12.477 20.1561 12.4958 20.0731 12.526 19.9957C12.5562 19.9182 12.5863 19.8463 12.6165 19.7707C12.6466 19.6951 12.6956 19.6268 12.7371 19.5623L12.8049 19.4627C12.8492 19.3982 12.8977 19.3366 12.9501 19.2782C13.0047 19.2119 13.0594 19.1547 13.114 19.0938C13.3976 18.8209 13.7422 18.6164 14.1205 18.4963C13.7946 18.3226 13.537 18.0478 13.3883 17.7151C13.2396 17.3825 13.2082 17.0108 13.2991 16.6588C13.39 16.3067 13.5981 15.9943 13.8904 15.7707C14.1828 15.5471 14.5429 15.425 14.914 15.4237C15.357 15.427 15.7812 15.5997 16.0957 15.905C16.2778 16.0844 16.4149 16.3026 16.4962 16.5425C16.5775 16.7825 16.6008 17.0376 16.5643 17.2879C16.5278 17.5382 16.4324 17.7767 16.2857 17.9848C16.139 18.1929 15.9449 18.3648 15.7188 18.487C16.2277 18.6512 16.6706 18.9687 16.9841 19.394C17.2976 19.8193 17.4656 20.3307 17.4641 20.8551C17.4641 20.9215 17.4641 20.9934 17.4641 21.0561ZM25.5874 11.0121H4.25944C4.21946 11.0119 4.18012 11.0023 4.14465 10.9843C4.10917 10.9662 4.07859 10.9402 4.0554 10.9083C4.03222 10.8765 4.0171 10.8397 4.01128 10.801C4.00547 10.7623 4.00913 10.7228 4.02196 10.6857C4.81777 8.47883 6.29354 6.56782 8.24585 5.2161C10.1982 3.86437 12.5309 3.13848 14.9225 3.13848C17.3141 3.13848 19.6468 3.86437 21.5991 5.2161C23.5514 6.56782 25.0272 8.47883 25.823 10.6857C25.8358 10.7226 25.8395 10.7619 25.8337 10.8005C25.828 10.8391 25.8131 10.8758 25.7901 10.9076C25.7671 10.9394 25.7368 10.9655 25.7016 10.9837C25.6663 11.0018 25.6272 11.0116 25.5874 11.0121Z" fill="black"/>
</g>
<defs>
<clipPath id="clip0_3096_54985">
<rect width="150.621" height="28" fill="white" transform="translate(0.689697 0.5)"/>
</clipPath>
</defs>
</svg>
