<svg width="96" height="112" viewBox="0 0 96 112" fill="none" xmlns="http://www.w3.org/2000/svg">
<g clip-path="url(#clip0_2970_499)">
<rect x="4.5" y="12" width="88" height="88" rx="44" fill="white"/>
<path fill-rule="evenodd" clip-rule="evenodd" d="M94.559 43.5928C95.0082 43.6421 95.3332 44.0536 95.2847 44.5117C93.6341 60.1318 87.3571 74.8138 78.4612 85.9148C69.5706 97.0091 58.0097 104.589 45.77 105.863L45.692 105.083L45.77 105.863C32.4033 107.254 24.9089 102.634 20.7821 97.5361C18.7364 95.0088 17.5446 92.3967 16.8637 90.4185C16.5228 89.4283 16.3087 88.5932 16.1791 88.0012C16.1143 87.7051 16.0706 87.4694 16.0428 87.3051C16.0288 87.223 16.0189 87.1586 16.0122 87.1134C16.0089 87.0908 16.0064 87.073 16.0046 87.0602L16.0025 87.0447L16.0019 87.0397L16.0016 87.038C16.0016 87.0373 16.0015 87.0367 16.8128 86.9297L16.0015 87.0367C15.9435 86.5797 16.2598 86.1613 16.7079 86.1022C17.1556 86.0431 17.5656 86.3651 17.6241 86.8216C17.6241 86.8217 17.6241 86.8217 17.6241 86.8218L17.6241 86.8222L17.6242 86.8226L17.6251 86.8293C17.6261 86.8365 17.6278 86.8485 17.6302 86.8653C17.6352 86.8987 17.6432 86.951 17.6551 87.0208C17.6787 87.1603 17.7174 87.3695 17.7761 87.6378C17.8935 88.1744 18.0908 88.9455 18.4075 89.8658C19.0418 91.7085 20.1501 94.1341 22.044 96.4737C25.7964 101.11 32.739 105.542 45.6039 104.203C57.2942 102.986 68.4919 95.7183 77.1943 84.8587C85.8913 74.0059 92.0416 59.6279 93.6579 44.3329C93.7063 43.8748 94.1098 43.5434 94.559 43.5928Z" fill="#383838"/>
</g>
<path d="M15.5496 32.6494H13.2397V40.366H15.5496V32.6494Z" fill="white"/>
<path d="M16.9487 41.8193V81.4827H12.884C5.93959 81.4827 0.30957 75.7408 0.30957 68.6584V54.588C0.30957 52.598 0.754081 50.7123 1.54766 49.031C2.81028 46.3583 4.95512 44.2 7.59628 42.9512C9.20388 42.1892 10.9956 41.765 12.884 41.765H15.8947L16.9487 41.8193Z" fill="#0D6F82"/>
<path d="M68.9672 85.2432H74.6531V86.122C74.6531 86.4433 74.3968 86.7047 74.0818 86.7047H69.5371C69.2222 86.7047 68.9658 86.4433 68.9658 86.122V85.2432H68.9672Z" fill="#0D6F82"/>
<path d="M45.77 105.863C58.0097 104.589 69.5706 97.0091 78.4612 85.9148C79.7318 84.3293 80.9489 82.6707 82.1068 80.9468H80.1128C79.1762 82.2955 78.2024 83.6008 77.1943 84.8588C68.4919 95.7183 57.2942 102.986 45.6039 104.203C32.739 105.542 25.7964 101.11 22.044 96.4738C20.1501 94.1341 19.0418 91.7085 18.4075 89.8658C18.0908 88.9456 17.8935 88.1745 17.7761 87.6378C17.7174 87.3696 17.6787 87.1603 17.6551 87.0208C17.6432 86.9511 17.6352 86.8988 17.6302 86.8653L17.6251 86.8293L17.6242 86.8226L17.6241 86.8216C17.5656 86.3651 17.1556 86.0431 16.7079 86.1022C16.2598 86.1613 15.9435 86.5797 16.0015 87.0367L16.8092 86.9302C16.0015 87.0367 16.0016 87.038 16.0016 87.038L16.0019 87.0398L16.0025 87.0447L16.0046 87.0602C16.0064 87.0731 16.0089 87.0909 16.0122 87.1134C16.0189 87.1586 16.0288 87.223 16.0428 87.3052C16.0706 87.4695 16.1143 87.7051 16.1791 88.0013C16.3087 88.5932 16.5228 89.4284 16.8637 90.4186C17.5446 92.3967 18.7364 95.0088 20.7821 97.5361C24.9089 102.634 32.4033 107.254 45.77 105.863Z" fill="#383838"/>
<path d="M20.8935 39.8016V83.5063H15.3317C11.0707 83.5063 7.37279 81.0532 5.51975 77.457C4.71118 75.8884 4.25439 74.1028 4.25439 72.2088V51.0379C4.25439 50.4608 4.29666 49.8948 4.37984 49.3413C4.43847 48.9325 4.52028 48.532 4.62255 48.1398C5.80473 43.5827 9.70852 40.1562 14.4522 39.7766C14.7427 39.7529 15.0358 39.7404 15.3317 39.7404H19.8395L20.8935 39.8016Z" fill="#50B8C4"/>
<path d="M17.3058 83.096C17.3263 83.1864 14.5665 83.0904 14.3184 83.0543C13.3175 82.9083 12.3371 82.6301 11.4059 82.2269C9.58009 81.437 7.88113 80.1395 6.73031 78.4805C6.32807 77.8992 6.02537 77.2331 5.74584 76.5851C5.59722 76.2402 4.67138 73.7329 5.40223 73.7496C5.56313 73.7538 5.70085 73.8775 5.7813 74.0194C5.86174 74.1612 5.90265 74.3225 5.96673 74.4741C6.21762 75.0637 6.80803 75.4392 7.0971 76.0108C7.35617 76.5225 7.34799 77.1386 7.58797 77.66C7.85932 78.2497 8.42245 78.6516 9.01558 78.8949C9.60872 79.1383 10.2428 79.2509 10.8577 79.4303C11.7876 79.7001 12.6726 80.127 13.4689 80.6847C14.2652 81.2423 15.0587 81.7735 15.851 82.3367C16.0187 82.4549 16.1878 82.5787 16.3814 82.6413C16.5545 82.6969 16.74 82.6997 16.9145 82.7497C17.089 82.7998 17.2636 82.9152 17.3058 83.096Z" fill="#2B9BA7"/>
<path d="M14.6431 83.4993H18.9818V84.1793C18.9818 84.4115 18.7964 84.6007 18.5687 84.6007H15.0562C14.8285 84.6007 14.6431 84.4115 14.6431 84.1793V83.4993Z" fill="#0D6F82"/>
<path d="M15.1899 84.6006H18.4338V86.6949C18.4338 87.0662 18.1379 87.3665 17.7752 87.3665H15.8485C15.4845 87.3665 15.1899 87.0648 15.1899 86.6949V84.6006Z" fill="#2B9BA7"/>
<path d="M76.1656 85.0358L75.6106 85.2889C75.4838 85.3459 75.3529 85.4016 75.2193 85.4502C74.8811 85.332 74.5593 85.1957 74.2539 85.0358H76.1656Z" fill="#0D6F82"/>
<path d="M73.3063 88.1967V88.3845L73.215 89.8738C73.1618 90.7346 73.0581 91.5857 72.9041 92.4215C72.0941 96.8214 69.9098 100.818 66.6087 103.868C66.3946 104.065 66.1778 104.258 65.9569 104.445C65.7046 104.659 65.4497 104.865 65.1892 105.064C62.0667 107.468 58.3634 108.88 54.4692 109.155C53.9987 109.188 53.5256 109.205 53.0511 109.205C53.0484 109.204 53.0456 109.204 53.0443 109.205C52.7975 109.205 52.5493 109.201 52.3011 109.191L51.6494 109.167H51.6466L51.0317 109.144H51.0235C50.4549 109.123 49.885 109.101 49.315 109.08C47.8506 109.026 46.3861 108.971 44.9231 108.917L39.1485 108.703C38.9481 108.696 38.7586 108.649 38.5868 108.569C38.0468 108.322 37.68 107.759 37.7032 107.119C37.7345 106.274 38.4259 105.617 39.2576 105.645L48.7164 105.995L52.4102 106.133C56.9221 106.301 61.2486 104.691 64.5947 101.601C66.0796 100.23 67.2986 98.6334 68.2203 96.8812C69.1339 95.1429 69.7543 93.2531 70.0516 91.2728C70.132 90.7485 70.1879 90.2173 70.2206 89.6819L70.3038 88.3288L70.312 88.194C70.3638 87.3498 71.0769 86.7102 71.9032 86.763C72.5618 86.8061 73.095 87.2747 73.2572 87.8894C73.2831 87.9881 73.3009 88.091 73.3063 88.1967Z" fill="#E4E7EC"/>
<path d="M73.306 87.8826V88.3846L73.2147 89.874C73.1615 90.7348 73.0579 91.5859 72.9038 92.4216L70.0513 91.273C70.1317 90.7487 70.1876 90.2175 70.2203 89.6821L70.3035 88.329L73.2569 87.8896L73.306 87.8826Z" fill="#B7BBC3"/>
<path d="M75.1755 85.4348C75.1891 85.4404 75.2041 85.4446 75.2177 85.4501C75.2041 85.4557 75.1905 85.4613 75.1755 85.4654C75.0677 85.5058 74.9573 85.5433 74.8455 85.5795C72.7566 86.2386 70.0172 86.0954 68.0033 85.1359C67.8819 85.0788 67.7633 85.019 67.6474 84.9551C67.4061 84.823 67.177 84.6756 66.9629 84.517C66.2525 83.9886 65.7044 83.3002 65.2721 82.5243C64.6286 81.3673 64.244 80.017 63.9618 78.707C63.7054 77.5166 63.505 76.3179 63.3441 75.1122C62.7782 70.8068 62.7564 66.4222 62.7387 62.0681C62.7196 57.7558 62.7073 53.4129 63.3987 49.1464C63.4205 49.0073 63.4437 48.8655 63.4682 48.7237C63.8459 46.4569 64.3858 43.7911 65.5926 41.6815C66.1721 40.6678 66.9057 39.7833 67.8492 39.1339C67.9228 39.0824 67.9978 39.0338 68.0742 38.9865C68.216 38.8975 68.3646 38.8154 68.516 38.7376C70.5122 37.7238 73.3579 37.6 75.4345 38.5262C75.1209 38.6555 74.8237 38.8043 74.5469 38.974C74.4637 39.0254 74.3819 39.0783 74.3028 39.1339C73.786 39.4885 73.3333 39.9126 72.9338 40.3924C72.8725 40.4647 72.8125 40.5398 72.7552 40.6149C72.7116 40.6705 72.6693 40.7262 72.6284 40.7832C72.6284 40.7832 72.627 40.7832 72.627 40.7846C72.5943 40.8277 72.5629 40.8736 72.5316 40.9181C72.4798 40.9904 72.4293 41.0641 72.3802 41.1378C72.3052 41.249 72.2343 41.3631 72.1648 41.4785C72.0952 41.5939 72.0271 41.7107 71.9616 41.8303C71.918 41.9082 71.8757 41.9888 71.8334 42.0695C71.7912 42.1502 71.7503 42.2322 71.7107 42.3143C71.6821 42.3713 71.6548 42.4297 71.6276 42.4881C71.573 42.6007 71.5226 42.7148 71.4721 42.8288C71.438 42.9081 71.4039 42.9873 71.3712 43.068C71.3453 43.1306 71.3194 43.1931 71.2949 43.2557C71.2703 43.3169 71.2471 43.3781 71.224 43.4393C71.1912 43.5255 71.1585 43.6117 71.1271 43.6993C71.0685 43.8592 71.0126 44.0206 70.9608 44.1833C70.939 44.2486 70.9172 44.3126 70.8967 44.3779C70.7835 44.7353 70.6813 45.0969 70.5872 45.4585C70.5395 45.6392 70.4958 45.8186 70.4536 45.9994C70.3895 46.2706 70.3295 46.5418 70.2736 46.8102C70.2545 46.8992 70.2367 46.9895 70.219 47.0785C70.1822 47.2565 70.1481 47.4345 70.1154 47.6098C70.099 47.6974 70.0827 47.785 70.0677 47.8726C70.0513 47.9602 70.0363 48.0478 70.0213 48.134C70.005 48.2203 69.99 48.3065 69.9763 48.3913C69.9327 48.6472 69.8904 48.9003 69.8509 49.1464C69.7841 49.5539 69.7254 49.9627 69.6709 50.3716C69.6586 50.4717 69.6463 50.5718 69.6341 50.6719C69.6095 50.8666 69.5863 51.0599 69.5645 51.2546C69.5209 51.644 69.4827 52.0334 69.4473 52.4241C69.4309 52.6188 69.4145 52.8135 69.3995 53.0096C69.3696 53.399 69.3423 53.7897 69.3205 54.1819C69.3123 54.3154 69.3055 54.4489 69.2986 54.5824C69.2946 54.6436 69.2918 54.7061 69.2891 54.7687C69.27 55.1511 69.255 55.535 69.2427 55.9188C69.2209 56.5571 69.2059 57.1968 69.1977 57.8364C69.1964 57.9546 69.195 58.0742 69.1937 58.1938C69.1787 59.4857 69.1841 60.7776 69.1896 62.0681C69.1923 62.5382 69.1936 63.0082 69.1964 63.4796C69.1991 63.8801 69.2018 64.282 69.2059 64.6839C69.2059 64.8577 69.2087 65.0329 69.2114 65.2068C69.2127 65.382 69.2155 65.5558 69.2182 65.731C69.2223 66.0272 69.2264 66.3248 69.2332 66.621C69.2468 67.3706 69.2673 68.1201 69.2973 68.8697C69.3041 69.0435 69.3109 69.2173 69.3191 69.3912C69.3341 69.7402 69.3518 70.0893 69.3709 70.4369C69.3805 70.6108 69.3914 70.7832 69.4023 70.957C69.4105 71.0933 69.42 71.2282 69.4295 71.3645C69.4555 71.7497 69.4841 72.1349 69.5182 72.5187C69.5264 72.6216 69.5345 72.7231 69.5454 72.8246C69.5577 72.9734 69.5727 73.1236 69.5877 73.2724C69.5904 73.3127 69.5945 73.3531 69.5986 73.3934C69.615 73.5561 69.6313 73.7202 69.6504 73.8843C69.6532 73.9205 69.6573 73.9566 69.6613 73.9928C69.6832 74.1874 69.7063 74.3835 69.7309 74.5782C69.7486 74.7228 69.7663 74.8675 69.7854 75.0121C69.8113 75.2137 69.8372 75.4154 69.8659 75.6156C70.0131 76.6516 70.1931 77.6821 70.414 78.707C70.4345 78.8043 70.4563 78.9031 70.4795 79.0018C70.4972 79.0797 70.5149 79.1576 70.534 79.2354C70.5763 79.4162 70.6213 79.5984 70.6704 79.7792C70.684 79.8334 70.699 79.8876 70.714 79.9419C70.7508 80.0795 70.7903 80.2158 70.8326 80.3521C70.8517 80.4175 70.8722 80.4828 70.8926 80.5482C70.9499 80.729 71.0112 80.9097 71.0767 81.0877C71.1081 81.174 71.1394 81.2588 71.1735 81.3436C71.2049 81.4243 71.2376 81.5049 71.2703 81.5842C71.288 81.6259 71.3058 81.669 71.3249 81.7094C71.3562 81.7858 71.3903 81.8623 71.4258 81.9374C71.4626 82.0167 71.4994 82.0946 71.5389 82.1724C71.5771 82.2517 71.618 82.3296 71.6603 82.4074C71.708 82.4978 71.7585 82.5868 71.8103 82.6758C71.828 82.7078 71.8471 82.7398 71.8675 82.7718C71.8948 82.8177 71.9221 82.8622 71.9507 82.9067C71.9657 82.9303 71.9821 82.9554 71.9984 82.979C72.0448 83.0513 72.0925 83.1236 72.143 83.1945C72.188 83.2571 72.233 83.3197 72.2793 83.3809C72.3257 83.4421 72.372 83.5019 72.4211 83.5603C72.4661 83.6173 72.5138 83.6729 72.5629 83.7272C72.5697 83.7355 72.5779 83.7452 72.5861 83.7536C72.6175 83.7897 72.6502 83.8259 72.6829 83.8607C72.7116 83.8913 72.7388 83.9205 72.7688 83.9497C72.7893 83.9719 72.8125 83.9955 72.8356 84.0164C72.8506 84.0303 72.8643 84.0456 72.8779 84.0595C72.8929 84.0748 72.9079 84.0887 72.9215 84.1012C72.9434 84.1221 72.9652 84.143 72.987 84.161C73.017 84.1902 73.047 84.218 73.077 84.2431C73.1274 84.2876 73.1793 84.3321 73.2311 84.3738C73.2897 84.4225 73.3511 84.4711 73.4138 84.517C73.516 84.5935 73.6224 84.6672 73.7328 84.7354C73.7492 84.7451 73.7642 84.7548 73.7806 84.766C73.9306 84.8633 74.0887 84.9523 74.2523 85.0371C74.3028 85.0635 74.3519 85.0886 74.4037 85.1122C74.5319 85.1762 74.6628 85.2346 74.7978 85.2902C74.8673 85.3194 74.9382 85.3472 75.0105 85.3751H75.0132C75.0664 85.3959 75.1209 85.4168 75.1755 85.4348Z" fill="#50B8C4"/>
<path d="M63.3984 49.1467C62.7071 53.4131 62.7194 57.756 62.7385 62.067C62.7562 66.4211 62.7794 70.8057 63.3453 75.1125C63.5048 76.3168 63.7066 77.5169 63.9616 78.7073C64.2438 80.0172 64.6283 81.3675 65.2719 82.5245C65.7042 83.3005 66.251 83.9889 66.9627 84.5173C67.1768 84.6758 67.4059 84.8232 67.6472 84.9553C67.7631 85.0193 67.8817 85.0791 68.0017 85.1361C67.969 85.1361 67.9363 85.1361 67.9035 85.1361C66.0096 85.1361 64.2016 84.6856 62.5408 83.8665C62.5367 83.8665 62.5312 83.8623 62.5258 83.8595C62.3131 83.7538 62.1045 83.6426 61.8972 83.5258C61.8931 83.5258 61.889 83.5216 61.8836 83.5188C58.5102 81.4037 55.8922 74.6369 55.2295 66.1624C55.1218 64.7926 55.0659 63.377 55.0659 61.9307C55.0659 60.4845 55.1218 59.0674 55.2309 57.6949C55.9018 49.1161 58.5756 42.2895 62.0104 40.2675C62.1535 40.1882 62.2967 40.1131 62.4426 40.0408C64.1293 39.1884 65.9714 38.7211 67.9022 38.7211C68.1081 38.7211 68.3112 38.7267 68.5144 38.7378C68.3631 38.8157 68.2144 38.8977 68.0713 38.9867C67.9949 39.0354 67.9213 39.0827 67.8476 39.1341C66.9041 39.785 66.1705 40.6694 65.5896 41.6832C64.3829 43.7927 63.8443 46.4586 63.4653 48.7253C63.4421 48.8685 63.4175 49.0104 63.3957 49.1481L63.3984 49.1467Z" fill="#383838"/>
<path d="M73.6796 33.3293H73.3851C72.5547 33.3293 71.8675 32.6702 71.8198 31.8247C71.0426 18.0449 59.6639 7.11322 45.7395 7.11322C31.8152 7.11322 20.6888 17.8071 19.6907 31.3713C19.6089 32.4769 18.7035 33.3293 17.6181 33.3293H13.8452C13.8452 16.2232 27.0333 2.20847 43.7624 0.969421C60.4929 2.20847 73.681 16.2232 73.681 33.3293H73.6796Z" fill="black"/>
<path d="M43.7609 0.969508C27.0318 2.20856 13.8437 16.2233 13.8437 33.3294H12.9629C12.0602 33.3294 11.3498 32.5548 11.3962 31.6356C12.2538 14.8897 25.7637 1.49934 42.516 0.901367C42.9333 0.916664 43.3478 0.938914 43.7609 0.969508Z" fill="#868C98"/>
<path d="M76.3044 32.5923H73.9946V39.6928H76.3044V32.5923Z" fill="white"/>
<path d="M69.4365 86.7046H74.183V89.1424C74.183 89.5456 73.8612 89.8738 73.4658 89.8738H70.1537C69.7583 89.8738 69.4365 89.5456 69.4365 89.1424V86.7046Z" fill="#2B9BA7"/>
<path d="M26.6368 82.7176C23.3629 83.8899 19.0773 83.9344 16.1389 81.854C14.3323 80.576 13.1364 78.5791 12.2474 76.5279C10.2308 71.8762 9.50537 66.6795 9.50537 61.6231C9.50537 57.6028 9.97715 53.5325 11.1511 49.6846C12.1452 46.4305 13.72 42.7551 16.7484 40.9834C19.6446 39.2883 23.5538 39.4899 26.6286 40.5259C26.1541 40.366 25.6673 40.2826 25.1723 40.2826C24.117 40.2826 23.1011 40.6594 22.1507 41.3575C18.3165 44.1666 15.5499 52.1794 15.5499 61.6231C15.5499 71.0669 18.3165 79.0797 22.1507 81.8888C23.1011 82.5868 24.117 82.9637 25.1723 82.9637C25.67 82.9637 26.1595 82.8803 26.6368 82.7176Z" fill="#383838"/>
<path d="M34.7933 61.6231C34.7933 72.1196 31.3763 80.8471 26.8753 82.6299C26.7962 82.6605 26.7171 82.6897 26.6367 82.7175C26.1594 82.8802 25.6699 82.9637 25.1722 82.9637C24.1169 82.9637 23.101 82.5868 22.1507 81.8887C21.2044 81.1962 20.3249 80.1866 19.534 78.917C19.5327 78.917 19.5327 78.9156 19.5313 78.9142C17.1192 75.0371 15.5498 68.7362 15.5498 61.6231C15.5498 54.51 17.1192 48.2091 19.5313 44.332C19.5327 44.3307 19.5327 44.3293 19.534 44.3293C20.3249 43.0596 21.2044 42.05 22.1507 41.3575C23.101 40.6594 24.1169 40.2825 25.1722 40.2825C25.6672 40.2825 26.154 40.366 26.6285 40.5259C26.6312 40.5273 26.6339 40.5273 26.6367 40.5287C26.7171 40.5579 26.7962 40.5871 26.8753 40.6163C26.8766 40.6177 26.878 40.6177 26.8794 40.6177C31.379 42.4046 34.7933 51.1294 34.7933 61.6231Z" fill="#383838"/>
<path d="M15.5498 61.6233C15.5498 64.5005 15.8007 67.386 16.3598 70.209C16.6052 71.4453 16.9106 72.6704 17.291 73.8719C17.6756 75.0873 18.1364 75.9481 18.8223 76.9828C19.0691 77.3555 19.1264 77.8366 19.3922 78.1954C19.5081 78.3525 19.6609 78.4791 19.7768 78.6362C19.8927 78.7934 19.9704 79.0006 19.9063 79.1869C18.6259 78.5709 18.1896 77.1177 17.5856 75.9162C16.927 74.6076 16.4157 73.2253 16.0052 71.8166C15.0467 68.5194 14.6431 65.0581 14.6431 61.6247C14.6431 59.6764 14.7781 57.7267 15.063 55.7993C15.3221 54.0583 15.7025 52.3325 16.2411 50.6582C16.7088 49.2036 17.2951 47.781 18.0533 46.4585C18.2032 46.1971 18.36 45.9398 18.525 45.6867C18.6041 45.5643 18.6873 45.4447 18.7691 45.3237C18.8577 45.1944 18.9805 45.0943 19.0418 44.9469C19.0827 44.8468 19.1114 44.7383 19.1673 44.6465C19.2859 44.4532 19.5136 44.3559 19.6527 44.1779C19.669 44.157 19.7099 44.1389 19.714 44.1667C19.714 44.1723 19.714 44.1765 19.7113 44.182C19.6649 44.3141 19.5436 44.4031 19.4372 44.4921C19.2723 44.6298 19.2559 44.7828 19.1632 44.958C19.0814 45.111 18.9955 45.2612 18.915 45.4141C18.7487 45.7312 18.5905 46.0538 18.4405 46.3792C18.1201 47.0745 17.8365 47.7865 17.5828 48.5097C17.0156 50.1228 16.5929 51.786 16.2793 53.4686C15.9289 55.3474 15.7134 57.2525 15.6153 59.1633C15.573 59.9837 15.5525 60.8042 15.5525 61.6261L15.5498 61.6233Z" fill="#4D4D4D"/>
<path d="M30.367 61.6235C30.367 69.1231 28.4512 75.203 26.0882 75.203C25.112 75.203 24.2107 74.1628 23.4907 72.4134C24.5134 69.9311 25.172 66.022 25.172 61.6235C25.172 57.2249 24.5134 53.3145 23.4907 50.8322C24.2107 49.0828 25.112 48.0426 26.0882 48.0426C28.4512 48.0426 30.367 54.1224 30.367 61.6235Z" fill="#252525"/>
<path d="M25.1721 61.6231C25.1721 66.0216 24.5135 69.9307 23.4909 72.4129C22.4696 69.9307 21.811 66.0216 21.811 61.6231C21.811 57.2245 22.4696 53.3141 23.4909 50.8318C24.5135 53.3141 25.1721 57.2245 25.1721 61.6231Z" fill="black"/>
<path d="M76.355 33.3298H73.6798C73.6798 16.2237 60.4917 2.20891 43.7612 0.969859C44.1471 0.940656 44.5344 0.919797 44.9243 0.9045H44.9352C45.347 0.889203 45.7602 0.880859 46.1747 0.880859C63.2665 0.880859 77.2604 14.1892 78.429 31.045C78.5149 32.2785 77.5659 33.3298 76.355 33.3298Z" fill="#4F555F"/>
<path d="M84.3464 46.0761V77.9353C84.3464 78.3692 84.3082 78.7934 84.2359 79.205C84.0341 80.3425 83.5664 81.3869 82.901 82.2685C81.9616 83.5118 80.628 84.4282 79.09 84.8217C78.5432 84.9622 77.9719 85.0373 77.3828 85.0373H74.2522C74.0708 84.9441 73.8976 84.844 73.7327 84.7355C73.6222 84.6674 73.5159 84.5937 73.4136 84.5172C71.641 83.1961 70.8843 80.8946 70.4138 78.7071C69.2412 73.2628 69.2126 67.6419 69.1894 62.0683C69.1703 57.7559 69.158 53.413 69.8507 49.1466C70.3102 46.3125 70.9852 42.7233 72.9336 40.3926C73.3331 39.9128 73.7858 39.4887 74.3026 39.134C74.3817 39.0784 74.4635 39.0256 74.5467 38.9741H77.3828C79.6313 38.9741 81.6275 40.0588 82.901 41.7429C83.8078 42.9416 84.3464 44.4435 84.3464 46.0761Z" fill="#2B9BA7"/>
<path d="M75.1783 85.4559C75.1783 85.4559 75.1769 85.4628 75.1756 85.4656C75.0678 85.5059 74.9574 85.5435 74.8456 85.5796C74.776 85.5699 74.7079 85.5463 74.6424 85.5226C74.0929 85.3279 73.6239 85.0387 73.1316 84.7355C73.0212 84.6674 72.9162 84.5937 72.8139 84.5172C71.04 83.1961 70.2832 80.8946 69.8128 78.7072C68.6415 73.2628 68.6115 67.6419 68.5883 62.0683C68.5706 57.7559 68.557 53.413 69.2497 49.1466C69.7092 46.3125 70.3841 42.7233 72.3326 40.3926C72.7321 39.9128 73.1848 39.4887 73.7016 39.134C73.7807 39.0784 73.8625 39.0256 73.9456 38.9741H74.547C74.4638 39.0256 74.382 39.0784 74.3029 39.134C73.7861 39.4887 73.3334 39.9128 72.9339 40.3926C72.8726 40.4649 72.8139 40.54 72.7553 40.6151C72.7117 40.6707 72.6694 40.7263 72.6285 40.7833C72.6285 40.7833 72.6271 40.7833 72.6271 40.7847C72.5944 40.8292 72.5617 40.8737 72.5317 40.9182C72.4785 40.9905 72.4294 41.0628 72.3803 41.1379C72.3053 41.2492 72.2344 41.3632 72.1649 41.4786C72.0953 41.5941 72.0272 41.7109 71.9617 41.8305C71.9181 41.9083 71.8758 41.989 71.8335 42.0697C71.7913 42.1503 71.7504 42.2324 71.7108 42.3144C71.6822 42.3714 71.6536 42.4298 71.6276 42.4882C71.5731 42.6009 71.5227 42.7149 71.4722 42.8289C71.4381 42.9082 71.404 42.9875 71.3713 43.0681C71.3454 43.1307 71.3195 43.1933 71.2949 43.2559C71.2704 43.3171 71.2472 43.3782 71.224 43.4394C71.1913 43.5256 71.1586 43.6119 71.1272 43.6995C71.0686 43.8594 71.0127 44.0207 70.9609 44.1834C70.9391 44.2488 70.9173 44.3127 70.8968 44.3781C70.7836 44.7355 70.6814 45.0971 70.5873 45.4586C70.5395 45.6394 70.4959 45.8188 70.4536 45.9996C70.3896 46.2707 70.3296 46.5419 70.2737 46.8103C70.2546 46.9007 70.2355 46.9897 70.2191 47.0787C70.1823 47.2567 70.1482 47.4347 70.1155 47.6099C70.0991 47.6975 70.0828 47.7851 70.0678 47.8728C70.0514 47.9604 70.0364 48.048 70.0214 48.1342C70.0051 48.2204 69.99 48.3066 69.9764 48.3915C69.9328 48.6473 69.8905 48.9004 69.851 49.1466C69.7842 49.554 69.7255 49.9629 69.671 50.3717C69.6328 50.6651 69.596 50.9599 69.5646 51.2548C69.5196 51.6441 69.4815 52.0335 69.4474 52.4243C69.4296 52.619 69.4133 52.8137 69.3996 53.0097C69.3683 53.4005 69.3424 53.7913 69.3206 54.182C69.3124 54.3155 69.3056 54.449 69.2987 54.5825C69.2946 54.6437 69.2919 54.7063 69.2892 54.7689C69.2701 55.1513 69.2551 55.5351 69.2428 55.9189C69.221 56.5572 69.206 57.1969 69.1978 57.8366C69.1965 57.9548 69.1951 58.0744 69.1937 58.194C69.1788 59.4859 69.1842 60.7778 69.1897 62.0683C69.1924 62.5383 69.1937 63.0083 69.1965 63.4798C69.1992 63.8803 69.2019 64.2822 69.206 64.6841C69.2074 64.8579 69.2087 65.0331 69.2115 65.2069C69.2128 65.3822 69.2156 65.556 69.2183 65.7312C69.2224 66.0274 69.2265 66.325 69.2333 66.6212C69.2469 67.3707 69.2674 68.1203 69.2974 68.8698C69.3042 69.0437 69.311 69.2175 69.3192 69.3913C69.3342 69.7404 69.3519 70.0894 69.371 70.4371C69.3806 70.6109 69.3915 70.7833 69.4024 70.9572C69.4105 71.0935 69.4201 71.2284 69.4296 71.3646C69.4555 71.7498 69.4842 72.135 69.5183 72.5189C69.5265 72.6218 69.5346 72.7233 69.5455 72.8248C69.5578 72.9736 69.5728 73.1238 69.5878 73.2726C69.5905 73.3129 69.5946 73.3532 69.5987 73.3936C69.6151 73.5577 69.6328 73.7204 69.6505 73.8845C69.6533 73.9206 69.6573 73.9568 69.6614 73.9929C69.7214 74.5353 69.7896 75.0762 69.866 75.6158C70.0132 76.6518 70.1932 77.6823 70.4141 78.7072C70.4346 78.8045 70.4564 78.9032 70.4796 79.002C70.4973 79.0798 70.515 79.1577 70.5341 79.2356C70.5764 79.4164 70.6214 79.5985 70.6705 79.7793C70.6841 79.8336 70.6991 79.8878 70.7141 79.942C70.7509 80.0797 70.7904 80.216 70.8327 80.3523C70.8518 80.4176 70.8722 80.483 70.8927 80.5483C70.95 80.7291 71.0113 80.9099 71.0768 81.0879C71.1081 81.1741 71.1395 81.2589 71.1736 81.3438C71.205 81.4244 71.2377 81.5051 71.2704 81.5844C71.2881 81.6261 71.3059 81.6692 71.3249 81.7095C71.3563 81.786 71.3904 81.8625 71.4258 81.9376C71.4627 82.0168 71.4995 82.0947 71.539 82.1726C71.5772 82.2519 71.6181 82.3297 71.6604 82.4076C71.7081 82.498 71.7585 82.587 71.8104 82.676C71.8281 82.708 71.8472 82.74 71.8676 82.772C71.8949 82.8178 71.9222 82.8623 71.9508 82.9068C71.9658 82.9305 71.9822 82.9555 71.9985 82.9792C72.0449 83.0515 72.0926 83.1238 72.1431 83.1947C72.1881 83.2573 72.2331 83.3199 72.2794 83.381C72.3258 83.4422 72.3721 83.502 72.4212 83.5604C72.4662 83.6175 72.5139 83.6731 72.563 83.7273C72.5698 83.7357 72.578 83.7454 72.5862 83.7537C72.6176 83.7899 72.6503 83.8261 72.683 83.8608C72.7117 83.8914 72.7389 83.9206 72.7689 83.9498C72.7894 83.9721 72.8126 83.9957 72.8357 84.0166C72.8507 84.0305 72.8644 84.0458 72.878 84.0597C72.893 84.075 72.908 84.0889 72.9216 84.1014C72.9435 84.1223 72.9653 84.1431 72.9871 84.1612C73.0171 84.1904 73.0471 84.2168 73.0771 84.2432C73.1275 84.2877 73.1793 84.3322 73.2312 84.374C73.2912 84.424 73.3512 84.4713 73.4139 84.5172C73.5161 84.5937 73.6225 84.6674 73.7329 84.7355C73.7493 84.7453 73.7643 84.755 73.7807 84.7661C73.8897 84.8384 73.9961 84.926 74.1079 84.9886C74.2006 85.0401 74.3015 85.0762 74.4038 85.1124C74.532 85.1764 74.6629 85.2348 74.7979 85.2904C74.866 85.3265 74.9369 85.3585 75.0106 85.3752H75.0133C75.0665 85.3961 75.121 85.4169 75.1756 85.435C75.1783 85.442 75.1783 85.4489 75.1783 85.4559Z" fill="#90E3EC"/>
<path d="M5.56603 47.9897C5.46649 48.4264 5.31241 48.8547 5.28105 49.3011C5.26333 49.5542 5.28514 49.8156 5.20742 50.0576C5.07379 50.4775 4.6811 50.7418 4.38521 51.0644C4.29658 51.1603 4.20796 51.2702 4.08115 51.2994C3.80162 51.3648 3.608 51.0046 3.60664 50.7112C3.60527 50.4177 3.68163 50.0951 3.51664 49.8559C3.38711 49.6668 3.14576 49.5959 2.92078 49.5709C2.6958 49.5458 2.46263 49.5528 2.25401 49.4638C1.12228 48.984 2.26901 47.6754 2.66444 47.1136C3.08577 46.5156 3.55891 45.9538 4.07433 45.4365C4.58974 44.9192 5.15015 44.4492 5.74465 44.0292C6.04326 43.8192 6.35006 43.6217 6.6664 43.4382C6.92956 43.2852 7.38498 43.1601 7.59633 42.9501C6.99637 43.5467 6.46323 44.2128 6.00918 44.9317C5.77056 45.31 5.58512 45.5033 5.55648 45.9566C5.52512 46.467 5.68057 46.9745 5.64375 47.4877C5.63148 47.656 5.60284 47.8228 5.56466 47.9869L5.56603 47.9897Z" fill="#2B9BA7"/>
<path opacity="0.64" d="M15.6031 40.9C15.4081 41.2171 15.0249 41.1754 14.7236 41.2936C14.4222 41.4118 14.1291 41.6009 13.8373 41.7594C13.2141 42.0974 12.5733 42.5535 12.3824 43.2877C12.2542 43.78 12.3579 44.3043 12.2856 44.8091C12.0497 46.4625 10.1053 47.3066 9.52307 48.8683C9.32263 49.4051 9.29945 49.9892 9.24219 50.5593C9.17674 51.2185 9.06356 51.8721 8.90539 52.5132C8.73359 53.2099 8.48952 53.9233 7.98092 54.4211C7.49959 54.8925 6.79874 55.122 6.13743 55.0232C5.15705 54.8772 4.25439 54.0373 4.25439 53.0388C4.25439 52.3713 4.25439 51.7052 4.25439 51.0377C4.25439 50.4606 4.29666 49.8946 4.37984 49.3411C4.51619 48.9545 4.58437 48.5499 4.62255 48.1396C4.88707 45.8423 6.84646 43.4477 8.56451 42.0932C9.68397 41.2115 10.9671 40.5079 12.3333 40.1254C12.8555 39.9794 16.563 39.337 15.6017 40.9H15.6031Z" fill="#90E3EC"/>
<g clip-path="url(#clip1_2970_499)">
<path d="M81.0333 43.166C80.4428 43.7604 79.4528 43.6551 78.7251 44.0778C77.6019 44.7284 77.4324 46.3543 76.7518 47.5128C76.3617 48.1779 75.7887 48.6987 75.3623 49.3378C73.8356 51.6287 74.4947 54.755 74.3723 57.5682C74.336 58.4006 74.0064 60.5113 72.8254 60.0222C71.861 59.6226 72.0304 57.1542 72.013 56.329C71.9484 53.321 72.3721 50.3303 72.6102 47.3397C72.7837 45.1468 73.0352 42.7679 74.4651 41.1896C75.2923 40.2764 76.4438 39.7498 77.6248 39.669C78.873 39.5824 82.8492 40.9905 81.114 43.078C81.0884 43.1098 81.0615 43.1386 81.0333 43.1675V43.166Z" fill="#50ABB5"/>
</g>
<path d="M67.5058 99.3829C67.353 99.5581 67.1758 99.7236 67.0503 99.9016C66.8158 100.233 66.5717 100.557 66.3113 100.867C65.7945 101.481 65.215 102.035 64.5837 102.524C63.7315 103.185 62.8766 103.848 61.948 104.392C59.1541 106.027 55.8517 106.488 52.6337 106.649C52.0583 106.678 51.4802 106.699 50.9116 106.609C50.1616 106.49 49.4499 106.184 48.7163 105.994L52.4101 106.132C56.922 106.3 61.2485 104.689 64.5946 101.6C65.4536 100.807 66.2349 99.9266 66.9222 98.9754C67.2426 98.5318 67.5058 98.0506 67.7975 97.5875C67.8753 97.4652 68.6866 96.4917 68.6907 96.5154C68.8161 97.2969 68.1943 97.7099 67.9448 98.4136C67.8794 98.5958 67.8466 98.789 67.7771 98.9698C67.7212 99.1172 67.6203 99.2521 67.5071 99.3815L67.5058 99.3829Z" fill="white"/>
<path d="M65.1888 105.064C62.0663 107.468 58.3629 108.88 54.4687 109.155C53.9983 109.189 53.5251 109.205 53.0506 109.205C53.0479 109.204 53.0452 109.204 53.0438 109.205C52.797 109.205 52.5489 109.201 52.3007 109.191L51.6489 109.168H51.6462C51.4621 109.12 51.2221 109.15 51.0312 109.144H51.0231C50.4545 109.123 49.8845 109.101 49.3146 109.08C47.8501 109.026 46.3857 108.972 44.9226 108.917C42.9973 108.847 41.0734 108.77 39.1481 108.703C38.9476 108.696 38.7581 108.649 38.5863 108.57C38.4172 108.226 38.3313 107.848 38.3668 107.467C38.5113 105.921 40.273 105.49 41.5179 105.879C42.4137 106.16 43.2019 106.784 44.0759 107.143C45.0903 107.559 46.1553 107.847 47.2393 107.993C48.2837 108.133 49.3391 108.146 50.3931 108.157C51.7648 108.171 53.1365 108.186 54.5082 108.201C55.6659 108.214 56.8372 108.224 57.9607 107.943C58.7597 107.742 59.5179 107.399 60.2733 107.065C61.8931 106.353 63.5335 105.686 65.1888 105.064Z" fill="#B7BBC3"/>
<path d="M41.3477 106.696C41.3477 108.051 40.8214 109.279 39.9637 110.178L39.9569 110.185C39.7974 110.354 39.6256 110.511 39.4429 110.654C39.3174 110.754 39.1865 110.847 39.0515 110.932C38.9697 110.985 38.8866 111.036 38.802 111.084C38.7284 111.125 38.6534 111.164 38.577 111.2C38.517 111.231 38.457 111.259 38.3957 111.285C38.3425 111.309 38.2893 111.331 38.2361 111.352C38.1925 111.37 38.1475 111.388 38.1025 111.403C38.0534 111.422 38.0057 111.438 37.9566 111.455C37.9075 111.47 37.8585 111.486 37.8107 111.501C37.7616 111.515 37.7112 111.529 37.6621 111.541C37.5626 111.568 37.463 111.59 37.3621 111.609C37.3117 111.619 37.2612 111.627 37.2108 111.636C37.1576 111.644 37.1031 111.652 37.0499 111.659C37.0022 111.665 36.9544 111.67 36.9067 111.675C36.8044 111.684 36.7022 111.691 36.5999 111.694C36.5481 111.696 36.4977 111.697 36.4458 111.697C36.394 111.697 36.3408 111.696 36.2877 111.694C36.2536 111.693 36.2181 111.691 36.184 111.69C36.1404 111.687 36.0968 111.684 36.0545 111.68C36.0109 111.677 35.9672 111.673 35.9236 111.668C35.8813 111.664 35.8391 111.658 35.7954 111.652C34.7769 111.516 33.8579 111.059 33.1366 110.386C33.1352 110.383 33.1325 110.381 33.1297 110.38C33.067 110.322 33.007 110.262 32.9497 110.201C32.9157 110.166 32.8816 110.13 32.8461 110.092C32.8243 110.066 32.8011 110.039 32.7779 110.013C32.7752 110.01 32.7725 110.009 32.7711 110.006C32.6007 109.81 32.4466 109.6 32.3075 109.379C32.2857 109.343 32.2639 109.306 32.2421 109.269C32.2066 109.21 32.1739 109.151 32.1425 109.092C32.1248 109.059 32.1071 109.024 32.0894 108.991C31.9598 108.736 31.8521 108.471 31.7689 108.198C31.7635 108.179 31.7567 108.159 31.7512 108.14C31.6517 107.803 31.5862 107.451 31.5603 107.09C31.5549 107.027 31.5508 106.963 31.548 106.901C31.5453 106.832 31.5439 106.764 31.5439 106.696C31.5439 103.936 33.7379 101.697 36.4458 101.697C39.1538 101.697 41.3477 103.936 41.3477 106.696Z" fill="#E4E7EC"/>
<path d="M39.6339 110.179C39.4048 110.444 39.1035 110.617 38.809 110.806C38.7326 110.854 38.6563 110.902 38.5785 110.946C38.5104 110.985 38.4408 111.021 38.3699 111.055C38.314 111.082 38.2595 111.109 38.2022 111.133C38.1531 111.155 38.104 111.176 38.055 111.194C38.014 111.21 37.9731 111.227 37.9309 111.241C37.8859 111.258 37.8409 111.273 37.7959 111.288C37.7509 111.302 37.7045 111.316 37.6609 111.331C37.6159 111.344 37.5682 111.358 37.5232 111.369C37.4305 111.394 37.3391 111.413 37.245 111.431C37.1987 111.44 37.1509 111.448 37.1046 111.457C37.0555 111.465 37.005 111.472 36.956 111.479C36.9123 111.484 36.8673 111.489 36.8237 111.493C36.7296 111.501 36.6342 111.508 36.5401 111.511C36.4923 111.511 36.446 111.514 36.3969 111.514C36.3478 111.514 36.3001 111.514 36.251 111.511C36.2196 111.511 36.1869 111.508 36.1556 111.507C36.1147 111.504 36.0751 111.501 36.0356 111.498C35.9947 111.495 35.9551 111.491 35.9142 111.487C35.8747 111.483 35.8365 111.479 35.7956 111.473C34.882 111.345 34.0162 110.935 33.3331 110.3C33.3331 110.297 33.329 110.295 33.3262 110.294C33.269 110.24 33.2144 110.184 33.1599 110.128C33.1285 110.096 33.0972 110.063 33.0644 110.028C33.044 110.003 33.0222 109.98 33.0017 109.955C32.999 109.952 32.9963 109.95 32.9949 109.948C32.8367 109.766 32.6949 109.572 32.5654 109.366C32.5449 109.333 32.5245 109.3 32.5054 109.265C32.4727 109.211 32.4427 109.155 32.4127 109.101C32.3963 109.07 32.3799 109.038 32.3636 109.006C32.2436 108.771 32.1441 108.525 32.0663 108.272C32.0609 108.254 32.0554 108.236 32.05 108.218C31.9586 107.926 31.855 107.567 31.8713 107.268C31.8713 107.26 31.8713 107.253 31.8741 107.246C31.9041 106.918 32.2395 106.849 32.519 107.084C32.7317 107.265 32.8517 107.541 33.0617 107.725C33.4912 108.101 34.1962 108.015 34.593 108.429C34.8602 108.71 34.9079 109.145 35.1329 109.464C35.3279 109.736 35.6361 109.898 35.9333 110.048C36.716 110.446 37.6023 110.596 38.4613 110.347C38.6508 110.293 38.8253 110.272 39.0217 110.252C39.0926 110.245 39.1649 110.238 39.2303 110.212C39.3162 110.177 39.3871 110.113 39.4689 110.069C39.5507 110.024 39.6544 109.999 39.7335 110.049C39.7021 110.094 39.6694 110.137 39.6353 110.177L39.6339 110.179Z" fill="#B7BBC3"/>
<path d="M36.9934 103.599C37.6517 103.679 38.2231 103.426 38.2695 103.032C38.316 102.638 37.82 102.253 37.1617 102.172C36.5034 102.092 35.932 102.345 35.8856 102.739C35.8391 103.133 36.3351 103.518 36.9934 103.599Z" fill="#F2F4F7"/>
<path d="M82.6731 80.4878C82.7099 80.51 82.7413 80.5392 82.7658 80.5768C82.8762 80.745 82.7863 80.9689 82.6949 81.1483C82.2858 81.9521 81.7745 82.6335 81.0682 83.1926C80.4805 83.6584 79.6215 84.2147 78.8606 84.2898C78.438 84.3315 78.0139 84.3509 77.5871 84.3343C77.3894 84.3259 77.1821 84.3078 77.0131 84.2021C76.844 84.0965 76.7267 83.8767 76.7963 83.6876C76.8358 83.5792 76.9272 83.5013 77.0253 83.4443C77.433 83.2092 77.958 83.3177 78.3875 83.1272C78.7257 82.977 78.9629 82.6613 79.2724 82.4541C79.5206 82.2873 79.976 82.1983 80.1505 81.9479C80.3346 81.6837 80.3346 81.2651 80.5296 80.9773C80.7232 80.6908 81.0382 80.4641 81.3791 80.4739C81.5386 80.478 81.6941 80.5337 81.8522 80.5281C82.0145 80.5239 82.1686 80.4586 82.3281 80.4335C82.444 80.4155 82.5749 80.4266 82.6731 80.4864V80.4878Z" fill="#0D6F82"/>
<path d="M87.9504 73.1976C87.9504 73.5216 87.9722 74.0584 87.9722 74.6925C87.9722 76.8368 87.7118 80.1076 85.4265 80.1076C84.6288 80.1076 84.0834 79.5597 83.7098 78.7656C82.9012 77.0468 82.9012 74.171 82.9012 73.1989V51.6345C82.9012 50.6277 82.7035 47.5266 83.6212 45.798C84.0016 45.0846 84.5716 44.6049 85.4251 44.6049C88.3867 44.6049 87.949 50.2119 87.949 51.6345V73.1989L87.9504 73.1976Z" fill="#50B8C4"/>
<path d="M85.4267 80.1058H81.7997C79.2758 80.1058 79.2758 74.6184 79.2758 73.1972V51.6327C79.2758 50.2101 78.8804 44.6031 81.7997 44.6031H85.4267C84.5731 44.6031 84.0018 45.0829 83.6227 45.7962C82.7051 47.5248 82.9028 50.6259 82.9028 51.6327V73.1972C82.9028 74.1692 82.9028 77.045 83.7113 78.7639C84.0849 79.5579 84.6304 80.1058 85.428 80.1058H85.4267Z" fill="#0D6F82"/>
<defs>
<clipPath id="clip0_2970_499">
<rect x="4.5" y="12" width="88" height="88" rx="44" fill="white"/>
</clipPath>
<clipPath id="clip1_2970_499">
<rect width="9.53952" height="20.4311" fill="white" transform="translate(72.0063 39.6647)"/>
</clipPath>
</defs>
</svg>
