<svg xmlns="http://www.w3.org/2000/svg" xmlns:xlink="http://www.w3.org/1999/xlink" xmlns:svgjs="http://svgjs.com/svgjs" version="1.1" width="40" height="40"><svg xmlns="http://www.w3.org/2000/svg" width="40" height="40" viewBox="0 0 40 40" fill="none">
<g clip-path="url(#clip0_1269_7644)">
<g clip-path="url(#clip1_1269_7644)">
<path d="M20.4094 22.0054C21.9231 22.0054 23.1536 20.7851 23.1536 19.2766C23.1536 17.768 21.9283 16.5478 20.4094 16.5478C18.8905 16.5478 17.6652 17.768 17.6652 19.2766C17.6652 20.7851 18.8905 22.0054 20.4094 22.0054Z" fill="black"/>
<path d="M7.18244 21.5987C7.75394 21.0014 8.03712 20.2394 8.03712 19.3127C8.03712 18.3859 7.75394 17.6239 7.18244 17.0267C6.61094 16.4294 5.86953 16.1308 4.94792 16.1308H3.79462V22.4946H4.94792C5.86953 22.4946 6.61094 22.1959 7.18244 21.5987Z" fill="black"/>
<path d="M27.7565 16.2132V12.3465H38.4761C35.4589 5.09718 28.2817 0 19.9048 0C11.5279 0 4.35584 5.09718 1.33872 12.3465H5.33408C7.42959 12.3465 9.11836 12.9901 10.3952 14.2824C11.6772 15.5696 12.3105 17.248 12.3105 19.3127C12.3105 21.3773 11.6721 23.0557 10.3952 24.3429C9.11836 25.6301 7.42959 26.2788 5.33408 26.2788H0.823853C3.47027 34.2489 11.0131 40 19.9048 40C24.3018 40 28.3589 38.5944 31.6695 36.2106V16.2132H27.7565ZM25.2697 24.209C23.9568 25.5528 22.3453 26.2273 20.43 26.2273C18.5147 26.2273 16.9031 25.5528 15.5902 24.209C14.2773 22.8652 13.6234 21.2228 13.6234 19.2766C13.6234 17.3304 14.2773 15.688 15.5902 14.3442C16.9031 13.0004 18.5147 12.3259 20.43 12.3259C22.3453 12.3259 23.9568 13.0004 25.2697 14.3442C26.5826 15.688 27.2365 17.3304 27.2365 19.2766C27.2365 21.2228 26.5826 22.8652 25.2697 24.209Z" fill="black"/>
<path d="M39.6396 16.2131H35.9069V32.0916C38.4709 28.7347 40 24.5437 40 19.9974C40 18.7051 39.8765 17.4385 39.6396 16.2131Z" fill="black"/>
</g>
</g>
<defs>
<clipPath id="SvgjsClipPath1001">
<rect width="40" height="40" fill="white"/>
</clipPath>
<clipPath id="SvgjsClipPath1000">
<rect width="39.1762" height="40" fill="white" transform="translate(0.823853)"/>
</clipPath>
</defs>
</svg><style>@media (prefers-color-scheme: light) { :root { filter: none; } }
@media (prefers-color-scheme: dark) { :root { filter: invert(100%); } }
</style></svg>