<svg width="40" height="40" viewBox="0 0 40 40" fill="none" xmlns="http://www.w3.org/2000/svg" class="navIcon horizontal"><g id="g1" style="mix-blend-mode: multiply;"><path d="M15.8008 4.84998H21.9758C22.6383 4.84998 23.2758 5.11248 23.7508 5.58748L32.0008 13.85C32.4633 14.3125 32.7258 14.95 32.7258 15.6125V31.475C32.7258 32.1625 32.1633 32.725 31.4758 32.725H14.5508V6.09998C14.5508 5.41248 15.1133 4.84998 15.8008 4.84998Z" fill="#90E3EC"></path></g><g id="g2" style="mix-blend-mode: multiply;"><path d="M20.5609 14.55H18.0234C17.3609 14.55 16.7234 14.8125 16.2609 15.2875L8.01094 23.5375C7.53594 24.0125 7.27344 24.6375 7.27344 25.3V31.475C7.27344 32.1625 7.83594 32.725 8.52344 32.725H20.5734C21.2609 32.725 21.8234 32.1625 21.8234 31.475V15.8C21.8234 15.1125 21.2609 14.55 20.5734 14.55H20.5609Z" fill="#FAC394"></path></g></svg>