<svg width="108" height="92" viewBox="0 0 108 92" fill="none" xmlns="http://www.w3.org/2000/svg">
<rect x="9.75" y="2" width="88" height="88" rx="44" fill="#F7F7F7"/>
<path d="M52.9417 68.725C45.4827 69.8893 39.3288 69.2019 34.6027 67.9099C34.4948 67.8906 34.399 67.8821 34.3 67.8355C33.7522 67.6841 33.2251 67.524 32.7156 67.3575C31.9802 67.1267 31.24 66.857 30.4911 66.5441C29.9062 66.3098 29.3434 66.0715 28.832 65.8314C28.7346 65.8038 28.6364 65.7556 28.5594 65.709C28.5054 65.6792 28.4612 65.6608 28.4079 65.6334C26.895 64.9066 25.7043 64.1965 24.8516 63.6469C24.85 63.6279 24.8188 63.6187 24.8081 63.6088L23.2795 62.4802L23.2688 62.4703L47.8248 56.8C49.9435 63.7787 57.3495 60.4622 57.7276 60.288L52.9417 68.725Z" fill="#3FB12C"/>
<path d="M52.9431 68.6872C45.4806 69.8521 39.3237 69.1643 34.5954 67.8718C43.6591 69.9695 51.4249 66.1785 57.7297 60.2451C70.0637 48.6558 76.8357 28.901 76.8357 28.901L107.25 34.8567C85.1219 57.9416 66.7863 66.5144 52.9431 68.6872Z" fill="#8BE27C"/>
<path d="M70.106 62.7712C66.4414 65.2763 60.6149 67.3802 59.6162 66.2274C58.6191 65.0755 62.6028 63.3962 65.9816 60.59C69.6644 57.532 72.3422 54.3607 73.8369 54.9281C75.6874 55.6314 73.7706 60.266 70.1044 62.7703L70.106 62.7712Z" fill="#C2F2BA"/>
<path d="M44.5849 18.9998C50.674 18.0494 55.6978 18.6106 59.556 19.6652C59.6441 19.681 59.7223 19.6879 59.8031 19.726C60.2504 19.8496 60.6806 19.9803 61.0965 20.1162C61.6969 20.3046 62.3012 20.5248 62.9126 20.7802C63.3901 20.9716 63.8494 21.166 64.267 21.3621C64.3465 21.3846 64.4266 21.424 64.4895 21.462C64.5336 21.4863 64.5696 21.5013 64.6132 21.5237C65.8482 22.117 66.8203 22.6967 67.5164 23.1454C67.5177 23.1609 67.5431 23.1684 67.5518 23.1765L68.7998 24.0979L68.8085 24.106L48.7621 28.7349C47.0325 23.0378 40.9865 25.7452 40.6779 25.8875L44.5849 18.9998Z" fill="#3FB12C"/>
<path d="M44.5838 19.03C50.6759 18.079 55.7021 18.6405 59.5621 19.6957C52.1629 17.9832 45.8232 21.078 40.6762 25.9217C30.6073 35.3827 25.079 51.5096 25.079 51.5096L0.250112 46.6477C18.3145 27.8023 33.2829 20.8038 44.5838 19.03Z" fill="#8BE27C"/>
<path d="M30.5728 23.8603C33.5644 21.8153 38.3209 20.0977 39.1361 21.0388C39.9501 21.9792 36.698 23.3501 33.9397 25.641C30.9332 28.1374 28.7472 30.7262 27.527 30.2631C26.0163 29.6889 27.5811 25.9054 30.574 23.861L30.5728 23.8603Z" fill="#C2F2BA"/>
</svg>
