<svg
    width="40"
    height="40"
    viewBox="0 0 40 40"
    fill="none"
    xmlns="http://www.w3.org/2000/svg"
    class="navIcon horizontal"
>
    <g id="g1" style="mix-blend-mode: multiply">
        <path
            d="M34.6758 14.0499C27.4008 16.3999 20.1133 9.79995 12.8383 12.9874C12.3883 13.1874 12.1133 13.6374 12.1133 14.8374V24.7874C12.1133 25.6624 12.9758 26.2249 13.8008 25.9499C21.0758 23.5999 28.3633 30.1999 35.6383 27.0124C36.0883 26.8124 36.3633 26.3624 36.3633 25.1624V15.2124C36.3633 14.3374 35.5008 13.7749 34.6758 14.0499ZM24.2383 21.8749C23.2008 21.8749 22.3633 21.0374 22.3633 19.9999C22.3633 18.9624 23.2008 18.1249 24.2383 18.1249C25.2758 18.1249 26.1133 18.9624 26.1133 19.9999C26.1133 21.0374 25.2758 21.8749 24.2383 21.8749Z"
            fill="#8BE27C"
        ></path>
    </g>
    <g id="g2" style="mix-blend-mode: multiply">
        <path
            d="M3.63672 14.3125V25.6875C3.63672 26.575 4.09922 27.3875 4.87422 27.8375L12.6742 32.425C13.4617 32.8875 14.4242 32.8875 15.2117 32.425L23.0117 27.8375C23.7742 27.3875 24.2492 26.5625 24.2492 25.6875V14.3125C24.2492 13.425 23.7867 12.6125 23.0117 12.1625L15.2117 7.57502C14.4242 7.11252 13.4617 7.11252 12.6742 7.57502L4.87422 12.1625C4.11172 12.6125 3.63672 13.4375 3.63672 14.3125Z"
            fill="#BCF2F8"
        ></path>
    </g>
</svg>
