<svg width="40" height="40" viewBox="0 0 40 40" fill="none" xmlns="http://www.w3.org/2000/svg" class="navIcon vertical"><g id="g1" style="mix-blend-mode: multiply;"><path id="Vector" d="M26.1372 10.9C25.6372 10.4625 24.7122 10.225 24.0622 10.3625L5.4372 14.5C4.7872 14.6375 4.6622 15.125 5.1622 15.5625L13.8497 23.275C14.3497 23.7125 15.2747 23.95 15.9247 23.8125L34.5497 19.675C35.1997 19.5375 35.3247 19.05 34.8247 18.6125L26.1372 10.9ZM15.8747 18.8C15.8747 18.8 15.2747 18.9875 14.6247 19.125L14.4997 19.15C13.8497 19.3 13.2622 19.4125 13.1747 19.4C13.0872 19.3875 12.6872 19.1 12.4122 18.8625C12.1372 18.625 11.8997 18.375 11.8872 18.325C11.8747 18.275 12.5122 18.0875 13.1622 17.95L13.2747 17.925C13.9247 17.7875 14.5247 17.675 14.5997 17.675C14.6747 17.675 15.0747 17.9625 15.3497 18.2125C15.6247 18.4625 15.9122 18.775 15.8747 18.8125V18.8ZM25.1372 12.975C24.6622 13.0875 24.0247 12.9375 23.6997 12.65C23.3872 12.3625 23.5247 12.05 23.9997 11.95C24.4622 11.8375 25.1122 11.9875 25.4247 12.275C25.7372 12.55 25.6122 12.8625 25.1372 12.975Z" fill="#90E3EC"></path></g><g id="g2" style="mix-blend-mode: multiply;"><path id="Vector_2" d="M34.8247 24.45C35.3247 24.8875 35.1997 25.3625 34.5497 25.5125L15.9247 29.65C15.2747 29.7875 14.3497 29.55 13.8497 29.1125L5.1622 21.3875C4.6622 20.95 4.7872 20.475 5.4372 20.325L24.0622 16.1875C24.7122 16.05 25.6372 16.2875 26.1372 16.725L34.8247 24.45Z" fill="#FAC394"></path></g></svg>