<svg width="40" height="40" viewBox="0 0 40 40" fill="none" xmlns="http://www.w3.org/2000/svg" class="navIcon horizontal"><g id="g2" style="mix-blend-mode: multiply;"><path d="M15.1492 31.5125C21.5074 31.5125 26.6617 26.3582 26.6617 20C26.6617 13.6419 21.5074 8.48755 15.1492 8.48755C8.79104 8.48755 3.63672 13.6419 3.63672 20C3.63672 26.3582 8.79104 31.5125 15.1492 31.5125Z" fill="#C0D2F9"></path></g><g id="g1" style="mix-blend-mode: multiply;"><path d="M35.0984 14.55H29.0859V12.175C29.0859 11.475 28.5234 10.925 27.8359 10.925H21.8484C21.1609 10.925 20.5984 11.475 20.5984 12.175V14.55H14.5859C13.8984 14.55 13.3359 15.1 13.3359 15.8V26.9625C13.3359 27.4625 13.7484 27.875 14.2484 27.875H35.4359C35.9484 27.875 36.3484 27.4625 36.3484 26.9625V15.8C36.3484 15.1 35.7859 14.55 35.0984 14.55ZM27.2734 14.55H22.4109V13.0375C22.4109 12.8625 22.5484 12.725 22.7234 12.725H26.9609C27.1234 12.725 27.2734 12.8625 27.2734 13.0375V14.55Z" fill="#8BE27C"></path></g></svg>