<svg width="32" height="22" viewBox="0 0 32 22" fill="none" xmlns="http://www.w3.org/2000/svg" class="navIcon horizontal"><g id="g1" style="mix-blend-mode: multiply;"><path d="M29.4609 2.02517C22.1859 4.37517 14.8984 -2.22483 7.62344 0.962667C7.17344 1.16267 6.89844 1.61267 6.89844 2.81267V12.7627C6.89844 13.6377 7.76095 14.2002 8.58595 13.9252C15.8609 11.5752 23.1484 18.1752 30.4234 14.9877C30.8734 14.7877 31.1484 14.3377 31.1484 13.1377V3.18767C31.1484 2.31267 30.2859 1.75017 29.4609 2.02517ZM19.0234 9.85017C17.9859 9.85017 17.1484 9.01267 17.1484 7.97517C17.1484 6.93767 17.9859 6.10017 19.0234 6.10017C20.0609 6.10017 20.8984 6.93767 20.8984 7.97517C20.8984 9.01267 20.0609 9.85017 19.0234 9.85017Z" fill="#8BE27C"></path></g><g id="g2" style="mix-blend-mode: multiply;"><path d="M23.3984 8.07497C16.1234 10.425 8.83594 3.82497 1.56094 7.01247C1.11094 7.21247 0.835938 7.66247 0.835938 8.86247V18.8125C0.835938 19.6875 1.69844 20.25 2.52344 19.975C9.79844 17.625 17.0859 24.225 24.3609 21.0375C24.8109 20.8375 25.0859 20.3875 25.0859 19.1875V9.23747C25.0859 8.36247 24.2234 7.79997 23.3984 8.07497ZM12.9609 15.9C11.9234 15.9 11.0859 15.0625 11.0859 14.025C11.0859 12.9875 11.9234 12.15 12.9609 12.15C13.9984 12.15 14.8359 12.9875 14.8359 14.025C14.8359 15.0625 13.9984 15.9 12.9609 15.9Z" fill="#FAC394"></path></g></svg>