<svg width="40" height="40" viewBox="0 0 40 40" fill="none" xmlns="http://www.w3.org/2000/svg" class="navIcon vertical"><g id="g2" style="mix-blend-mode: multiply;"><path d="M31.4109 19.3999H8.58594C7.86106 19.3999 7.27344 19.9875 7.27344 20.7124V31.4249C7.27344 32.1498 7.86106 32.7374 8.58594 32.7374H31.4109C32.1358 32.7374 32.7234 32.1498 32.7234 31.4249V20.7124C32.7234 19.9875 32.1358 19.3999 31.4109 19.3999Z" fill="#9FB5EC"></path></g><g id="g1" style="mix-blend-mode: multiply;"><path d="M25.2363 6.78762C21.7488 13.5876 11.9363 14.0751 9.04883 21.4751C8.87383 21.9376 8.99883 22.4501 9.84883 23.3001L16.8863 30.3376C17.4988 30.9501 18.5113 30.7501 18.8988 29.9626C22.3863 23.1626 32.1988 22.6751 35.0863 15.2751C35.2613 14.8126 35.1363 14.3001 34.2863 13.4501L27.2488 6.41263C26.6363 5.80013 25.6238 6.00012 25.2363 6.78762ZM23.3863 19.7001C22.6488 20.4376 21.4738 20.4376 20.7363 19.7001C19.9988 18.9626 19.9988 17.7876 20.7363 17.0501C21.4738 16.3126 22.6488 16.3126 23.3863 17.0501C24.1238 17.7876 24.1238 18.9626 23.3863 19.7001Z" fill="#FAC394"></path></g></svg>