<svg width="40" height="40" viewBox="0 0 40 40" fill="none" xmlns="http://www.w3.org/2000/svg" class="navIcon horizontal"><g id="g1" style="mix-blend-mode: multiply;"><path d="M26.6141 10.9125H20.6016V8.53748C20.6016 7.83748 20.0391 7.28748 19.3516 7.28748H13.3641C12.6766 7.28748 12.1141 7.83748 12.1141 8.53748V10.9125H6.10156C5.41406 10.9125 4.85156 11.4625 4.85156 12.1625V23.325C4.85156 23.825 5.26406 24.2375 5.76406 24.2375H26.9516C27.4641 24.2375 27.8641 23.825 27.8641 23.325V12.1625C27.8641 11.4625 27.3016 10.9125 26.6141 10.9125ZM18.7891 10.9125H13.9266V9.39998C13.9266 9.22498 14.0641 9.08748 14.2391 9.08748H18.4766C18.6391 9.08748 18.7891 9.22498 18.7891 9.39998V10.9125Z" fill="#8BE27C"></path></g><g id="g2" style="mix-blend-mode: multiply;"><path d="M33.9016 32.725H18.1391C17.2516 32.725 16.4391 32.2625 15.9891 31.5L12.4641 25.5625C12.0016 24.775 12.0016 23.8125 12.4641 23.025L16.0016 16.9875C16.4516 16.225 17.2766 15.75 18.1641 15.75H33.9141C34.8766 15.75 35.4766 16.7875 35.0016 17.625L31.5766 23.625C31.3516 24.0125 31.3516 24.475 31.5766 24.8625L35.0016 30.8625C35.4766 31.7 34.8766 32.7375 33.9141 32.7375L33.9016 32.725Z" fill="#BCF2F8"></path></g></svg>