<svg width="40" height="40" viewBox="0 0 40 40" fill="none" xmlns="http://www.w3.org/2000/svg" class="navIcon vertical"><g id="g1" style="mix-blend-mode: multiply;"><path d="M20.0008 35.15C26.359 35.15 31.5133 29.9957 31.5133 23.6375C31.5133 17.2793 26.359 12.125 20.0008 12.125C13.6426 12.125 8.48828 17.2793 8.48828 23.6375C8.48828 29.9957 13.6426 35.15 20.0008 35.15Z" fill="#9FB5EC"></path></g><g id="g2" style="mix-blend-mode: multiply;"><path d="M11.5125 6.10003V22.1625C11.5125 23.05 11.975 23.8625 12.7375 24.3125L18.675 27.8375C19.4625 28.3 20.425 28.3 21.2125 27.8375L27.25 24.3C28.0125 23.85 28.4875 23.025 28.4875 22.1375V6.10003C28.4875 5.13753 27.45 4.53753 26.6125 5.01253L20.6125 8.43752C20.225 8.66252 19.7625 8.66252 19.375 8.43752L13.375 5.01253C12.5375 4.53753 11.5 5.13753 11.5 6.10003H11.5125Z" fill="#FAC394"></path></g></svg>