<svg width="32" height="26" viewBox="0 0 32 26" fill="none" xmlns="http://www.w3.org/2000/svg" class="navIcon vertical"><g id="g1" style="mix-blend-mode: multiply;"><path d="M19.4531 12.3999H22.0656C25.4031 12.3999 28.1281 9.6874 28.1281 6.3374C28.1281 4.6624 27.4406 3.1499 26.3531 2.0499C25.2531 0.949902 23.7406 0.274902 22.0656 0.274902C18.7156 0.274902 16.0031 2.9874 16.0031 6.3374C16.0031 2.5499 12.5281 -0.425098 8.59062 0.424902C6.20312 0.937402 4.32813 2.9374 3.95313 5.3499C3.62813 7.4124 4.34063 9.3124 5.65313 10.6249C6.75313 11.7249 8.26563 12.3999 9.94063 12.3999H12.5281C11.6531 15.2999 9.06562 17.4624 5.94062 17.7124C5.60312 17.7374 5.34063 17.9999 5.34063 18.3374V20.2124C5.34063 20.5624 5.64062 20.8624 5.99062 20.8499C10.8281 20.5499 14.7906 17.0249 15.7656 12.4124C15.8531 12.0124 15.9156 11.5999 15.9531 11.1749H16.0406C16.0781 11.5999 16.1406 12.0124 16.2281 12.4124C17.2031 17.0249 21.1531 20.5624 26.0031 20.8499C26.3531 20.8749 26.6531 20.5749 26.6531 20.2124V18.3374C26.6531 17.9999 26.3906 17.7499 26.0531 17.7124C22.9281 17.4624 20.3281 15.2999 19.4531 12.3999ZM9.94063 9.2749C8.31563 9.2749 7.00313 7.9499 7.00313 6.3374C7.00313 4.7249 8.31563 3.3999 9.94063 3.3999C11.5656 3.3999 12.8781 4.7124 12.8781 6.3374V9.2749H9.94063ZM19.1281 6.3374C19.1281 4.7124 20.4406 3.3999 22.0656 3.3999C23.6906 3.3999 25.0031 4.7124 25.0031 6.3374C25.0031 7.9624 23.6781 9.2749 22.0656 9.2749H19.1281V6.3374Z" fill="#FAC394"></path></g><g id="g2" style="mix-blend-mode: multiply;"><path d="M29.9016 7.5498H2.10156C1.41121 7.5498 0.851562 8.10945 0.851562 8.7998V24.4873C0.851562 25.1777 1.41121 25.7373 2.10156 25.7373H29.9016C30.5919 25.7373 31.1516 25.1777 31.1516 24.4873V8.7998C31.1516 8.10945 30.5919 7.5498 29.9016 7.5498Z" fill="#90E3EC"></path></g></svg>