<svg width="40" height="40" viewBox="0 0 40 40" fill="none" xmlns="http://www.w3.org/2000/svg" class="navIcon horizontal"><g id="g1" style="mix-blend-mode: multiply;"><path d="M4.8375 9.40002L12.425 7.50002C13.625 7.20002 14.875 7.20002 16.075 7.50002L23.6625 9.40002C24.1875 9.51252 24.5625 9.97502 24.5625 10.5125V22.6875C24.5625 24.9875 23.4125 27.125 21.5 28.4L15.6375 32.3C14.8 32.8625 13.7 32.8625 12.8625 32.3L7 28.4C5.0875 27.125 3.9375 24.9875 3.9375 22.6875V10.5125C3.9375 9.97502 4.3125 9.51252 4.8375 9.40002Z" fill="#90E3EC"></path></g><g id="g2" style="mix-blend-mode: multiply;"><path d="M34.8016 14.55H28.7891V12.175C28.7891 11.475 28.2266 10.925 27.5391 10.925H21.5516C20.8641 10.925 20.3016 11.475 20.3016 12.175V14.55H14.2891C13.6016 14.55 13.0391 15.1 13.0391 15.8V26.9625C13.0391 27.4625 13.4516 27.875 13.9516 27.875H35.1391C35.6516 27.875 36.0516 27.4625 36.0516 26.9625V15.8C36.0516 15.1 35.4891 14.55 34.8016 14.55ZM26.9766 14.55H22.1141V13.0375C22.1141 12.8625 22.2516 12.725 22.4266 12.725H26.6641C26.8266 12.725 26.9766 12.8625 26.9766 13.0375V14.55Z" fill="#C0D2F9"></path></g></svg>