<svg width="19" height="26" viewBox="0 0 19 26" fill="none" xmlns="http://www.w3.org/2000/svg" class="navIcon vertical"><g id="g2" style="mix-blend-mode: multiply;"><path d="M8.59933 16.0249H1.52433C0.64933 16.0249 0.0368299 15.1499 0.36183 14.3249L5.44933 1.0749C5.63683 0.587402 6.09933 0.274902 6.61183 0.274902H14.7118C15.6243 0.274902 16.2243 1.2249 15.8493 2.0499L9.72433 15.3124C9.52433 15.7499 9.07433 16.0374 8.58683 16.0374L8.59933 16.0249Z" fill="#8BE27C"></path></g><g id="g1" style="mix-blend-mode: multiply;"><path d="M8.69665 25.7249H5.04665C4.19665 25.7249 3.59665 24.8999 3.85915 24.0874L8.14665 10.8249C8.30915 10.3124 8.79665 9.9624 9.33415 9.9624H17.0716C18.0591 9.9624 18.6591 11.0499 18.1341 11.8749L9.75915 25.1374C9.53415 25.4999 9.13415 25.7249 8.69665 25.7249Z" fill="#90E3EC"></path></g></svg>