<svg width="40" height="40" viewBox="0 0 40 40" fill="none" xmlns="http://www.w3.org/2000/svg" class="navIcon vertical"><g id="g1" style="mix-blend-mode: multiply;"><path d="M33.875 19.3H6.125C7.0875 12.5125 12.925 7.27502 20 7.27502C27.075 7.27502 32.9 12.5125 33.875 19.3Z" fill="#90E3EC"></path></g><g id="g2" style="mix-blend-mode: multiply;"><path d="M19.3859 15.7625V28.5C19.3859 29.5 18.5734 30.3125 17.5734 30.3125C16.5734 30.3125 15.7609 29.5 15.7609 28.5V27.8875C15.7609 27.2125 15.2234 26.675 14.5484 26.675C13.8734 26.675 13.3359 27.2125 13.3359 27.8875V28.5C13.3359 30.8375 15.2359 32.7375 17.5734 32.7375C19.9109 32.7375 21.8109 30.8375 21.8109 28.5V15.7625C21.8109 15.0875 21.2734 14.55 20.5984 14.55C19.9234 14.55 19.3859 15.0875 19.3859 15.7625Z" fill="#C2F2BA"></path></g></svg>