<svg width="40" height="40" viewBox="0 0 40 40" fill="none" class="navIcon vertical" xmlns="http://www.w3.org/2000/svg"><g id="g1" style="mix-blend-mode: multiply;"><path d="M28.4867 26.925V10.875C28.4867 9.98752 28.0242 9.17502 27.2617 8.72502L21.3242 5.20002C20.5367 4.73752 19.5742 4.73752 18.7867 5.20002L12.7492 8.73752C11.9867 9.18752 11.5117 10.0125 11.5117 10.9V26.95C11.5117 27.9125 12.5492 28.5125 13.3867 28.0375L19.3867 24.6125C19.7742 24.3875 20.2367 24.3875 20.6242 24.6125L26.6242 28.0375C27.4617 28.5125 28.4992 27.9125 28.4992 26.95L28.4867 26.925Z" fill="#8BE27C"></path></g><g id="g2" style="mix-blend-mode: multiply;"><path d="M20.0008 35.15C26.359 35.15 31.5133 29.9957 31.5133 23.6375C31.5133 17.2793 26.359 12.125 20.0008 12.125C13.6426 12.125 8.48828 17.2793 8.48828 23.6375C8.48828 29.9957 13.6426 35.15 20.0008 35.15Z" fill="#C0D2F9"></path></g></svg>