<svg width="40" height="40" viewBox="0 0 40 40" fill="none" xmlns="http://www.w3.org/2000/svg" class="navIcon horizontal"><g id="g1" style="mix-blend-mode: multiply;"><path d="M35.8867 9.22487C28.6117 11.5749 21.3242 4.97487 14.0492 8.16237C13.5992 8.36237 13.3242 8.81237 13.3242 10.0124V19.9624C13.3242 20.8374 14.1867 21.3999 15.0117 21.1249C22.2867 18.7749 29.5742 25.3749 36.8492 22.1874C37.2992 21.9874 37.5742 21.5374 37.5742 20.3374V10.3874C37.5742 9.51237 36.7117 8.94987 35.8867 9.22487ZM25.4492 17.0499C24.4117 17.0499 23.5742 16.2124 23.5742 15.1749C23.5742 14.1374 24.4117 13.2999 25.4492 13.2999C26.4867 13.2999 27.3242 14.1374 27.3242 15.1749C27.3242 16.2124 26.4867 17.0499 25.4492 17.0499Z" fill="#8BE27C"></path></g><g id="g2" style="mix-blend-mode: multiply;"><path d="M32.7508 17.6748C32.7508 18.1248 32.5758 18.5498 32.2508 18.8873L25.6258 25.5123C25.2133 25.9248 24.7008 26.2248 24.1508 26.3998L21.6008 27.1748L13.3758 29.7248C12.9633 29.8498 12.5883 30.0873 12.2758 30.3873L9.93828 32.7248L2.42578 25.2248L8.52578 19.1248C8.97578 18.6748 9.53828 18.3498 10.1508 18.1998L17.0383 16.4123C18.2008 16.1248 19.3758 16.7998 19.6633 17.9623C19.7133 18.1373 19.7383 18.3373 19.7383 18.5123C19.7383 19.4748 19.1008 20.3498 18.1258 20.5873L14.2883 21.5873L24.3758 21.2123C24.8008 21.2123 25.2383 21.0123 25.5383 20.7123L29.7883 16.4623C30.4508 15.7873 31.5508 15.7873 32.2383 16.4623C32.5633 16.7998 32.7383 17.2248 32.7383 17.6748H32.7508Z" fill="#90E3EC"></path></g></svg>