<svg width="40" height="40" viewBox="0 0 40 40" fill="none" xmlns="http://www.w3.org/2000/svg" class="navIcon vertical"><g id="g1" style="mix-blend-mode: multiply;"><path d="M24.2375 24.2499C28.925 24.2499 32.725 20.4499 32.725 15.7624C32.725 11.0749 28.925 7.2749 24.2375 7.2749C19.55 7.2749 15.75 11.0749 15.75 15.7624C15.75 20.4499 19.55 24.2499 24.2375 24.2499Z" fill="#FAC394"></path></g><g id="g2" style="mix-blend-mode: multiply;"><path d="M35.1484 17.6748C35.1484 18.1248 34.9734 18.5498 34.6484 18.8873L28.0234 25.5123C27.6109 25.9248 27.0984 26.2248 26.5484 26.3998L23.9984 27.1748L15.7734 29.7248C15.3609 29.8498 14.9859 30.0873 14.6734 30.3873L12.3359 32.7248L4.83594 25.2248L10.9359 19.1248C11.3859 18.6748 11.9484 18.3498 12.5609 18.1998L19.4484 16.4123C20.6109 16.1248 21.7859 16.7998 22.0734 17.9623C22.1234 18.1373 22.1484 18.3373 22.1484 18.5123C22.1484 19.4748 21.5109 20.3498 20.5359 20.5873L16.6984 21.5873L26.7859 21.2123C27.2109 21.2123 27.6484 21.0123 27.9484 20.7123L32.1984 16.4623C32.8609 15.7873 33.9609 15.7873 34.6484 16.4623C34.9734 16.7998 35.1484 17.2248 35.1484 17.6748Z" fill="#90E3EC"></path></g></svg>