<svg width="40" height="40" viewBox="0 0 40 40" class="navIcon horizontal" fill="none" xmlns="http://www.w3.org/2000/svg"><g id="g1" style="mix-blend-mode: multiply;"><path d="M24.5141 24.2374H8.45156C7.56406 24.2374 6.75156 23.775 6.30156 23.0125L2.77656 17.075C2.31406 16.2874 2.31406 15.325 2.77656 14.5375L6.31406 8.49995C6.76406 7.73745 7.58906 7.26245 8.47656 7.26245H24.5266C25.4891 7.26245 26.0891 8.29995 25.6141 9.13745L22.1891 15.1375C21.9641 15.525 21.9641 15.9875 22.1891 16.375L25.6141 22.3749C26.0891 23.2125 25.4891 24.25 24.5266 24.25L24.5141 24.2374Z" fill="#8BE27C" id="p1"></path></g><g id="g2" style="mix-blend-mode: multiply;"><path d="M13.0778 32.725H29.1403C30.0278 32.725 30.8403 32.2625 31.2903 31.5L34.8153 25.5625C35.2778 24.775 35.2778 23.8125 34.8153 23.025L31.2778 16.9875C30.8278 16.225 30.0028 15.75 29.1153 15.75H13.0778C12.1153 15.75 11.5153 16.7875 11.9903 17.625L15.4153 23.625C15.6403 24.0125 15.6403 24.475 15.4153 24.8625L11.9903 30.8625C11.5153 31.7 12.1153 32.7375 13.0778 32.7375V32.725Z" fill="#FAC394" id="p2"></path></g></svg>