<svg width="32" height="31" viewBox="0 0 32 31" fill="none" xmlns="http://www.w3.org/2000/svg" class="navIcon vertical"><g id="g2" style="mix-blend-mode: multiply;"><path d="M15.9992 30.1952C22.9347 30.1952 28.557 24.5729 28.557 17.6374C28.557 10.7019 22.9347 5.07959 15.9992 5.07959C9.06372 5.07959 3.44141 10.7019 3.44141 17.6374C3.44141 24.5729 9.06372 30.1952 15.9992 30.1952Z" fill="#BCF2F8"></path></g><g id="g1"><g id="Vector_2" style="mix-blend-mode: multiply;"><path d="M31.6164 9.575C28.7039 3.925 22.7914 0.0625 15.9914 0.0625C9.19136 0.0625 3.29135 3.925 0.366355 9.575C-0.133645 10.5375 0.353847 11.7125 1.35385 12.0875C2.21635 12.4125 3.17885 12.0375 3.60385 11.2125C5.91635 6.7375 10.5914 3.6875 15.9664 3.6875C21.3414 3.6875 26.0289 6.7375 28.3414 11.2125C28.7664 12.0375 29.7288 12.4125 30.5913 12.0875C31.6038 11.7 32.0789 10.525 31.5789 9.575H31.6164Z" fill="#8BE27C"></path></g><g id="Vector_3" style="mix-blend-mode: multiply;"><path d="M16.007 14.5874C14.3195 14.5874 12.957 15.9499 12.957 17.6374C12.957 19.3249 14.3195 20.6874 16.007 20.6874C17.6945 20.6874 19.057 19.3249 19.057 17.6374C19.057 15.9499 17.6945 14.5874 16.007 14.5874Z" fill="#8BE27C"></path></g><g id="Vector_4" style="mix-blend-mode: multiply;"><path d="M15.991 7.3374C12.3785 7.3374 9.20354 9.1874 7.36604 11.9999C6.72854 12.9749 7.16603 14.2874 8.25353 14.6999C9.02853 14.9874 9.92853 14.7374 10.3785 14.0374C11.566 12.1874 13.641 10.9624 15.991 10.9624C18.341 10.9624 20.4285 12.1874 21.616 14.0374C22.066 14.7374 22.966 14.9874 23.741 14.6999C24.8285 14.2874 25.266 12.9749 24.6285 11.9999C22.791 9.1874 19.6035 7.3374 15.991 7.3374Z" fill="#8BE27C"></path></g></g></svg>