<svg width="24" height="32" viewBox="0 0 24 32" fill="none" xmlns="http://www.w3.org/2000/svg" class="navIcon vertical"><g id="g1" style="mix-blend-mode: multiply;"><path d="M20.7359 4.1376L17.7984 1.2001C17.5734 0.975097 17.2734 0.850098 16.9609 0.850098H4.07344C3.42344 0.850098 2.89844 1.3751 2.89844 2.0251V21.6493C3.64844 21.6243 4.06094 21.2243 4.36094 20.9243C4.63594 20.6618 4.78594 20.5368 5.11094 20.5368C5.43594 20.5368 5.58594 20.6618 5.86094 20.9243C6.16094 21.2368 6.58594 21.6493 7.38594 21.6493C8.18594 21.6493 8.61094 21.2368 8.91094 20.9243C9.18594 20.6618 9.33594 20.5368 9.66094 20.5368C9.98594 20.5368 10.1359 20.6618 10.4109 20.9243C10.7234 21.2368 11.1484 21.6493 11.9484 21.6493C12.7484 21.6493 13.1734 21.2368 13.4734 20.9243C13.7484 20.6618 13.8984 20.5368 14.2234 20.5368C14.5484 20.5368 14.7109 20.6618 14.9859 20.9243C15.2859 21.2368 15.7109 21.6493 16.5109 21.6493C17.3109 21.6493 17.7359 21.2368 18.0484 20.9243C18.3234 20.6618 18.4734 20.5368 18.7984 20.5368C19.1234 20.5368 19.2734 20.6618 19.5484 20.9243C19.8609 21.2368 20.2859 21.6493 21.0859 21.6493V4.9751C21.0859 4.6626 20.9609 4.3626 20.7359 4.1376ZM15.0234 16.6001H6.53594V15.4001H15.0234V16.6001ZM17.4609 11.7626H6.53594V10.5501H17.4609V11.7626ZM17.4609 6.9126H6.53594V5.7001H17.4609V6.9126Z" fill="#8BE27C"></path></g><g id="g2" style="mix-blend-mode: multiply;"><path d="M12.0008 31.15C18.359 31.15 23.5133 25.9957 23.5133 19.6375C23.5133 13.2793 18.359 8.125 12.0008 8.125C5.6426 8.125 0.488281 13.2793 0.488281 19.6375C0.488281 25.9957 5.6426 31.15 12.0008 31.15Z" fill="#FAC394"></path></g></svg>