<svg width="40" height="40" viewBox="0 0 40 40" fill="none" xmlns="http://www.w3.org/2000/svg" class="navIcon horizontal"><g id="g1" style="mix-blend-mode: multiply;"><path d="M5.75156 9.40002L13.3391 7.50002C14.5391 7.20002 15.7891 7.20002 16.9891 7.50002L24.5766 9.40002C25.1016 9.51252 25.4766 9.97502 25.4766 10.5125V22.6875C25.4766 24.9875 24.3266 27.125 22.4141 28.4L16.5516 32.3C15.7141 32.8625 14.6141 32.8625 13.7766 32.3L7.91406 28.4C6.00156 27.125 4.85156 24.9875 4.85156 22.6875V10.5125C4.85156 9.97502 5.22656 9.51252 5.75156 9.40002Z" fill="#8BE27C"></path></g><g id="g2" style="mix-blend-mode: multiply;"><path d="M29.8125 11.075C32.7625 11.075 35.15 13.5 35.15 16.8875C35.15 23.675 27.875 27.5499 25.45 29.0125C23.025 27.5625 15.75 23.675 15.75 16.8875C15.75 13.4875 18.175 11.075 21.0875 11.075C22.8875 11.075 24.4875 12.05 25.45 13.0125C26.425 12.0375 28.0125 11.075 29.8125 11.075Z" fill="#FAC394"></path></g></svg>