<svg width="96" height="112" viewBox="0 0 96 112" fill="none" xmlns="http://www.w3.org/2000/svg">
<g clip-path="url(#clip0_1895_16523)">
<rect x="4.5" y="12" width="88" height="88" rx="44" fill="white"/>
<path fill-rule="evenodd" clip-rule="evenodd" d="M94.559 43.5928C95.0082 43.6421 95.3332 44.0536 95.2847 44.5117C93.634 60.1318 87.3571 74.8138 78.4612 85.9148C69.5706 97.0091 58.0097 104.589 45.77 105.863L45.692 105.083L45.77 105.863C32.4033 107.254 24.9089 102.634 20.7821 97.5361C18.7364 95.0088 17.5446 92.3967 16.8637 90.4185C16.5228 89.4283 16.3087 88.5932 16.1791 88.0012C16.1143 87.7051 16.0706 87.4694 16.0428 87.3051C16.0288 87.223 16.0189 87.1586 16.0122 87.1134C16.0089 87.0908 16.0064 87.073 16.0046 87.0602L16.0025 87.0447L16.0019 87.0397L16.0016 87.038C16.0016 87.0373 16.0015 87.0367 16.8128 86.9297L16.0015 87.0367C15.9435 86.5797 16.2598 86.1613 16.7079 86.1022C17.1556 86.0431 17.5656 86.3651 17.6241 86.8216C17.6241 86.8217 17.6241 86.8217 17.6241 86.8218L17.6241 86.8222L17.6242 86.8226L17.6251 86.8293C17.6261 86.8365 17.6278 86.8485 17.6302 86.8652C17.6352 86.8987 17.6432 86.951 17.6551 87.0208C17.6787 87.1603 17.7174 87.3695 17.7761 87.6378C17.8935 88.1744 18.0908 88.9455 18.4075 89.8658C19.0418 91.7085 20.1501 94.1341 22.044 96.4737C25.7964 101.11 32.739 105.542 45.6039 104.203C57.2942 102.986 68.4919 95.7183 77.1943 84.8587C85.8913 74.0059 92.0416 59.6279 93.6579 44.3329C93.7063 43.8748 94.1098 43.5434 94.559 43.5928Z" fill="#383838"/>
</g>
<path d="M15.5498 32.6504H13.24V40.367H15.5498V32.6504Z" fill="white"/>
<path d="M16.9487 41.8199V81.4833H12.884C5.93959 81.4833 0.30957 75.7414 0.30957 68.659V54.5886C0.30957 52.5986 0.754081 50.7129 1.54766 49.0317C2.81028 46.3589 4.95512 44.2006 7.59628 42.9518C9.20388 42.1898 10.9956 41.7656 12.884 41.7656H15.8947L16.9487 41.8199Z" fill="#815015"/>
<path d="M68.9674 85.2441H74.6533V86.123C74.6533 86.4443 74.397 86.7057 74.082 86.7057H69.5374C69.2224 86.7057 68.9661 86.4443 68.9661 86.123V85.2441H68.9674Z" fill="#815015"/>
<path d="M45.77 105.863C58.0097 104.589 69.5706 97.0095 78.4612 85.9152C79.7318 84.3297 80.9489 82.6712 82.1068 80.9473H80.1128C79.1762 82.2959 78.2024 83.6012 77.1943 84.8592C68.4919 95.7187 57.2942 102.987 45.6039 104.203C32.739 105.542 25.7964 101.11 22.044 96.4742C20.1501 94.1345 19.0418 91.7089 18.4075 89.8662C18.0908 88.946 17.8935 88.1749 17.7761 87.6382C17.7174 87.37 17.6787 87.1608 17.6551 87.0212C17.6432 86.9515 17.6352 86.8992 17.6302 86.8657L17.6251 86.8298L17.6242 86.8231L17.6241 86.822C17.5656 86.3656 17.1556 86.0435 16.7079 86.1026C16.2598 86.1617 15.9435 86.5801 16.0015 87.0372L16.8092 86.9306C16.0015 87.0372 16.0016 87.0384 16.0016 87.0384L16.0019 87.0402L16.0025 87.0451L16.0046 87.0606C16.0064 87.0735 16.0089 87.0913 16.0122 87.1139C16.0189 87.1591 16.0288 87.2234 16.0428 87.3056C16.0706 87.4699 16.1143 87.7056 16.1791 88.0017C16.3087 88.5936 16.5228 89.4288 16.8637 90.419C17.5446 92.3972 18.7364 95.0092 20.7821 97.5366C24.9089 102.635 32.4033 107.254 45.77 105.863Z" fill="#383838"/>
<path d="M20.8933 39.8014V83.5061H15.3315C11.0704 83.5061 7.37254 81.053 5.51951 77.4569C4.71093 75.8882 4.25415 74.1026 4.25415 72.2086V51.0377C4.25415 50.4606 4.29642 49.8946 4.37959 49.3411C4.43822 48.9323 4.52004 48.5318 4.62231 48.1396C5.80449 43.5825 9.70827 40.156 14.452 39.7764C14.7424 39.7528 15.0356 39.7402 15.3315 39.7402H19.8393L20.8933 39.8014Z" fill="#B08A5D"/>
<path d="M17.3058 83.0965C17.3263 83.1869 14.5665 83.0909 14.3184 83.0548C13.3175 82.9088 12.3371 82.6306 11.4059 82.2274C9.58009 81.4375 7.88113 80.14 6.73031 78.481C6.32807 77.8997 6.02537 77.2336 5.74584 76.5856C5.59722 76.2407 4.67138 73.7334 5.40223 73.7501C5.56313 73.7543 5.70085 73.878 5.7813 74.0199C5.86174 74.1617 5.90265 74.323 5.96673 74.4746C6.21762 75.0642 6.80803 75.4397 7.0971 76.0112C7.35617 76.523 7.34799 77.139 7.58797 77.6605C7.85932 78.2502 8.42245 78.652 9.01558 78.8954C9.60872 79.1388 10.2428 79.2514 10.8577 79.4308C11.7876 79.7006 12.6726 80.1275 13.4689 80.6851C14.2652 81.2428 15.0587 81.774 15.851 82.3372C16.0187 82.4554 16.1878 82.5792 16.3814 82.6418C16.5545 82.6974 16.74 82.7002 16.9145 82.7502C17.089 82.8003 17.2636 82.9157 17.3058 83.0965Z" fill="#A97332"/>
<path d="M14.6431 83.5H18.9818V84.18C18.9818 84.4123 18.7964 84.6014 18.5687 84.6014H15.0562C14.8285 84.6014 14.6431 84.4123 14.6431 84.18V83.5Z" fill="#815015"/>
<path d="M15.1897 84.5996H18.4335V86.6939C18.4335 87.0652 18.1376 87.3656 17.7749 87.3656H15.8483C15.4842 87.3656 15.1897 87.0638 15.1897 86.6939V84.5996Z" fill="#A97332"/>
<path d="M76.1653 85.0352L75.6104 85.2882C75.4836 85.3453 75.3527 85.4009 75.219 85.4496C74.8809 85.3314 74.5591 85.1951 74.2537 85.0352H76.1653Z" fill="#815015"/>
<path d="M73.3061 88.1966V88.3843L73.2147 89.8737C73.1615 90.7344 73.0579 91.5855 72.9038 92.4213C72.0939 96.8212 69.9095 100.818 66.6084 103.868C66.3943 104.065 66.1775 104.258 65.9566 104.445C65.7044 104.659 65.4494 104.865 65.189 105.063C62.0665 107.468 58.3631 108.879 54.4689 109.155C53.9985 109.188 53.5253 109.205 53.0508 109.205C53.0481 109.203 53.0454 109.203 53.044 109.205C52.7972 109.205 52.5491 109.201 52.3009 109.191L51.6491 109.167H51.6464L51.0314 109.144H51.0233C50.4547 109.123 49.8847 109.1 49.3148 109.08C47.8503 109.025 46.3859 108.971 44.9228 108.917L39.1483 108.703C38.9478 108.696 38.7583 108.649 38.5865 108.569C38.0466 108.322 37.6798 107.759 37.7029 107.119C37.7343 106.273 38.4256 105.617 39.2574 105.645L48.7162 105.995L52.41 106.133C56.9219 106.301 61.2484 104.691 64.5945 101.601C66.0794 100.23 67.2984 98.6332 68.2201 96.881C69.1337 95.1427 69.7541 93.2529 70.0513 91.2726C70.1318 90.7484 70.1877 90.2171 70.2204 89.6817L70.3036 88.3287L70.3118 88.1938C70.3636 87.3497 71.0767 86.71 71.903 86.7628C72.5616 86.8059 73.0947 87.2746 73.257 87.8892C73.2829 87.988 73.3006 88.0909 73.3061 88.1966Z" fill="#E4E7EC"/>
<path d="M73.306 87.8828V88.3848L73.2147 89.8742C73.1615 90.735 73.0579 91.5861 72.9038 92.4218L70.0513 91.2732C70.1317 90.7489 70.1876 90.2177 70.2203 89.6823L70.3035 88.3292L73.2569 87.8898L73.306 87.8828Z" fill="#B7BBC3"/>
<path d="M75.1755 85.4343C75.1891 85.4399 75.2041 85.444 75.2177 85.4496C75.2041 85.4552 75.1905 85.4607 75.1755 85.4649C75.0677 85.5052 74.9573 85.5428 74.8455 85.5789C72.7566 86.2381 70.0172 86.0948 68.0033 85.1353C67.8819 85.0783 67.7633 85.0185 67.6474 84.9545C67.4061 84.8224 67.177 84.675 66.9629 84.5165C66.2525 83.988 65.7044 83.2997 65.2721 82.5237C64.6286 81.3667 64.244 80.0164 63.9618 78.7064C63.7054 77.5161 63.505 76.3173 63.3441 75.1117C62.7782 70.8063 62.7564 66.4216 62.7387 62.0676C62.7196 57.7552 62.7073 53.4123 63.3987 49.1459C63.4205 49.0068 63.4437 48.865 63.4682 48.7231C63.8459 46.4564 64.3858 43.7906 65.5926 41.681C66.1721 40.6672 66.9057 39.7828 67.8492 39.1333C67.9228 39.0819 67.9978 39.0332 68.0742 38.9859C68.216 38.8969 68.3646 38.8149 68.516 38.737C70.5122 37.7232 73.3579 37.5995 75.4345 38.5256C75.1209 38.655 74.8237 38.8038 74.5469 38.9734C74.4637 39.0249 74.3819 39.0777 74.3028 39.1333C73.786 39.488 73.3333 39.9121 72.9338 40.3919C72.8725 40.4642 72.8125 40.5393 72.7552 40.6144C72.7116 40.67 72.6693 40.7256 72.6284 40.7826C72.6284 40.7826 72.627 40.7826 72.627 40.784C72.5943 40.8271 72.5629 40.873 72.5316 40.9175C72.4798 40.9898 72.4293 41.0635 72.3802 41.1372C72.3052 41.2485 72.2343 41.3625 72.1648 41.4779C72.0952 41.5934 72.0271 41.7102 71.9616 41.8298C71.918 41.9076 71.8757 41.9883 71.8334 42.069C71.7912 42.1496 71.7503 42.2317 71.7107 42.3137C71.6821 42.3707 71.6548 42.4291 71.6276 42.4875C71.573 42.6002 71.5226 42.7142 71.4721 42.8282C71.438 42.9075 71.4039 42.9868 71.3712 43.0674C71.3453 43.13 71.3194 43.1926 71.2949 43.2552C71.2703 43.3163 71.2471 43.3775 71.224 43.4387C71.1912 43.5249 71.1585 43.6112 71.1271 43.6988C71.0685 43.8587 71.0126 44.02 70.9608 44.1827C70.939 44.2481 70.9172 44.312 70.8967 44.3774C70.7835 44.7348 70.6813 45.0964 70.5872 45.4579C70.5395 45.6387 70.4958 45.8181 70.4536 45.9989C70.3895 46.27 70.3295 46.5412 70.2736 46.8096C70.2545 46.8986 70.2367 46.989 70.219 47.078C70.1822 47.256 70.1481 47.434 70.1154 47.6092C70.099 47.6968 70.0827 47.7844 70.0677 47.872C70.0513 47.9597 70.0363 48.0473 70.0213 48.1335C70.005 48.2197 69.99 48.3059 69.9763 48.3907C69.9327 48.6466 69.8904 48.8997 69.8509 49.1459C69.7841 49.5533 69.7254 49.9622 69.6709 50.371C69.6586 50.4711 69.6463 50.5713 69.6341 50.6714C69.6095 50.8661 69.5863 51.0594 69.5645 51.2541C69.5209 51.6434 69.4827 52.0328 69.4473 52.4236C69.4309 52.6183 69.4145 52.8129 69.3995 53.009C69.3696 53.3984 69.3423 53.7892 69.3205 54.1813C69.3123 54.3148 69.3055 54.4483 69.2986 54.5818C69.2946 54.643 69.2918 54.7056 69.2891 54.7682C69.27 55.1506 69.255 55.5344 69.2427 55.9182C69.2209 56.5565 69.2059 57.1962 69.1977 57.8359C69.1964 57.9541 69.195 58.0737 69.1937 58.1933C69.1787 59.4852 69.1841 60.7771 69.1896 62.0676C69.1923 62.5376 69.1936 63.0076 69.1964 63.4791C69.1991 63.8796 69.2018 64.2815 69.2059 64.6833C69.2059 64.8572 69.2087 65.0324 69.2114 65.2062C69.2127 65.3814 69.2155 65.5553 69.2182 65.7305C69.2223 66.0267 69.2264 66.3243 69.2332 66.6205C69.2468 67.37 69.2673 68.1196 69.2973 68.8691C69.3041 69.043 69.3109 69.2168 69.3191 69.3906C69.3341 69.7397 69.3518 70.0887 69.3709 70.4364C69.3805 70.6102 69.3914 70.7826 69.4023 70.9565C69.4105 71.0927 69.42 71.2276 69.4295 71.3639C69.4555 71.7491 69.4841 72.1343 69.5182 72.5181C69.5264 72.6211 69.5345 72.7226 69.5454 72.8241C69.5577 72.9729 69.5727 73.1231 69.5877 73.2719C69.5904 73.3122 69.5945 73.3525 69.5986 73.3928C69.615 73.5556 69.6313 73.7197 69.6504 73.8837C69.6532 73.9199 69.6573 73.9561 69.6613 73.9922C69.6832 74.1869 69.7063 74.383 69.7309 74.5777C69.7486 74.7223 69.7663 74.8669 69.7854 75.0115C69.8113 75.2132 69.8372 75.4148 69.8659 75.6151C70.0131 76.6511 70.1931 77.6815 70.414 78.7064C70.4345 78.8038 70.4563 78.9025 70.4795 79.0013C70.4972 79.0791 70.5149 79.157 70.534 79.2349C70.5763 79.4157 70.6213 79.5978 70.6704 79.7786C70.684 79.8328 70.699 79.8871 70.714 79.9413C70.7508 80.079 70.7903 80.2153 70.8326 80.3515C70.8517 80.4169 70.8722 80.4823 70.8926 80.5476C70.9499 80.7284 71.0112 80.9092 71.0767 81.0872C71.1081 81.1734 71.1394 81.2582 71.1735 81.3431C71.2049 81.4237 71.2376 81.5044 71.2703 81.5836C71.288 81.6254 71.3058 81.6685 71.3249 81.7088C71.3562 81.7853 71.3903 81.8618 71.4258 81.9369C71.4626 82.0161 71.4994 82.094 71.5389 82.1719C71.5771 82.2511 71.618 82.329 71.6603 82.4069C71.708 82.4973 71.7585 82.5863 71.8103 82.6753C71.828 82.7073 71.8471 82.7393 71.8675 82.7712C71.8948 82.8171 71.9221 82.8616 71.9507 82.9061C71.9657 82.9298 71.9821 82.9548 71.9984 82.9784C72.0448 83.0508 72.0925 83.1231 72.143 83.194C72.188 83.2566 72.233 83.3192 72.2793 83.3803C72.3257 83.4415 72.372 83.5013 72.4211 83.5597C72.4661 83.6167 72.5138 83.6724 72.5629 83.7266C72.5697 83.7349 72.5779 83.7447 72.5861 83.753C72.6175 83.7892 72.6502 83.8253 72.6829 83.8601C72.7116 83.8907 72.7388 83.9199 72.7688 83.9491C72.7893 83.9714 72.8125 83.995 72.8356 84.0159C72.8506 84.0298 72.8643 84.0451 72.8779 84.059C72.8929 84.0743 72.9079 84.0882 72.9215 84.1007C72.9434 84.1215 72.9652 84.1424 72.987 84.1605C73.017 84.1897 73.047 84.2175 73.077 84.2425C73.1274 84.287 73.1792 84.3315 73.2311 84.3732C73.2897 84.4219 73.3511 84.4706 73.4138 84.5165C73.516 84.593 73.6224 84.6667 73.7328 84.7348C73.7492 84.7445 73.7642 84.7543 73.7806 84.7654C73.9306 84.8628 74.0887 84.9517 74.2523 85.0366C74.3028 85.063 74.3519 85.088 74.4037 85.1117C74.5319 85.1756 74.6628 85.234 74.7978 85.2897C74.8673 85.3189 74.9382 85.3467 75.0105 85.3745H75.0132C75.0664 85.3954 75.1209 85.4162 75.1755 85.4343Z" fill="#B08A5D"/>
<path d="M63.3987 49.1462C62.7074 53.4127 62.7196 57.7556 62.7387 62.0666C62.7565 66.4206 62.7796 70.8053 63.3455 75.112C63.505 76.3163 63.7068 77.5164 63.9618 78.7068C64.2441 80.0168 64.6286 81.3671 65.2722 82.5241C65.7044 83.3001 66.2512 83.9884 66.963 84.5169C67.177 84.6754 67.4061 84.8228 67.6474 84.9549C67.7633 85.0189 67.882 85.0787 68.002 85.1357C67.9692 85.1357 67.9365 85.1357 67.9038 85.1357C66.0098 85.1357 64.2018 84.6851 62.541 83.8661C62.5369 83.8661 62.5315 83.8619 62.526 83.8591C62.3133 83.7534 62.1047 83.6422 61.8974 83.5253C61.8934 83.5253 61.8893 83.5212 61.8838 83.5184C58.5104 81.4032 55.8925 74.6365 55.2298 66.162C55.1221 64.7922 55.0662 63.3765 55.0662 61.9303C55.0662 60.484 55.1221 59.067 55.2311 57.6944C55.902 49.1156 58.5759 42.2891 62.0106 40.2671C62.1538 40.1878 62.297 40.1127 62.4429 40.0404C64.1295 39.188 65.9717 38.7207 67.9024 38.7207C68.1083 38.7207 68.3115 38.7263 68.5146 38.7374C68.3633 38.8153 68.2147 38.8973 68.0715 38.9863C67.9951 39.035 67.9215 39.0823 67.8479 39.1337C66.9043 39.7845 66.1707 40.669 65.5899 41.6827C64.3832 43.7923 63.8446 46.4582 63.4655 48.7249C63.4423 48.8681 63.4178 49.01 63.396 49.1476L63.3987 49.1462Z" fill="#383838"/>
<path d="M73.6796 33.3287H73.3851C72.5547 33.3287 71.8675 32.6695 71.8198 31.824C71.0426 18.0443 59.6639 7.11254 45.7395 7.11254C31.8152 7.11254 20.6888 17.8065 19.6907 31.3707C19.6089 32.4762 18.7035 33.3287 17.6181 33.3287H13.8452C13.8452 16.2225 27.0333 2.2078 43.7624 0.96875C60.4929 2.2078 73.681 16.2225 73.681 33.3287H73.6796Z" fill="black"/>
<path d="M43.7612 0.968531C27.032 2.20758 13.844 16.2223 13.844 33.3284H12.9631C12.0605 33.3284 11.3501 32.5539 11.3964 31.6347C12.2541 14.8887 25.7639 1.49836 42.5163 0.900391C42.9335 0.915688 43.348 0.937937 43.7612 0.968531Z" fill="#868C98"/>
<path d="M76.3044 32.5918H73.9946V39.6923H76.3044V32.5918Z" fill="white"/>
<path d="M69.4365 86.7051H74.183V89.1428C74.183 89.5461 73.8612 89.8743 73.4658 89.8743H70.1537C69.7583 89.8743 69.4365 89.5461 69.4365 89.1428V86.7051Z" fill="#A97332"/>
<path d="M26.6365 82.7179C23.3627 83.8902 19.0771 83.9347 16.1387 81.8543C14.332 80.5763 13.1362 78.5794 12.2472 76.5282C10.2305 71.8765 9.50513 66.6798 9.50513 61.6234C9.50513 57.6031 9.97691 53.5328 11.1509 49.6849C12.1449 46.4308 13.7198 42.7554 16.7482 40.9837C19.6443 39.2886 23.5536 39.4902 26.6283 40.5262C26.1538 40.3663 25.667 40.2829 25.1721 40.2829C24.1167 40.2829 23.1009 40.6597 22.1505 41.3578C18.3163 44.1669 15.5497 52.1797 15.5497 61.6234C15.5497 71.0672 18.3163 79.08 22.1505 81.8891C23.1009 82.5872 24.1167 82.964 25.1721 82.964C25.6698 82.964 26.1593 82.8806 26.6365 82.7179Z" fill="#383838"/>
<path d="M34.7933 61.6238C34.7933 72.1202 31.3763 80.8478 26.8753 82.6306C26.7962 82.6612 26.7171 82.6904 26.6367 82.7182C26.1594 82.8809 25.6699 82.9644 25.1722 82.9644C24.1169 82.9644 23.101 82.5875 22.1507 81.8894C21.2044 81.1969 20.3249 80.1873 19.534 78.9176C19.5327 78.9176 19.5327 78.9162 19.5313 78.9148C17.1192 75.0378 15.5498 68.7368 15.5498 61.6238C15.5498 54.5107 17.1192 48.2098 19.5313 44.3327C19.5327 44.3313 19.5327 44.3299 19.534 44.3299C20.3249 43.0603 21.2044 42.0507 22.1507 41.3582C23.101 40.6601 24.1169 40.2832 25.1722 40.2832C25.6672 40.2832 26.154 40.3666 26.6285 40.5266C26.6312 40.528 26.6339 40.528 26.6367 40.5293C26.7171 40.5586 26.7962 40.5878 26.8753 40.617C26.8766 40.6183 26.878 40.6183 26.8794 40.6183C31.379 42.4053 34.7933 51.1301 34.7933 61.6238Z" fill="#383838"/>
<path d="M15.5498 61.6231C15.5498 64.5003 15.8007 67.3859 16.3598 70.2088C16.6052 71.4451 16.9106 72.6703 17.291 73.8718C17.6756 75.0872 18.1364 75.948 18.8223 76.9826C19.0691 77.3553 19.1264 77.8364 19.3922 78.1952C19.5081 78.3524 19.6609 78.4789 19.7768 78.636C19.8927 78.7932 19.9704 79.0004 19.9063 79.1867C18.6259 78.5707 18.1896 77.1175 17.5856 75.916C16.927 74.6074 16.4157 73.2251 16.0052 71.8164C15.0467 68.5192 14.6431 65.058 14.6431 61.6245C14.6431 59.6762 14.7781 57.7266 15.063 55.7992C15.3221 54.0581 15.7025 52.3323 16.2411 50.658C16.7088 49.2034 17.2951 47.7808 18.0533 46.4583C18.2032 46.1969 18.36 45.9396 18.525 45.6865C18.6041 45.5641 18.6873 45.4445 18.7691 45.3236C18.8577 45.1942 18.9805 45.0941 19.0418 44.9467C19.0827 44.8466 19.1114 44.7381 19.1673 44.6463C19.2859 44.453 19.5136 44.3557 19.6527 44.1777C19.669 44.1568 19.7099 44.1387 19.714 44.1666C19.714 44.1721 19.714 44.1763 19.7113 44.1818C19.6649 44.314 19.5436 44.403 19.4372 44.492C19.2723 44.6296 19.2559 44.7826 19.1632 44.9578C19.0814 45.1108 18.9955 45.261 18.915 45.4139C18.7487 45.731 18.5905 46.0536 18.4405 46.379C18.1201 47.0744 17.8365 47.7864 17.5828 48.5095C17.0156 50.1226 16.5929 51.7858 16.2793 53.4685C15.9289 55.3472 15.7134 57.2524 15.6153 59.1631C15.573 59.9836 15.5525 60.804 15.5525 61.6259L15.5498 61.6231Z" fill="#4D4D4D"/>
<path d="M30.3673 61.6238C30.3673 69.1235 28.4515 75.2033 26.0885 75.2033C25.1122 75.2033 24.2109 74.1631 23.491 72.4137C24.5136 69.9314 25.1722 66.0224 25.1722 61.6238C25.1722 57.2253 24.5136 53.3148 23.491 50.8326C24.2109 49.0832 25.1122 48.043 26.0885 48.043C28.4515 48.043 30.3673 54.1228 30.3673 61.6238Z" fill="#252525"/>
<path d="M25.1721 61.6233C25.1721 66.0219 24.5135 69.9309 23.4909 72.4132C22.4696 69.9309 21.811 66.0219 21.811 61.6233C21.811 57.2247 22.4696 53.3143 23.4909 50.832C24.5135 53.3143 25.1721 57.2247 25.1721 61.6233Z" fill="black"/>
<path d="M76.355 33.3298H73.6798C73.6798 16.2237 60.4917 2.20891 43.7612 0.969859C44.1471 0.940656 44.5344 0.919797 44.9243 0.9045H44.9352C45.347 0.889203 45.7602 0.880859 46.1747 0.880859C63.2665 0.880859 77.2604 14.1892 78.429 31.045C78.5149 32.2785 77.5659 33.3298 76.355 33.3298Z" fill="#4F555F"/>
<path d="M84.3466 46.0765V77.9358C84.3466 78.3697 84.3084 78.7938 84.2362 79.2055C84.0344 80.343 83.5667 81.3874 82.9013 82.269C81.9618 83.5123 80.6283 84.4287 79.0902 84.8222C78.5434 84.9627 77.9721 85.0378 77.3831 85.0378H74.2524C74.0711 84.9446 73.8979 84.8445 73.7329 84.736C73.6225 84.6679 73.5161 84.5942 73.4138 84.5177C71.6413 83.1966 70.8845 80.8951 70.4141 78.7076C69.2414 73.2633 69.2128 67.6424 69.1896 62.0688C69.1705 57.7564 69.1583 53.4135 69.8509 49.1471C70.3104 46.313 70.9854 42.7237 72.9339 40.3931C73.3334 39.9133 73.7861 39.4891 74.3029 39.1345C74.3819 39.0789 74.4638 39.0261 74.5469 38.9746H77.3831C79.6315 38.9746 81.6277 40.0593 82.9013 41.7434C83.808 42.9421 84.3466 44.444 84.3466 46.0765Z" fill="#A97332"/>
<path d="M75.1783 85.4564C75.1783 85.4564 75.1769 85.4633 75.1756 85.4661C75.0678 85.5064 74.9574 85.544 74.8456 85.5801C74.776 85.5704 74.7079 85.5467 74.6424 85.5231C74.0929 85.3284 73.6239 85.0392 73.1316 84.736C73.0212 84.6679 72.9162 84.5942 72.8139 84.5177C71.04 83.1966 70.2832 80.8951 69.8128 78.7076C68.6415 73.2633 68.6115 67.6424 68.5883 62.0688C68.5706 57.7564 68.557 53.4135 69.2497 49.1471C69.7092 46.313 70.3841 42.7237 72.3326 40.3931C72.7321 39.9133 73.1848 39.4891 73.7016 39.1345C73.7807 39.0789 73.8625 39.0261 73.9456 38.9746H74.547C74.4638 39.0261 74.382 39.0789 74.3029 39.1345C73.7861 39.4891 73.3334 39.9133 72.9339 40.3931C72.8726 40.4654 72.8139 40.5405 72.7553 40.6156C72.7117 40.6712 72.6694 40.7268 72.6285 40.7838C72.6285 40.7838 72.6271 40.7838 72.6271 40.7852C72.5944 40.8297 72.5617 40.8742 72.5317 40.9187C72.4785 40.991 72.4294 41.0633 72.3803 41.1384C72.3053 41.2497 72.2344 41.3637 72.1649 41.4791C72.0953 41.5946 72.0272 41.7114 71.9617 41.831C71.9181 41.9088 71.8758 41.9895 71.8335 42.0701C71.7913 42.1508 71.7504 42.2329 71.7108 42.3149C71.6822 42.3719 71.6536 42.4303 71.6276 42.4887C71.5731 42.6014 71.5227 42.7154 71.4722 42.8294C71.4381 42.9087 71.404 42.988 71.3713 43.0686C71.3454 43.1312 71.3195 43.1938 71.2949 43.2564C71.2704 43.3175 71.2472 43.3787 71.224 43.4399C71.1913 43.5261 71.1586 43.6124 71.1272 43.7C71.0686 43.8599 71.0127 44.0212 70.9609 44.1839C70.9391 44.2493 70.9173 44.3132 70.8968 44.3786C70.7836 44.736 70.6814 45.0975 70.5873 45.4591C70.5395 45.6399 70.4959 45.8193 70.4536 46.0001C70.3896 46.2712 70.3296 46.5424 70.2737 46.8108C70.2546 46.9012 70.2355 46.9902 70.2191 47.0792C70.1823 47.2572 70.1482 47.4352 70.1155 47.6104C70.0991 47.698 70.0828 47.7856 70.0678 47.8732C70.0514 47.9609 70.0364 48.0485 70.0214 48.1347C70.0051 48.2209 69.99 48.3071 69.9764 48.3919C69.9328 48.6478 69.8905 48.9009 69.851 49.1471C69.7842 49.5545 69.7255 49.9634 69.671 50.3722C69.6328 50.6656 69.596 50.9604 69.5646 51.2552C69.5196 51.6446 69.4815 52.034 69.4474 52.4248C69.4296 52.6195 69.4133 52.8141 69.3996 53.0102C69.3683 53.401 69.3424 53.7918 69.3206 54.1825C69.3124 54.316 69.3056 54.4495 69.2987 54.583C69.2946 54.6442 69.2919 54.7068 69.2892 54.7694C69.2701 55.1518 69.2551 55.5356 69.2428 55.9194C69.221 56.5577 69.206 57.1974 69.1978 57.8371C69.1965 57.9553 69.1951 58.0749 69.1937 58.1945C69.1788 59.4864 69.1842 60.7783 69.1897 62.0688C69.1924 62.5388 69.1937 63.0088 69.1965 63.4803C69.1992 63.8808 69.2019 64.2826 69.206 64.6845C69.2074 64.8584 69.2087 65.0336 69.2115 65.2074C69.2128 65.3826 69.2156 65.5565 69.2183 65.7317C69.2224 66.0279 69.2265 66.3255 69.2333 66.6217C69.2469 67.3712 69.2674 68.1208 69.2974 68.8703C69.3042 69.0442 69.311 69.218 69.3192 69.3918C69.3342 69.7409 69.3519 70.0899 69.371 70.4376C69.3806 70.6114 69.3915 70.7838 69.4024 70.9577C69.4105 71.0939 69.4201 71.2288 69.4296 71.3651C69.4555 71.7503 69.4842 72.1355 69.5183 72.5193C69.5265 72.6222 69.5346 72.7238 69.5455 72.8253C69.5578 72.9741 69.5728 73.1243 69.5878 73.2731C69.5905 73.3134 69.5946 73.3537 69.5987 73.394C69.6151 73.5581 69.6328 73.7208 69.6505 73.8849C69.6533 73.9211 69.6573 73.9572 69.6614 73.9934C69.7214 74.5358 69.7896 75.0767 69.866 75.6163C70.0132 76.6523 70.1932 77.6827 70.4141 78.7076C70.4346 78.805 70.4564 78.9037 70.4796 79.0025C70.4973 79.0803 70.515 79.1582 70.5341 79.2361C70.5764 79.4169 70.6214 79.599 70.6705 79.7798C70.6841 79.834 70.6991 79.8883 70.7141 79.9425C70.7509 80.0802 70.7904 80.2165 70.8327 80.3527C70.8518 80.4181 70.8722 80.4835 70.8927 80.5488C70.95 80.7296 71.0113 80.9104 71.0768 81.0884C71.1081 81.1746 71.1395 81.2594 71.1736 81.3443C71.205 81.4249 71.2377 81.5056 71.2704 81.5849C71.2881 81.6266 71.3059 81.6697 71.3249 81.71C71.3563 81.7865 71.3904 81.863 71.4258 81.9381C71.4627 82.0173 71.4995 82.0952 71.539 82.1731C71.5772 82.2523 71.6181 82.3302 71.6604 82.4081C71.7081 82.4985 71.7585 82.5875 71.8104 82.6765C71.8281 82.7085 71.8472 82.7405 71.8676 82.7724C71.8949 82.8183 71.9222 82.8628 71.9508 82.9073C71.9658 82.931 71.9822 82.956 71.9985 82.9796C72.0449 83.052 72.0926 83.1243 72.1431 83.1952C72.1881 83.2578 72.2331 83.3204 72.2794 83.3815C72.3258 83.4427 72.3721 83.5025 72.4212 83.5609C72.4662 83.6179 72.5139 83.6736 72.563 83.7278C72.5698 83.7361 72.578 83.7459 72.5862 83.7542C72.6176 83.7904 72.6503 83.8265 72.683 83.8613C72.7117 83.8919 72.7389 83.9211 72.7689 83.9503C72.7894 83.9726 72.8126 83.9962 72.8357 84.0171C72.8507 84.031 72.8644 84.0463 72.878 84.0602C72.893 84.0755 72.908 84.0894 72.9216 84.1019C72.9435 84.1227 72.9653 84.1436 72.9871 84.1617C73.0171 84.1909 73.0471 84.2173 73.0771 84.2437C73.1275 84.2882 73.1793 84.3327 73.2312 84.3744C73.2912 84.4245 73.3512 84.4718 73.4139 84.5177C73.5161 84.5942 73.6225 84.6679 73.7329 84.736C73.7493 84.7457 73.7643 84.7555 73.7807 84.7666C73.8897 84.8389 73.9961 84.9265 74.1079 84.9891C74.2006 85.0406 74.3015 85.0767 74.4038 85.1129C74.532 85.1768 74.6629 85.2352 74.7979 85.2909C74.866 85.327 74.9369 85.359 75.0106 85.3757H75.0133C75.0665 85.3966 75.121 85.4174 75.1756 85.4355C75.1783 85.4425 75.1783 85.4494 75.1783 85.4564Z" fill="#DFC4A4"/>
<path d="M5.56603 47.9889C5.46649 48.4255 5.31241 48.8538 5.28105 49.3002C5.26333 49.5533 5.28514 49.8147 5.20742 50.0567C5.07379 50.4767 4.6811 50.7409 4.38521 51.0635C4.29658 51.1595 4.20796 51.2693 4.08115 51.2985C3.80162 51.3639 3.608 51.0037 3.60664 50.7103C3.60527 50.4169 3.68163 50.0943 3.51664 49.8551C3.38711 49.6659 3.14576 49.595 2.92078 49.57C2.6958 49.545 2.46263 49.5519 2.25401 49.4629C1.12228 48.9832 2.26901 47.6746 2.66444 47.1128C3.08577 46.5148 3.55891 45.953 4.07433 45.4357C4.58974 44.9183 5.15015 44.4483 5.74465 44.0283C6.04326 43.8184 6.35006 43.6209 6.6664 43.4373C6.92956 43.2844 7.38498 43.1592 7.59633 42.9492C6.99637 43.5458 6.46323 44.2119 6.00918 44.9309C5.77056 45.3091 5.58512 45.5024 5.55648 45.9558C5.52512 46.4661 5.68057 46.9737 5.64375 47.4868C5.63148 47.6551 5.60284 47.822 5.56466 47.9861L5.56603 47.9889Z" fill="#A97332"/>
<path opacity="0.64" d="M15.6028 40.9003C15.4078 41.2173 15.0247 41.1756 14.7233 41.2938C14.422 41.412 14.1288 41.6011 13.837 41.7597C13.2139 42.0976 12.573 42.5537 12.3822 43.288C12.254 43.7803 12.3576 44.3045 12.2853 44.8093C12.0495 46.4628 10.1051 47.3069 9.52283 48.8686C9.32239 49.4053 9.29921 49.9894 9.24194 50.5596C9.17649 51.2187 9.06332 51.8723 8.90515 52.5134C8.73334 53.2101 8.48927 53.9235 7.98068 54.4213C7.49935 54.8928 6.7985 55.1222 6.13718 55.0235C5.15681 54.8775 4.25415 54.0375 4.25415 53.0391C4.25415 52.3716 4.25415 51.7054 4.25415 51.0379C4.25415 50.4608 4.29642 49.8948 4.37959 49.3414C4.51595 48.9548 4.58413 48.5501 4.62231 48.1399C4.88683 45.8426 6.84622 43.4479 8.56427 42.0934C9.68372 41.2118 10.9668 40.5081 12.3331 40.1257C12.8553 39.9797 16.5627 39.3372 15.6014 40.9003H15.6028Z" fill="#DFC4A4"/>
<g clip-path="url(#clip1_1895_16523)">
<path d="M81.0333 43.1649C80.4428 43.7593 79.4528 43.6539 78.7251 44.0766C77.6019 44.7273 77.4324 46.3532 76.7518 47.5116C76.3617 48.1767 75.7887 48.6975 75.3623 49.3366C73.8356 51.6276 74.4947 54.7539 74.3723 57.5671C74.336 58.3995 74.0064 60.5101 72.8254 60.021C71.861 59.6214 72.0304 57.153 72.013 56.3278C71.9484 53.3198 72.3721 50.3292 72.6102 47.3385C72.7837 45.1457 73.0352 42.7667 74.4651 41.1884C75.2923 40.2752 76.4438 39.7486 77.6248 39.6678C78.873 39.5813 82.8492 40.9893 81.114 43.0769C81.0884 43.1086 81.0615 43.1375 81.0333 43.1663V43.1649Z" fill="#B58750"/>
</g>
<path d="M67.5055 99.3835C67.3528 99.5587 67.1755 99.7242 67.0501 99.9022C66.8156 100.233 66.5715 100.557 66.3111 100.867C65.7943 101.482 65.2148 102.035 64.5835 102.525C63.7313 103.185 62.8763 103.849 61.9478 104.393C59.1539 106.028 55.8514 106.488 52.6335 106.65C52.0581 106.679 51.4799 106.7 50.9113 106.609C50.1614 106.491 49.4496 106.185 48.7161 105.995L52.4099 106.132C56.9218 106.3 61.2483 104.69 64.5944 101.6C65.4534 100.808 66.2347 99.9273 66.9219 98.9761C67.2423 98.5325 67.5055 98.0513 67.7973 97.5882C67.875 97.4658 68.6863 96.4924 68.6904 96.516C68.8159 97.2976 68.1941 97.7106 67.9446 98.4143C67.8791 98.5964 67.8464 98.7897 67.7768 98.9705C67.7209 99.1179 67.62 99.2528 67.5069 99.3821L67.5055 99.3835Z" fill="white"/>
<path d="M65.189 105.064C62.0665 107.469 58.3632 108.88 54.4689 109.156C53.9985 109.189 53.5254 109.206 53.0509 109.206C53.0481 109.204 53.0454 109.204 53.0441 109.206C52.7973 109.206 52.5491 109.202 52.3009 109.192L51.6492 109.168H51.6464C51.4624 109.121 51.2224 109.15 51.0315 109.145H51.0233C50.4547 109.124 49.8848 109.101 49.3148 109.081C47.8504 109.026 46.3859 108.972 44.9229 108.918C42.9976 108.847 41.0736 108.77 39.1483 108.704C38.9479 108.697 38.7584 108.649 38.5865 108.57C38.4175 108.227 38.3316 107.848 38.367 107.467C38.5116 105.921 40.2732 105.49 41.5181 105.879C42.414 106.16 43.2021 106.785 44.0761 107.143C45.0906 107.559 46.1555 107.847 47.2395 107.993C48.284 108.134 49.3393 108.146 50.3934 108.157C51.7651 108.171 53.1368 108.186 54.5085 108.202C55.6661 108.214 56.8374 108.224 57.9609 107.943C58.76 107.743 59.5181 107.399 60.2735 107.066C61.8934 106.354 63.5337 105.686 65.189 105.064Z" fill="#B7BBC3"/>
<path d="M41.3477 106.697C41.3477 108.051 40.8214 109.279 39.9637 110.179L39.9569 110.186C39.7974 110.354 39.6256 110.511 39.4429 110.654C39.3174 110.754 39.1865 110.848 39.0515 110.932C38.9697 110.985 38.8866 111.037 38.802 111.084C38.7284 111.126 38.6534 111.165 38.577 111.201C38.517 111.231 38.457 111.259 38.3957 111.286C38.3425 111.309 38.2893 111.332 38.2361 111.352C38.1925 111.37 38.1475 111.389 38.1025 111.404C38.0534 111.422 38.0057 111.439 37.9566 111.455C37.9075 111.471 37.8585 111.486 37.8107 111.501C37.7616 111.515 37.7112 111.529 37.6621 111.542C37.5626 111.568 37.463 111.59 37.3621 111.61C37.3117 111.619 37.2612 111.628 37.2108 111.636C37.1576 111.644 37.1031 111.653 37.0499 111.66C37.0022 111.665 36.9544 111.671 36.9067 111.675C36.8044 111.685 36.7022 111.692 36.5999 111.694C36.5481 111.696 36.4977 111.697 36.4458 111.697C36.394 111.697 36.3408 111.696 36.2877 111.694C36.2536 111.693 36.2181 111.692 36.184 111.69C36.1404 111.688 36.0968 111.685 36.0545 111.681C36.0109 111.678 35.9672 111.674 35.9236 111.668C35.8813 111.664 35.8391 111.658 35.7954 111.653C34.7769 111.516 33.8579 111.059 33.1366 110.386C33.1352 110.383 33.1325 110.382 33.1297 110.38C33.067 110.322 33.007 110.262 32.9497 110.201C32.9157 110.166 32.8816 110.13 32.8461 110.092C32.8243 110.066 32.8011 110.04 32.7779 110.013C32.7752 110.01 32.7725 110.009 32.7711 110.006C32.6007 109.81 32.4466 109.6 32.3075 109.379C32.2857 109.343 32.2639 109.307 32.2421 109.269C32.2066 109.211 32.1739 109.151 32.1425 109.093C32.1248 109.059 32.1071 109.024 32.0894 108.991C31.9598 108.737 31.8521 108.471 31.7689 108.198C31.7635 108.179 31.7567 108.16 31.7512 108.14C31.6517 107.804 31.5862 107.452 31.5603 107.09C31.5549 107.028 31.5508 106.964 31.548 106.901C31.5453 106.833 31.5439 106.765 31.5439 106.697C31.5439 103.936 33.7379 101.697 36.4458 101.697C39.1538 101.697 41.3477 103.936 41.3477 106.697Z" fill="#E4E7EC"/>
<path d="M39.6337 110.179C39.4046 110.444 39.1033 110.617 38.8087 110.806C38.7324 110.855 38.656 110.902 38.5783 110.946C38.5101 110.985 38.4406 111.021 38.3697 111.055C38.3138 111.083 38.2592 111.109 38.202 111.133C38.1529 111.155 38.1038 111.176 38.0547 111.194C38.0138 111.211 37.9729 111.227 37.9306 111.241C37.8856 111.258 37.8406 111.273 37.7956 111.288C37.7506 111.302 37.7043 111.316 37.6606 111.332C37.6157 111.344 37.5679 111.358 37.5229 111.369C37.4302 111.394 37.3389 111.414 37.2448 111.432C37.1984 111.44 37.1507 111.448 37.1043 111.457C37.0552 111.465 37.0048 111.472 36.9557 111.479C36.9121 111.485 36.8671 111.489 36.8234 111.493C36.7294 111.501 36.6339 111.508 36.5398 111.511C36.4921 111.511 36.4457 111.514 36.3967 111.514C36.3476 111.514 36.2998 111.514 36.2508 111.511C36.2194 111.511 36.1867 111.508 36.1553 111.507C36.1144 111.504 36.0749 111.501 36.0353 111.498C35.9944 111.496 35.9549 111.491 35.914 111.487C35.8744 111.483 35.8362 111.479 35.7953 111.473C34.8818 111.345 34.0159 110.935 33.3328 110.3C33.3328 110.297 33.3287 110.296 33.326 110.294C33.2687 110.24 33.2142 110.184 33.1596 110.129C33.1283 110.097 33.0969 110.063 33.0642 110.029C33.0437 110.004 33.0219 109.98 33.0015 109.955C32.9987 109.952 32.996 109.951 32.9947 109.948C32.8365 109.766 32.6947 109.572 32.5651 109.367C32.5447 109.333 32.5242 109.3 32.5051 109.265C32.4724 109.211 32.4424 109.155 32.4124 109.101C32.3961 109.07 32.3797 109.038 32.3633 109.006C32.2433 108.771 32.1438 108.525 32.0661 108.272C32.0606 108.254 32.0552 108.236 32.0497 108.218C31.9584 107.926 31.8547 107.567 31.8711 107.268C31.8711 107.26 31.8711 107.253 31.8738 107.246C31.9038 106.918 32.2393 106.85 32.5188 107.085C32.7315 107.265 32.8515 107.541 33.0615 107.726C33.491 108.101 34.1959 108.015 34.5927 108.429C34.86 108.71 34.9077 109.145 35.1327 109.464C35.3276 109.737 35.6358 109.898 35.9331 110.048C36.7157 110.446 37.602 110.596 38.461 110.347C38.6506 110.293 38.8251 110.272 39.0214 110.252C39.0924 110.245 39.1646 110.239 39.2301 110.212C39.316 110.177 39.3869 110.113 39.4687 110.069C39.5505 110.024 39.6541 109.999 39.7332 110.049C39.7019 110.094 39.6691 110.137 39.635 110.177L39.6337 110.179Z" fill="#B7BBC3"/>
<path d="M36.9934 103.598C37.6517 103.679 38.2231 103.425 38.2695 103.031C38.316 102.637 37.82 102.253 37.1617 102.172C36.5034 102.091 35.932 102.345 35.8856 102.738C35.8391 103.132 36.3351 103.517 36.9934 103.598Z" fill="#F2F4F7"/>
<path d="M82.6733 80.4879C82.7101 80.5102 82.7415 80.5394 82.766 80.5769C82.8765 80.7452 82.7865 80.9691 82.6951 81.1485C82.2861 81.9522 81.7748 82.6336 81.0684 83.1927C80.4808 83.6585 79.6217 84.2148 78.8609 84.2899C78.4382 84.3316 78.0141 84.3511 77.5874 84.3344C77.3896 84.326 77.1824 84.308 77.0133 84.2023C76.8442 84.0966 76.727 83.8769 76.7965 83.6877C76.8361 83.5793 76.9274 83.5014 77.0256 83.4444C77.4333 83.2094 77.9582 83.3178 78.3877 83.1273C78.7259 82.9771 78.9632 82.6615 79.2727 82.4542C79.5208 82.2874 79.9763 82.1984 80.1508 81.9481C80.3349 81.6838 80.3349 81.2653 80.5299 80.9774C80.7235 80.6909 81.0385 80.4643 81.3793 80.474C81.5389 80.4782 81.6943 80.5338 81.8525 80.5282C82.0147 80.5241 82.1688 80.4587 82.3284 80.4337C82.4443 80.4156 82.5751 80.4267 82.6733 80.4865V80.4879Z" fill="#815015"/>
<path d="M87.9504 73.1982C87.9504 73.5222 87.9722 74.059 87.9722 74.6931C87.9722 76.8374 87.7118 80.1082 85.4265 80.1082C84.6288 80.1082 84.0834 79.5603 83.7098 78.7662C82.9012 77.0474 82.9012 74.1716 82.9012 73.1996V51.6351C82.9012 50.6283 82.7035 47.5272 83.6212 45.7986C84.0016 45.0852 84.5716 44.6055 85.4251 44.6055C88.3867 44.6055 87.949 50.2125 87.949 51.6351V73.1996L87.9504 73.1982Z" fill="#B08A5D"/>
<path d="M85.4264 80.1063H81.7994C79.2755 80.1063 79.2755 74.6188 79.2755 73.1976V51.6331C79.2755 50.2105 78.8801 44.6035 81.7994 44.6035H85.4264C84.5728 44.6035 84.0015 45.0833 83.6225 45.7967C82.7048 47.5252 82.9025 50.6263 82.9025 51.6331V73.1976C82.9025 74.1697 82.9025 77.0455 83.7111 78.7643C84.0847 79.5583 84.6301 80.1063 85.4278 80.1063H85.4264Z" fill="#815015"/>
<defs>
<clipPath id="clip0_1895_16523">
<rect x="4.5" y="12" width="88" height="88" rx="44" fill="white"/>
</clipPath>
<clipPath id="clip1_1895_16523">
<rect width="9.53952" height="20.4311" fill="white" transform="translate(72.0063 39.6641)"/>
</clipPath>
</defs>
</svg>
