<svg width="103" height="106" viewBox="0 0 103 106" fill="none" xmlns="http://www.w3.org/2000/svg">
<rect x="14.5" y="18" width="88" height="88" rx="44" fill="#F7F7F7"/>
<mask id="mask0_1780_74394" style="mask-type:alpha" maskUnits="userSpaceOnUse" x="-2" y="-1" width="112" height="108">
<path d="M101.508 66.555C101.508 88.3402 80.285 106.001 58.4999 106.001C36.7147 106.001 15.5156 88.3401 15.5156 66.555C15.5156 65.0345 -1.95083 60.8815 -1.7513 59.1285C-1.13221 56.5558 0.303223 52.5313 3.04001 44.9827C5.59589 37.9331 25.3572 31.9287 29.1933 25.4371C36.9587 12.296 48.0866 -0.810506 58.104 -0.810506C67.4385 -0.810506 95.0803 2.70658 102.583 14.5473C104.059 16.8761 107.653 31.3865 108.983 33.9013C110.146 36.1018 99.0097 32.1932 100.044 34.4719C101.106 36.8136 94.1346 35.9447 95.0423 38.3047C99.0875 48.8217 101.508 59.1979 101.508 66.555Z" fill="#D9D9D9"/>
</mask>
<g mask="url(#mask0_1780_74394)">
<path d="M81.75 14.758C81.75 15.4778 81.6817 16.1828 81.5496 16.8641H59.785C59.6544 16.1813 59.5846 15.4778 59.5846 14.758C59.5846 13.6151 59.7583 12.5123 60.0804 11.4749C61.4785 6.95838 65.6907 3.67676 70.6673 3.67676C74.1315 3.67676 77.2231 5.26637 79.255 7.75392C80.8149 9.66263 81.75 12.1012 81.75 14.758Z" fill="#FBF4EE"/>
<path d="M96.6011 16.866H74.4372C74.4476 13.0827 76.3548 9.74616 79.2565 7.75433C81.0376 6.53133 83.1956 5.81445 85.5199 5.81445C91.6305 5.81445 96.5848 10.7584 96.6026 16.8645L96.6011 16.866Z" fill="#FBF4EE"/>
<path d="M102.821 16.865H84.8787C86.4579 13.4958 89.882 11.1611 93.8494 11.1611C94.7058 11.1611 95.5384 11.2695 96.331 11.4743C99.2104 12.2164 101.582 14.2231 102.821 16.865Z" fill="#FBF4EE"/>
<path d="M89.315 27.1953H47.7375V123.132H89.315V27.1953Z" fill="#FAC394"/>
<path d="M78.4428 27.1953H28.2213V123.132H78.4428V27.1953Z" fill="#FBDFC6"/>
<path d="M73.7317 35.0791H34.5108V39.8263H73.7317V35.0791Z" fill="#FAC394"/>
<path d="M73.7317 52.5645H34.5108V57.3117H73.7317V52.5645Z" fill="#FAC394"/>
<path d="M73.7317 70.0537H34.5108V74.8009H73.7317V70.0537Z" fill="#FAC394"/>
<path d="M73.7317 87.5391H34.5108V92.2862H73.7317V87.5391Z" fill="#FAC394"/>
<path d="M73.7317 105.028H34.5108V109.776H73.7317V105.028Z" fill="#FAC394"/>
<path d="M76.5836 14.0312H49.7371V27.1958H76.5836V14.0312Z" fill="#FAC394"/>
<path d="M65.8558 14.0312H39.0093V27.1958H65.8558V14.0312Z" fill="#FBDFC6"/>
<path d="M58.1324 17.9834H44.1034V22.7306H58.1324V17.9834Z" fill="#FAC394"/>
<path d="M74.2732 19.3125H68.1061V21.3983H74.2732V19.3125Z" fill="#FBDFC6"/>
<path d="M59.8151 0.868164H56.8729V14.031H59.8151V0.868164Z" fill="#FAC394"/>
<path d="M59.0991 0.868164H56.1569V14.031H59.0991V0.868164Z" fill="#FBDFC6"/>
<path d="M28.224 56.1222C28.224 57.0372 28.1372 57.9334 27.9693 58.7994H0.302837C0.136808 57.9315 0.0481262 57.0372 0.0481262 56.1222C0.0481262 54.6694 0.268874 53.2676 0.678287 51.9488C2.45555 46.2076 7.80998 42.0361 14.1361 42.0361C18.5396 42.0361 22.4696 44.0568 25.0525 47.2189C27.0354 49.6452 28.224 52.745 28.224 56.1222Z" fill="#FBF4EE"/>
<path d="M47.1021 58.8022H18.9282C18.9414 53.993 21.3658 49.7518 25.0543 47.2198C27.3183 45.6652 30.0616 44.7539 33.0161 44.7539C40.7836 44.7539 47.0814 51.0385 47.104 58.8003L47.1021 58.8022Z" fill="#FBF4EE"/>
<path d="M55.0093 58.8004H32.201C34.2085 54.5176 38.5611 51.5498 43.6042 51.5498C44.6929 51.5498 45.7513 51.6875 46.7588 51.9479C50.419 52.8912 53.4339 55.442 55.0093 58.8004Z" fill="#FBF4EE"/>
</g>
</svg>
