<svg width="40" height="40" viewBox="0 0 40 40" fill="none" xmlns="http://www.w3.org/2000/svg" class="navIcon vertical"><g id="g1" style="mix-blend-mode: multiply;"><path d="M33.9016 19.4125H32.7266V17.05C32.7266 15.6625 31.6141 14.55 30.2266 14.55H9.77656C8.38906 14.55 7.27656 15.6625 7.27656 17.05V19.4125H6.10156C5.41406 19.4125 4.85156 19.975 4.85156 20.6625V25.4C4.85156 26.0875 5.41406 26.65 6.10156 26.65H7.27656V30.225C7.27656 31.6125 8.38906 32.725 9.77656 32.725H30.2266C31.6141 32.725 32.7266 31.6125 32.7266 30.225V26.65H33.9016C34.5891 26.65 35.1516 26.0875 35.1516 25.4V20.6625C35.1516 19.975 34.5891 19.4125 33.9016 19.4125ZM14.5516 25.475C13.2016 25.475 12.1016 24.375 12.1016 23.025C12.1016 21.675 13.2016 20.5875 14.5516 20.5875C15.9016 20.5875 16.9891 21.6875 16.9891 23.025C16.9891 24.3625 15.8891 25.475 14.5516 25.475ZM25.4516 25.475C24.1141 25.475 23.0141 24.375 23.0141 23.025C23.0141 21.675 24.1141 20.5875 25.4516 20.5875C26.7891 20.5875 27.9016 21.6875 27.9016 23.025C27.9016 24.3625 26.8016 25.475 25.4516 25.475Z" fill="#BCF2F8"></path></g><g id="g2" style="mix-blend-mode: multiply;"><path d="M22.4242 9.70002C22.4242 8.36252 21.3367 7.27502 19.9992 7.27502C18.6617 7.27502 17.5742 8.36252 17.5742 9.70002C17.5742 10.5875 18.0617 11.3625 18.7742 11.775V16.9375C18.7742 17.6125 19.3242 18.1625 19.9992 18.1625C20.6742 18.1625 21.2242 17.6125 21.2242 16.9375V11.775C21.9367 11.35 22.4242 10.5875 22.4242 9.70002Z" fill="#F9A06C"></path></g></svg>