<svg width="40" height="40" viewBox="0 0 40 40" fill="none" xmlns="http://www.w3.org/2000/svg" class="navIcon vertical"><g id="g1" style="mix-blend-mode: multiply;"><path d="M26.625 12.125H13.375C12.675 12.125 12.125 12.675 12.125 13.375V31.475C12.125 32.1625 12.675 32.725 13.375 32.725H26.625C27.325 32.725 27.875 32.1625 27.875 31.475V13.375C27.875 12.675 27.325 12.125 26.625 12.125ZM21.225 17.2875C21.225 17.4625 21.075 17.6 20.9125 17.6H19.0875C18.925 17.6 18.775 17.4625 18.775 17.2875V14.8625C18.775 14.6875 18.925 14.55 19.0875 14.55H20.9125C21.075 14.55 21.225 14.6875 21.225 14.8625V17.2875ZM24.2375 30.3C23.575 30.3 23.0375 29.7625 23.0375 29.0875C23.0375 28.4125 23.575 27.8875 24.2375 27.8875C24.9 27.8875 25.45 28.425 25.45 29.0875C25.45 29.75 24.9125 30.3 24.2375 30.3Z" fill="#90E3EC"></path></g><g id="g2" style="mix-blend-mode: multiply;"><path d="M31.4734 7.27502H8.52344C7.83308 7.27502 7.27344 7.83467 7.27344 8.52502V18.15C7.27344 18.8404 7.83308 19.4 8.52344 19.4H31.4734C32.1638 19.4 32.7234 18.8404 32.7234 18.15V8.52502C32.7234 7.83467 32.1638 7.27502 31.4734 7.27502Z" fill="#C0D2F9"></path></g></svg>