<svg width="40" height="40" viewBox="0 0 40 40" fill="none" xmlns="http://www.w3.org/2000/svg" class="navIcon vertical"><g id="g1" style="mix-blend-mode: multiply;"><path d="M28.4867 26.925V10.875C28.4867 9.98752 28.0242 9.17502 27.2617 8.72502L21.3242 5.20002C20.5367 4.73752 19.5742 4.73752 18.7867 5.20002L12.7492 8.73752C11.9867 9.18752 11.5117 10.0125 11.5117 10.9V26.95C11.5117 27.9125 12.5492 28.5125 13.3867 28.0375L19.3867 24.6125C19.7742 24.3875 20.2367 24.3875 20.6242 24.6125L26.6242 28.0375C27.4617 28.5125 28.4992 27.9125 28.4992 26.95L28.4867 26.925Z" fill="#FAC394"></path></g><g id="g2" style="mix-blend-mode: multiply;"><path d="M30.4375 18.9249C23.1625 21.2749 15.875 14.6749 8.6 17.8624C8.15 18.0624 7.875 18.5124 7.875 19.7124V29.6624C7.875 30.5374 8.7375 31.0999 9.5625 30.8249C16.8375 28.4749 24.125 35.0749 31.4 31.8874C31.85 31.6874 32.125 31.2374 32.125 30.0374V20.0874C32.125 19.2124 31.2625 18.6499 30.4375 18.9249ZM20 26.7499C18.9625 26.7499 18.125 25.9124 18.125 24.8749C18.125 23.8374 18.9625 22.9999 20 22.9999C21.0375 22.9999 21.875 23.8374 21.875 24.8749C21.875 25.9124 21.0375 26.7499 20 26.7499Z" fill="#9FB5EC"></path></g></svg>