<svg width="40" height="40" viewBox="0 0 40 40" fill="none" xmlns="http://www.w3.org/2000/svg" class="navIcon vertical"><g id="g1" style="mix-blend-mode: multiply;"><path d="M20.0008 27.875C26.359 27.875 31.5133 22.7207 31.5133 16.3625C31.5133 10.0043 26.359 4.84998 20.0008 4.84998C13.6426 4.84998 8.48828 10.0043 8.48828 16.3625C8.48828 22.7207 13.6426 27.875 20.0008 27.875Z" fill="#C2F2BA"></path></g><g id="g2"><g id="Vector_2" style="mix-blend-mode: multiply;"><path d="M19.9606 10.95C17.0856 10.975 14.6606 12.8125 13.7731 15.3875C13.5106 16.1625 14.0606 16.975 14.8856 16.975C15.3856 16.975 15.8356 16.65 15.9856 16.175C16.6231 14.25 18.6231 12.95 20.8606 13.3875C22.4481 13.7 23.7606 14.95 24.1231 16.525C24.7606 19.3125 22.6731 21.7875 19.9981 21.7875H19.9231C18.9606 21.7875 18.1731 22.575 18.1731 23.5375V27.875C18.1731 28.55 18.7106 29.0875 19.3856 29.0875C20.0606 29.0875 20.5981 28.55 20.5981 27.875V24.1C24.0106 23.8125 26.6856 20.8875 26.5856 17.35C26.4856 13.8375 23.4606 10.925 19.9481 10.95H19.9606Z" fill="#90E3EC"></path></g><g id="Vector_3" style="mix-blend-mode: multiply;"><path d="M19.4 30.3125C18.725 30.3125 18.1875 30.85 18.1875 31.525C18.1875 32.2 18.725 32.7375 19.4 32.7375C20.075 32.7375 20.6125 32.2 20.6125 31.525C20.6125 30.85 20.075 30.3125 19.4 30.3125Z" fill="#90E3EC"></path></g></g></svg>